<mxfile host="app.diagrams.net" modified="2024-05-10T18:57:08.538Z" agent="Mozilla/5.0 (Windows NT 10.0; Win64; x64) AppleWebKit/537.36 (KHTML, like Gecko) Chrome/124.0.0.0 Safari/537.36" etag="lTX3UGDV0raYgdVbGDXi" version="24.3.1" type="onedrive" pages="7">
  <diagram id="y8Kp_UAkve5eIDwRYYiN" name="페이지-1">
    <mxGraphModel dx="3328" dy="1915" grid="0" gridSize="10" guides="1" tooltips="1" connect="1" arrows="1" fold="1" page="1" pageScale="1" pageWidth="827" pageHeight="1169" math="0" shadow="0">
      <root>
        <mxCell id="0" />
        <mxCell id="1" parent="0" />
        <mxCell id="PgYOdquXXjcIgJMpl6EB-2" value="Availability Zone" style="fillColor=none;strokeColor=#147EBA;dashed=1;verticalAlign=top;fontStyle=0;fontColor=#147EBA;whiteSpace=wrap;html=1;" parent="1" vertex="1">
          <mxGeometry x="-371" y="146" width="290" height="720" as="geometry" />
        </mxCell>
        <mxCell id="PgYOdquXXjcIgJMpl6EB-37" value="dev CodePipeline&lt;div&gt;&lt;br&gt;&lt;/div&gt;" style="outlineConnect=0;gradientColor=none;html=1;whiteSpace=wrap;fontSize=12;fontStyle=0;strokeColor=#FF9900;fillColor=none;verticalAlign=top;align=center;fontColor=#FF9900;dashed=0;spacingTop=3;" parent="1" vertex="1">
          <mxGeometry x="-883" y="276" width="271" height="170" as="geometry" />
        </mxCell>
        <mxCell id="PgYOdquXXjcIgJMpl6EB-3" value="Availability Zone" style="fillColor=none;strokeColor=#147EBA;dashed=1;verticalAlign=top;fontStyle=0;fontColor=#147EBA;whiteSpace=wrap;html=1;container=0;" parent="1" vertex="1">
          <mxGeometry x="79" y="146" width="290" height="720" as="geometry" />
        </mxCell>
        <mxCell id="PgYOdquXXjcIgJMpl6EB-4" value="VPC" style="points=[[0,0],[0.25,0],[0.5,0],[0.75,0],[1,0],[1,0.25],[1,0.5],[1,0.75],[1,1],[0.75,1],[0.5,1],[0.25,1],[0,1],[0,0.75],[0,0.5],[0,0.25]];outlineConnect=0;gradientColor=none;html=1;whiteSpace=wrap;fontSize=12;fontStyle=0;container=0;pointerEvents=0;collapsible=0;recursiveResize=0;shape=mxgraph.aws4.group;grIcon=mxgraph.aws4.group_vpc2;strokeColor=#8C4FFF;fillColor=none;verticalAlign=top;align=left;spacingLeft=30;fontColor=#AAB7B8;dashed=0;" parent="1" vertex="1">
          <mxGeometry x="-391" y="176" width="790" height="670" as="geometry" />
        </mxCell>
        <mxCell id="PgYOdquXXjcIgJMpl6EB-5" value="AWS Cloud" style="points=[[0,0],[0.25,0],[0.5,0],[0.75,0],[1,0],[1,0.25],[1,0.5],[1,0.75],[1,1],[0.75,1],[0.5,1],[0.25,1],[0,1],[0,0.75],[0,0.5],[0,0.25]];outlineConnect=0;gradientColor=none;html=1;whiteSpace=wrap;fontSize=12;fontStyle=0;container=0;pointerEvents=0;collapsible=0;recursiveResize=0;shape=mxgraph.aws4.group;grIcon=mxgraph.aws4.group_aws_cloud_alt;strokeColor=#232F3E;fillColor=none;verticalAlign=top;align=left;spacingLeft=30;fontColor=#232F3E;dashed=0;" parent="1" vertex="1">
          <mxGeometry x="-1094" y="-134" width="1578" height="1153" as="geometry" />
        </mxCell>
        <mxCell id="PgYOdquXXjcIgJMpl6EB-6" value="Region" style="points=[[0,0],[0.25,0],[0.5,0],[0.75,0],[1,0],[1,0.25],[1,0.5],[1,0.75],[1,1],[0.75,1],[0.5,1],[0.25,1],[0,1],[0,0.75],[0,0.5],[0,0.25]];outlineConnect=0;gradientColor=none;html=1;whiteSpace=wrap;fontSize=12;fontStyle=0;container=0;pointerEvents=0;collapsible=0;recursiveResize=0;shape=mxgraph.aws4.group;grIcon=mxgraph.aws4.group_region;strokeColor=#00A4A6;fillColor=none;verticalAlign=top;align=left;spacingLeft=30;fontColor=#147EBA;dashed=1;" parent="1" vertex="1">
          <mxGeometry x="-411" y="116" width="830" height="780" as="geometry" />
        </mxCell>
        <mxCell id="PgYOdquXXjcIgJMpl6EB-7" value="Public subnet" style="points=[[0,0],[0.25,0],[0.5,0],[0.75,0],[1,0],[1,0.25],[1,0.5],[1,0.75],[1,1],[0.75,1],[0.5,1],[0.25,1],[0,1],[0,0.75],[0,0.5],[0,0.25]];outlineConnect=0;gradientColor=none;html=1;whiteSpace=wrap;fontSize=12;fontStyle=0;container=0;pointerEvents=0;collapsible=0;recursiveResize=0;shape=mxgraph.aws4.group;grIcon=mxgraph.aws4.group_security_group;grStroke=0;strokeColor=#7AA116;fillColor=#F2F6E8;verticalAlign=top;align=left;spacingLeft=30;fontColor=#248814;dashed=0;" parent="1" vertex="1">
          <mxGeometry x="159" y="206" width="160" height="140" as="geometry" />
        </mxCell>
        <mxCell id="PgYOdquXXjcIgJMpl6EB-8" value="" style="sketch=0;outlineConnect=0;fontColor=#232F3E;gradientColor=none;fillColor=#8C4FFF;strokeColor=none;dashed=0;verticalLabelPosition=bottom;verticalAlign=top;align=center;html=1;fontSize=12;fontStyle=0;aspect=fixed;pointerEvents=1;shape=mxgraph.aws4.internet_gateway;" parent="1" vertex="1">
          <mxGeometry x="-16" y="156" width="40" height="40" as="geometry" />
        </mxCell>
        <mxCell id="PgYOdquXXjcIgJMpl6EB-9" value="Session&lt;div&gt;Manager&lt;/div&gt;" style="sketch=0;outlineConnect=0;fontColor=#232F3E;gradientColor=none;fillColor=#E7157B;strokeColor=none;dashed=0;verticalLabelPosition=bottom;verticalAlign=top;align=center;html=1;fontSize=12;fontStyle=0;aspect=fixed;pointerEvents=1;shape=mxgraph.aws4.systems_manager_session_manager;" parent="1" vertex="1">
          <mxGeometry x="-601" y="-109" width="50" height="50" as="geometry" />
        </mxCell>
        <mxCell id="PgYOdquXXjcIgJMpl6EB-10" value="S3" style="sketch=0;points=[[0,0,0],[0.25,0,0],[0.5,0,0],[0.75,0,0],[1,0,0],[0,1,0],[0.25,1,0],[0.5,1,0],[0.75,1,0],[1,1,0],[0,0.25,0],[0,0.5,0],[0,0.75,0],[1,0.25,0],[1,0.5,0],[1,0.75,0]];outlineConnect=0;fontColor=#232F3E;fillColor=#7AA116;strokeColor=#ffffff;dashed=0;verticalLabelPosition=bottom;verticalAlign=top;align=center;html=1;fontSize=12;fontStyle=0;aspect=fixed;shape=mxgraph.aws4.resourceIcon;resIcon=mxgraph.aws4.s3;" parent="1" vertex="1">
          <mxGeometry x="-690" y="-114" width="60" height="60" as="geometry" />
        </mxCell>
        <mxCell id="PgYOdquXXjcIgJMpl6EB-11" value="" style="edgeStyle=orthogonalEdgeStyle;html=1;endArrow=none;elbow=vertical;startArrow=block;startFill=1;strokeColor=#545B64;rounded=0;" parent="1" source="PgYOdquXXjcIgJMpl6EB-10" target="PgYOdquXXjcIgJMpl6EB-37" edge="1">
          <mxGeometry width="100" relative="1" as="geometry">
            <mxPoint x="-301" y="476" as="sourcePoint" />
            <mxPoint x="-201" y="476" as="targetPoint" />
            <Array as="points">
              <mxPoint x="-650" y="191" />
              <mxPoint x="-650" y="191" />
            </Array>
          </mxGeometry>
        </mxCell>
        <mxCell id="PgYOdquXXjcIgJMpl6EB-12" value="CloudWatch" style="sketch=0;points=[[0,0,0],[0.25,0,0],[0.5,0,0],[0.75,0,0],[1,0,0],[0,1,0],[0.25,1,0],[0.5,1,0],[0.75,1,0],[1,1,0],[0,0.25,0],[0,0.5,0],[0,0.75,0],[1,0.25,0],[1,0.5,0],[1,0.75,0]];points=[[0,0,0],[0.25,0,0],[0.5,0,0],[0.75,0,0],[1,0,0],[0,1,0],[0.25,1,0],[0.5,1,0],[0.75,1,0],[1,1,0],[0,0.25,0],[0,0.5,0],[0,0.75,0],[1,0.25,0],[1,0.5,0],[1,0.75,0]];outlineConnect=0;fontColor=#232F3E;fillColor=#E7157B;strokeColor=#ffffff;dashed=0;verticalLabelPosition=bottom;verticalAlign=top;align=center;html=1;fontSize=12;fontStyle=0;aspect=fixed;shape=mxgraph.aws4.resourceIcon;resIcon=mxgraph.aws4.cloudwatch_2;" parent="1" vertex="1">
          <mxGeometry x="-601.5" y="802" width="52.5" height="52.5" as="geometry" />
        </mxCell>
        <mxCell id="PgYOdquXXjcIgJMpl6EB-13" value="SNS" style="sketch=0;points=[[0,0,0],[0.25,0,0],[0.5,0,0],[0.75,0,0],[1,0,0],[0,1,0],[0.25,1,0],[0.5,1,0],[0.75,1,0],[1,1,0],[0,0.25,0],[0,0.5,0],[0,0.75,0],[1,0.25,0],[1,0.5,0],[1,0.75,0]];outlineConnect=0;fontColor=#232F3E;fillColor=#E7157B;strokeColor=#ffffff;dashed=0;verticalLabelPosition=bottom;verticalAlign=top;align=center;html=1;fontSize=12;fontStyle=0;aspect=fixed;shape=mxgraph.aws4.resourceIcon;resIcon=mxgraph.aws4.sns;" parent="1" vertex="1">
          <mxGeometry x="-759" y="804.5" width="50" height="50" as="geometry" />
        </mxCell>
        <mxCell id="PgYOdquXXjcIgJMpl6EB-14" value="Alarm" style="sketch=0;outlineConnect=0;fontColor=#232F3E;gradientColor=none;fillColor=#E7157B;strokeColor=none;dashed=0;verticalLabelPosition=bottom;verticalAlign=top;align=center;html=1;fontSize=12;fontStyle=0;aspect=fixed;pointerEvents=1;shape=mxgraph.aws4.alarm;" parent="1" vertex="1">
          <mxGeometry x="-680.25" y="802" width="48.75" height="48.75" as="geometry" />
        </mxCell>
        <mxCell id="PgYOdquXXjcIgJMpl6EB-15" value="Lambda" style="sketch=0;points=[[0,0,0],[0.25,0,0],[0.5,0,0],[0.75,0,0],[1,0,0],[0,1,0],[0.25,1,0],[0.5,1,0],[0.75,1,0],[1,1,0],[0,0.25,0],[0,0.5,0],[0,0.75,0],[1,0.25,0],[1,0.5,0],[1,0.75,0]];outlineConnect=0;fontColor=#232F3E;fillColor=#ED7100;strokeColor=#ffffff;dashed=0;verticalLabelPosition=bottom;verticalAlign=top;align=center;html=1;fontSize=12;fontStyle=0;aspect=fixed;shape=mxgraph.aws4.resourceIcon;resIcon=mxgraph.aws4.lambda;" parent="1" vertex="1">
          <mxGeometry x="-759" y="712" width="50" height="50" as="geometry" />
        </mxCell>
        <mxCell id="PgYOdquXXjcIgJMpl6EB-16" value="Slack" style="shape=image;html=1;verticalAlign=top;verticalLabelPosition=bottom;labelBackgroundColor=#ffffff;imageAspect=0;aspect=fixed;image=https://cdn2.iconfinder.com/data/icons/social-media-2285/512/1_Slack_colored_svg-128.png" parent="1" vertex="1">
          <mxGeometry x="-849" y="713" width="48" height="48" as="geometry" />
        </mxCell>
        <mxCell id="PgYOdquXXjcIgJMpl6EB-17" value="" style="edgeStyle=orthogonalEdgeStyle;html=1;endArrow=none;elbow=vertical;startArrow=block;startFill=1;strokeColor=#545B64;rounded=0;entryX=0;entryY=0.75;entryDx=0;entryDy=0;exitX=1;exitY=0.5;exitDx=0;exitDy=0;exitPerimeter=0;" parent="1" source="PgYOdquXXjcIgJMpl6EB-12" target="PgYOdquXXjcIgJMpl6EB-72" edge="1">
          <mxGeometry width="100" relative="1" as="geometry">
            <mxPoint x="-493" y="829" as="sourcePoint" />
            <mxPoint x="-201" y="376" as="targetPoint" />
            <Array as="points">
              <mxPoint x="-421" y="828" />
              <mxPoint x="-421" y="449" />
              <mxPoint x="-301" y="449" />
            </Array>
          </mxGeometry>
        </mxCell>
        <mxCell id="PgYOdquXXjcIgJMpl6EB-18" value="Parameter&lt;div&gt;Store&lt;/div&gt;" style="sketch=0;outlineConnect=0;fontColor=#232F3E;gradientColor=none;fillColor=#E7157B;strokeColor=none;dashed=0;verticalLabelPosition=bottom;verticalAlign=top;align=center;html=1;fontSize=12;fontStyle=0;aspect=fixed;pointerEvents=1;shape=mxgraph.aws4.parameter_store;" parent="1" vertex="1">
          <mxGeometry x="-649.5799999999999" y="712" width="48.08" height="50" as="geometry" />
        </mxCell>
        <mxCell id="PgYOdquXXjcIgJMpl6EB-19" value="" style="edgeStyle=orthogonalEdgeStyle;html=1;endArrow=none;elbow=vertical;startArrow=block;startFill=1;strokeColor=#545B64;rounded=0;" parent="1" edge="1">
          <mxGeometry width="100" relative="1" as="geometry">
            <mxPoint x="-631.6340589140618" y="829.4000000000001" as="sourcePoint" />
            <mxPoint x="-601.5" y="829.4000000000001" as="targetPoint" />
            <Array as="points">
              <mxPoint x="-609" y="829" />
              <mxPoint x="-609" y="829" />
            </Array>
          </mxGeometry>
        </mxCell>
        <mxCell id="PgYOdquXXjcIgJMpl6EB-20" value="" style="edgeStyle=orthogonalEdgeStyle;html=1;endArrow=none;elbow=vertical;startArrow=block;startFill=1;strokeColor=#545B64;rounded=0;" parent="1" source="PgYOdquXXjcIgJMpl6EB-13" target="PgYOdquXXjcIgJMpl6EB-14" edge="1">
          <mxGeometry width="100" relative="1" as="geometry">
            <mxPoint x="-619" y="840" as="sourcePoint" />
            <mxPoint x="-679" y="830" as="targetPoint" />
            <Array as="points">
              <mxPoint x="-689" y="830" />
              <mxPoint x="-689" y="830" />
            </Array>
          </mxGeometry>
        </mxCell>
        <mxCell id="PgYOdquXXjcIgJMpl6EB-21" value="" style="edgeStyle=orthogonalEdgeStyle;html=1;endArrow=none;elbow=vertical;startArrow=block;startFill=1;strokeColor=#545B64;rounded=0;entryX=0.5;entryY=0;entryDx=0;entryDy=0;entryPerimeter=0;exitX=0.5;exitY=1;exitDx=0;exitDy=0;exitPerimeter=0;" parent="1" source="PgYOdquXXjcIgJMpl6EB-15" target="PgYOdquXXjcIgJMpl6EB-13" edge="1">
          <mxGeometry width="100" relative="1" as="geometry">
            <mxPoint x="-849" y="780" as="sourcePoint" />
            <mxPoint x="-749" y="780" as="targetPoint" />
          </mxGeometry>
        </mxCell>
        <mxCell id="PgYOdquXXjcIgJMpl6EB-22" value="" style="edgeStyle=orthogonalEdgeStyle;html=1;endArrow=none;elbow=vertical;startArrow=block;startFill=1;strokeColor=#545B64;rounded=0;entryX=0;entryY=0.5;entryDx=0;entryDy=0;entryPerimeter=0;exitX=1;exitY=0.5;exitDx=0;exitDy=0;" parent="1" source="PgYOdquXXjcIgJMpl6EB-16" target="PgYOdquXXjcIgJMpl6EB-15" edge="1">
          <mxGeometry width="100" relative="1" as="geometry">
            <mxPoint x="-859" y="700" as="sourcePoint" />
            <mxPoint x="-759" y="700" as="targetPoint" />
          </mxGeometry>
        </mxCell>
        <mxCell id="PgYOdquXXjcIgJMpl6EB-23" value="" style="edgeStyle=orthogonalEdgeStyle;html=1;endArrow=block;elbow=vertical;startArrow=block;startFill=1;endFill=1;strokeColor=#545B64;rounded=0;exitX=1;exitY=0.5;exitDx=0;exitDy=0;exitPerimeter=0;" parent="1" source="PgYOdquXXjcIgJMpl6EB-15" target="PgYOdquXXjcIgJMpl6EB-18" edge="1">
          <mxGeometry width="100" relative="1" as="geometry">
            <mxPoint x="-699" y="740" as="sourcePoint" />
            <mxPoint x="-599" y="740" as="targetPoint" />
          </mxGeometry>
        </mxCell>
        <mxCell id="PgYOdquXXjcIgJMpl6EB-24" value="" style="sketch=0;outlineConnect=0;fontColor=#232F3E;gradientColor=none;fillColor=#232F3D;strokeColor=none;dashed=0;verticalLabelPosition=bottom;verticalAlign=top;align=center;html=1;fontSize=12;fontStyle=0;aspect=fixed;pointerEvents=1;shape=mxgraph.aws4.user;" parent="1" vertex="1">
          <mxGeometry x="-21" y="-214" width="50" height="50" as="geometry" />
        </mxCell>
        <mxCell id="PgYOdquXXjcIgJMpl6EB-25" value="" style="points=[[0.35,0,0],[0.98,0.51,0],[1,0.71,0],[0.67,1,0],[0,0.795,0],[0,0.65,0]];verticalLabelPosition=bottom;sketch=0;html=1;verticalAlign=top;aspect=fixed;align=center;pointerEvents=1;shape=mxgraph.cisco19.user;fillColor=#005073;strokeColor=none;" parent="1" vertex="1">
          <mxGeometry x="-1231" y="374" width="50" height="50" as="geometry" />
        </mxCell>
        <mxCell id="PgYOdquXXjcIgJMpl6EB-26" value="WAF" style="sketch=0;points=[[0,0,0],[0.25,0,0],[0.5,0,0],[0.75,0,0],[1,0,0],[0,1,0],[0.25,1,0],[0.5,1,0],[0.75,1,0],[1,1,0],[0,0.25,0],[0,0.5,0],[0,0.75,0],[1,0.25,0],[1,0.5,0],[1,0.75,0]];outlineConnect=0;fontColor=#232F3E;fillColor=#DD344C;strokeColor=#ffffff;dashed=0;verticalLabelPosition=bottom;verticalAlign=top;align=center;html=1;fontSize=12;fontStyle=0;aspect=fixed;shape=mxgraph.aws4.resourceIcon;resIcon=mxgraph.aws4.waf;" parent="1" vertex="1">
          <mxGeometry x="-21" y="46" width="50" height="50" as="geometry" />
        </mxCell>
        <mxCell id="PgYOdquXXjcIgJMpl6EB-27" value="Route53" style="sketch=0;points=[[0,0,0],[0.25,0,0],[0.5,0,0],[0.75,0,0],[1,0,0],[0,1,0],[0.25,1,0],[0.5,1,0],[0.75,1,0],[1,1,0],[0,0.25,0],[0,0.5,0],[0,0.75,0],[1,0.25,0],[1,0.5,0],[1,0.75,0]];outlineConnect=0;fontColor=#232F3E;fillColor=#8C4FFF;strokeColor=#ffffff;dashed=0;verticalLabelPosition=bottom;verticalAlign=top;align=center;html=1;fontSize=12;fontStyle=0;aspect=fixed;shape=mxgraph.aws4.resourceIcon;resIcon=mxgraph.aws4.route_53;" parent="1" vertex="1">
          <mxGeometry x="-21" y="-114" width="50" height="50" as="geometry" />
        </mxCell>
        <mxCell id="PgYOdquXXjcIgJMpl6EB-28" value="Shield" style="sketch=0;points=[[0,0,0],[0.25,0,0],[0.5,0,0],[0.75,0,0],[1,0,0],[0,1,0],[0.25,1,0],[0.5,1,0],[0.75,1,0],[1,1,0],[0,0.25,0],[0,0.5,0],[0,0.75,0],[1,0.25,0],[1,0.5,0],[1,0.75,0]];outlineConnect=0;fontColor=#232F3E;fillColor=#DD344C;strokeColor=#ffffff;dashed=0;verticalLabelPosition=bottom;verticalAlign=top;align=center;html=1;fontSize=12;fontStyle=0;aspect=fixed;shape=mxgraph.aws4.resourceIcon;resIcon=mxgraph.aws4.shield;" parent="1" vertex="1">
          <mxGeometry x="-471" y="-114" width="60" height="60" as="geometry" />
        </mxCell>
        <mxCell id="PgYOdquXXjcIgJMpl6EB-29" value="" style="edgeStyle=orthogonalEdgeStyle;html=1;endArrow=block;elbow=vertical;startArrow=none;endFill=1;strokeColor=#545B64;rounded=0;entryX=0.5;entryY=0;entryDx=0;entryDy=0;entryPerimeter=0;" parent="1" source="PgYOdquXXjcIgJMpl6EB-24" target="PgYOdquXXjcIgJMpl6EB-27" edge="1">
          <mxGeometry width="100" relative="1" as="geometry">
            <mxPoint x="-178.5" y="-5" as="sourcePoint" />
            <mxPoint x="-78.5" y="-5" as="targetPoint" />
          </mxGeometry>
        </mxCell>
        <mxCell id="PgYOdquXXjcIgJMpl6EB-30" value="" style="edgeStyle=orthogonalEdgeStyle;html=1;endArrow=block;elbow=vertical;startArrow=none;endFill=1;strokeColor=#545B64;rounded=0;exitX=0.5;exitY=1;exitDx=0;exitDy=0;exitPerimeter=0;" parent="1" source="PgYOdquXXjcIgJMpl6EB-26" target="PgYOdquXXjcIgJMpl6EB-8" edge="1">
          <mxGeometry width="100" relative="1" as="geometry">
            <mxPoint x="31.5" y="126" as="sourcePoint" />
            <mxPoint x="131.5" y="126" as="targetPoint" />
          </mxGeometry>
        </mxCell>
        <mxCell id="PgYOdquXXjcIgJMpl6EB-31" value="" style="edgeStyle=orthogonalEdgeStyle;html=1;endArrow=block;elbow=vertical;startArrow=none;endFill=1;strokeColor=#545B64;rounded=0;" parent="1" source="PgYOdquXXjcIgJMpl6EB-8" edge="1">
          <mxGeometry width="100" relative="1" as="geometry">
            <mxPoint x="1.5" y="246" as="sourcePoint" />
            <mxPoint x="4" y="326.0004545351244" as="targetPoint" />
          </mxGeometry>
        </mxCell>
        <mxCell id="PgYOdquXXjcIgJMpl6EB-32" value="" style="edgeStyle=orthogonalEdgeStyle;html=1;endArrow=none;elbow=vertical;startArrow=block;startFill=1;strokeColor=#545B64;rounded=0;entryX=0;entryY=0.5;entryDx=0;entryDy=0;" parent="1" source="PgYOdquXXjcIgJMpl6EB-12" edge="1">
          <mxGeometry width="100" relative="1" as="geometry">
            <mxPoint x="-381" y="596" as="sourcePoint" />
            <mxPoint x="-291" y="599.75" as="targetPoint" />
            <Array as="points">
              <mxPoint x="-421" y="830" />
              <mxPoint x="-421" y="597" />
              <mxPoint x="-283" y="597" />
              <mxPoint x="-283" y="600" />
            </Array>
          </mxGeometry>
        </mxCell>
        <mxCell id="PgYOdquXXjcIgJMpl6EB-34" value="AWS S3" style="sketch=0;points=[[0,0,0],[0.25,0,0],[0.5,0,0],[0.75,0,0],[1,0,0],[0,1,0],[0.25,1,0],[0.5,1,0],[0.75,1,0],[1,1,0],[0,0.25,0],[0,0.5,0],[0,0.75,0],[1,0.25,0],[1,0.5,0],[1,0.75,0]];outlineConnect=0;fontColor=#232F3E;fillColor=#7AA116;strokeColor=#ffffff;dashed=0;verticalLabelPosition=bottom;verticalAlign=top;align=center;html=1;fontSize=12;fontStyle=0;aspect=fixed;shape=mxgraph.aws4.resourceIcon;resIcon=mxgraph.aws4.s3;" parent="1" vertex="1">
          <mxGeometry x="-490" y="916" width="50" height="50" as="geometry" />
        </mxCell>
        <mxCell id="PgYOdquXXjcIgJMpl6EB-35" value="Lambda" style="sketch=0;points=[[0,0,0],[0.25,0,0],[0.5,0,0],[0.75,0,0],[1,0,0],[0,1,0],[0.25,1,0],[0.5,1,0],[0.75,1,0],[1,1,0],[0,0.25,0],[0,0.5,0],[0,0.75,0],[1,0.25,0],[1,0.5,0],[1,0.75,0]];outlineConnect=0;fontColor=#232F3E;fillColor=#ED7100;strokeColor=#ffffff;dashed=0;verticalLabelPosition=bottom;verticalAlign=top;align=center;html=1;fontSize=12;fontStyle=0;aspect=fixed;shape=mxgraph.aws4.resourceIcon;resIcon=mxgraph.aws4.lambda;" parent="1" vertex="1">
          <mxGeometry x="-586" y="916" width="50" height="50" as="geometry" />
        </mxCell>
        <mxCell id="PgYOdquXXjcIgJMpl6EB-45" value="Athena" style="sketch=0;points=[[0,0,0],[0.25,0,0],[0.5,0,0],[0.75,0,0],[1,0,0],[0,1,0],[0.25,1,0],[0.5,1,0],[0.75,1,0],[1,1,0],[0,0.25,0],[0,0.5,0],[0,0.75,0],[1,0.25,0],[1,0.5,0],[1,0.75,0]];outlineConnect=0;fontColor=#232F3E;fillColor=#8C4FFF;strokeColor=#ffffff;dashed=0;verticalLabelPosition=bottom;verticalAlign=top;align=center;html=1;fontSize=12;fontStyle=0;aspect=fixed;shape=mxgraph.aws4.resourceIcon;resIcon=mxgraph.aws4.athena;" parent="1" vertex="1">
          <mxGeometry x="-776" y="917" width="48" height="48" as="geometry" />
        </mxCell>
        <mxCell id="PgYOdquXXjcIgJMpl6EB-46" value="AWS Glue" style="sketch=0;points=[[0,0,0],[0.25,0,0],[0.5,0,0],[0.75,0,0],[1,0,0],[0,1,0],[0.25,1,0],[0.5,1,0],[0.75,1,0],[1,1,0],[0,0.25,0],[0,0.5,0],[0,0.75,0],[1,0.25,0],[1,0.5,0],[1,0.75,0]];outlineConnect=0;fontColor=#232F3E;fillColor=#8C4FFF;strokeColor=#ffffff;dashed=0;verticalLabelPosition=bottom;verticalAlign=top;align=center;html=1;fontSize=12;fontStyle=0;aspect=fixed;shape=mxgraph.aws4.resourceIcon;resIcon=mxgraph.aws4.glue;" parent="1" vertex="1">
          <mxGeometry x="-680" y="917" width="48" height="48" as="geometry" />
        </mxCell>
        <mxCell id="PgYOdquXXjcIgJMpl6EB-47" value="QuickSight" style="sketch=0;points=[[0,0,0],[0.25,0,0],[0.5,0,0],[0.75,0,0],[1,0,0],[0,1,0],[0.25,1,0],[0.5,1,0],[0.75,1,0],[1,1,0],[0,0.25,0],[0,0.5,0],[0,0.75,0],[1,0.25,0],[1,0.5,0],[1,0.75,0]];outlineConnect=0;fontColor=#232F3E;fillColor=#8C4FFF;strokeColor=#ffffff;dashed=0;verticalLabelPosition=bottom;verticalAlign=top;align=center;html=1;fontSize=12;fontStyle=0;aspect=fixed;shape=mxgraph.aws4.resourceIcon;resIcon=mxgraph.aws4.quicksight;" parent="1" vertex="1">
          <mxGeometry x="-877" y="916" width="50" height="50" as="geometry" />
        </mxCell>
        <mxCell id="PgYOdquXXjcIgJMpl6EB-49" value="" style="endArrow=classic;html=1;rounded=0;exitX=0;exitY=0.5;exitDx=0;exitDy=0;exitPerimeter=0;entryX=1;entryY=0.5;entryDx=0;entryDy=0;entryPerimeter=0;" parent="1" source="PgYOdquXXjcIgJMpl6EB-34" target="PgYOdquXXjcIgJMpl6EB-35" edge="1">
          <mxGeometry width="50" height="50" relative="1" as="geometry">
            <mxPoint x="-578" y="1110" as="sourcePoint" />
            <mxPoint x="-455" y="945" as="targetPoint" />
          </mxGeometry>
        </mxCell>
        <mxCell id="PgYOdquXXjcIgJMpl6EB-51" value="ECR" style="sketch=0;points=[[0,0,0],[0.25,0,0],[0.5,0,0],[0.75,0,0],[1,0,0],[0,1,0],[0.25,1,0],[0.5,1,0],[0.75,1,0],[1,1,0],[0,0.25,0],[0,0.5,0],[0,0.75,0],[1,0.25,0],[1,0.5,0],[1,0.75,0]];outlineConnect=0;fontColor=#232F3E;fillColor=#ED7100;strokeColor=#ffffff;dashed=0;verticalLabelPosition=bottom;verticalAlign=top;align=center;html=1;fontSize=12;fontStyle=0;aspect=fixed;shape=mxgraph.aws4.resourceIcon;resIcon=mxgraph.aws4.ecr;" parent="1" vertex="1">
          <mxGeometry x="-776" y="140" width="58" height="58" as="geometry" />
        </mxCell>
        <mxCell id="PgYOdquXXjcIgJMpl6EB-52" value="ECS" style="sketch=0;points=[[0,0,0],[0.25,0,0],[0.5,0,0],[0.75,0,0],[1,0,0],[0,1,0],[0.25,1,0],[0.5,1,0],[0.75,1,0],[1,1,0],[0,0.25,0],[0,0.5,0],[0,0.75,0],[1,0.25,0],[1,0.5,0],[1,0.75,0]];outlineConnect=0;fontColor=#232F3E;fillColor=#ED7100;strokeColor=#ffffff;dashed=0;verticalLabelPosition=bottom;verticalAlign=top;align=center;html=1;fontSize=12;fontStyle=0;aspect=fixed;shape=mxgraph.aws4.resourceIcon;resIcon=mxgraph.aws4.ecs;" parent="1" vertex="1">
          <mxGeometry x="-556" y="485" width="59" height="59" as="geometry" />
        </mxCell>
        <mxCell id="PgYOdquXXjcIgJMpl6EB-53" value="Public subnet" style="points=[[0,0],[0.25,0],[0.5,0],[0.75,0],[1,0],[1,0.25],[1,0.5],[1,0.75],[1,1],[0.75,1],[0.5,1],[0.25,1],[0,1],[0,0.75],[0,0.5],[0,0.25]];outlineConnect=0;gradientColor=none;html=1;whiteSpace=wrap;fontSize=12;fontStyle=0;container=1;pointerEvents=0;collapsible=0;recursiveResize=0;shape=mxgraph.aws4.group;grIcon=mxgraph.aws4.group_security_group;grStroke=0;strokeColor=#7AA116;fillColor=#F2F6E8;verticalAlign=top;align=left;spacingLeft=30;fontColor=#248814;dashed=0;" parent="1" vertex="1">
          <mxGeometry x="-313.5" y="206" width="152.5" height="140" as="geometry" />
        </mxCell>
        <mxCell id="PgYOdquXXjcIgJMpl6EB-54" value="NAT Gateway" style="sketch=0;outlineConnect=0;fontColor=#232F3E;gradientColor=none;fillColor=#8C4FFF;strokeColor=none;dashed=0;verticalLabelPosition=bottom;verticalAlign=top;align=center;html=1;fontSize=12;fontStyle=0;aspect=fixed;pointerEvents=1;shape=mxgraph.aws4.nat_gateway;" parent="PgYOdquXXjcIgJMpl6EB-53" vertex="1">
          <mxGeometry x="52.5" y="45" width="40" height="40" as="geometry" />
        </mxCell>
        <mxCell id="PgYOdquXXjcIgJMpl6EB-55" value="&lt;span style=&quot;color: rgba(0, 0, 0, 0); font-family: monospace; font-size: 0px; text-wrap: nowrap;&quot;&gt;db%3CmxGraphModel%3E%3Croot%3E%3CmxCell%20id%3D%220%22%2F%3E%3CmxCell%20id%3D%221%22%20parent%3D%220%22%2F%3E%3CmxCell%20id%3D%222%22%20value%3D%22ALB%22%20style%3D%22sketch%3D0%3BoutlineConnect%3D0%3BfontColor%3D%23232F3E%3BgradientColor%3Dnone%3BfillColor%3D%238C4FFF%3BstrokeColor%3Dnone%3Bdashed%3D0%3BverticalLabelPosition%3Dbottom%3BverticalAlign%3Dtop%3Balign%3Dcenter%3Bhtml%3D1%3BfontSize%3D12%3BfontStyle%3D0%3Baspect%3Dfixed%3BpointerEvents%3D1%3Bshape%3Dmxgraph.aws4.application_load_balancer%3B%22%20vertex%3D%221%22%20parent%3D%221%22%3E%3CmxGeometry%20x%3D%22753.75%22%20y%3D%22490%22%20width%3D%2240%22%20height%3D%2240%22%20as%3D%22geometry%22%2F%3E%3C%2FmxCell%3E%3CmxCell%20id%3D%223%22%20value%3D%22%22%20style%3D%22edgeStyle%3DorthogonalEdgeStyle%3Bhtml%3D1%3BendArrow%3Dblock%3Belbow%3Dvertical%3BstartArrow%3Dnone%3BendFill%3D1%3BstrokeColor%3D%23545B64%3Brounded%3D0%3BentryX%3D0.5%3BentryY%3D0%3BentryDx%3D0%3BentryDy%3D0%3BentryPerimeter%3D0%3B%22%20edge%3D%221%22%20source%3D%222%22%20parent%3D%221%22%3E%3CmxGeometry%20width%3D%22100%22%20relative%3D%221%22%20as%3D%22geometry%22%3E%3CmxPoint%20x%3D%22800%22%20y%3D%22510%22%20as%3D%22sourcePoint%22%2F%3E%3CmxPoint%20x%3D%22954%22%20y%3D%22566%22%20as%3D%22targetPoint%22%2F%3E%3C%2FmxGeometry%3E%3C%2FmxCell%3E%3CmxCell%20id%3D%224%22%20value%3D%22%22%20style%3D%22edgeStyle%3DorthogonalEdgeStyle%3Bhtml%3D1%3BendArrow%3Dnone%3Belbow%3Dvertical%3BstartArrow%3Dblock%3BstartFill%3D1%3BstrokeColor%3D%23545B64%3Brounded%3D0%3BexitX%3D0.5%3BexitY%3D0%3BexitDx%3D0%3BexitDy%3D0%3BexitPerimeter%3D0%3B%22%20edge%3D%221%22%20target%3D%222%22%20parent%3D%221%22%3E%3CmxGeometry%20width%3D%22100%22%20relative%3D%221%22%20as%3D%22geometry%22%3E%3CmxPoint%20x%3D%22592%22%20y%3D%22566%22%20as%3D%22sourcePoint%22%2F%3E%3CmxPoint%20x%3D%22700%22%20y%3D%22500%22%20as%3D%22targetPoint%22%2F%3E%3CArray%20as%3D%22points%22%3E%3CmxPoint%20x%3D%22592%22%20y%3D%22510%22%2F%3E%3C%2FArray%3E%3C%2FmxGeometry%3E%3C%2FmxCell%3E%3C%2Froot%3E%3C%2FmxGraphModel%3Edfd&lt;/span&gt;&amp;nbsp;DB subnet" style="points=[[0,0],[0.25,0],[0.5,0],[0.75,0],[1,0],[1,0.25],[1,0.5],[1,0.75],[1,1],[0.75,1],[0.5,1],[0.25,1],[0,1],[0,0.75],[0,0.5],[0,0.25]];outlineConnect=0;gradientColor=none;html=1;whiteSpace=wrap;fontSize=12;fontStyle=0;container=1;pointerEvents=0;collapsible=0;recursiveResize=0;shape=mxgraph.aws4.group;grIcon=mxgraph.aws4.group_security_group;grStroke=0;strokeColor=#00A4A6;fillColor=#E6F6F7;verticalAlign=top;align=left;spacingLeft=30;fontColor=#147EBA;dashed=0;" parent="1" vertex="1">
          <mxGeometry x="-314.75" y="666" width="153.75" height="150" as="geometry" />
        </mxCell>
        <mxCell id="PgYOdquXXjcIgJMpl6EB-56" value="RDS&lt;div&gt;Primary&lt;/div&gt;" style="sketch=0;points=[[0,0,0],[0.25,0,0],[0.5,0,0],[0.75,0,0],[1,0,0],[0,1,0],[0.25,1,0],[0.5,1,0],[0.75,1,0],[1,1,0],[0,0.25,0],[0,0.5,0],[0,0.75,0],[1,0.25,0],[1,0.5,0],[1,0.75,0]];outlineConnect=0;fontColor=#232F3E;fillColor=#C925D1;strokeColor=#ffffff;dashed=0;verticalLabelPosition=bottom;verticalAlign=top;align=center;html=1;fontSize=12;fontStyle=0;aspect=fixed;shape=mxgraph.aws4.resourceIcon;resIcon=mxgraph.aws4.rds;" parent="PgYOdquXXjcIgJMpl6EB-55" vertex="1">
          <mxGeometry x="53.75" y="45.5" width="39" height="39" as="geometry" />
        </mxCell>
        <mxCell id="PgYOdquXXjcIgJMpl6EB-57" value="Web subnet" style="points=[[0,0],[0.25,0],[0.5,0],[0.75,0],[1,0],[1,0.25],[1,0.5],[1,0.75],[1,1],[0.75,1],[0.5,1],[0.25,1],[0,1],[0,0.75],[0,0.5],[0,0.25]];outlineConnect=0;gradientColor=none;html=1;whiteSpace=wrap;fontSize=12;fontStyle=0;container=1;pointerEvents=0;collapsible=0;recursiveResize=0;shape=mxgraph.aws4.group;grIcon=mxgraph.aws4.group_security_group;grStroke=0;strokeColor=#00A4A6;fillColor=#E6F6F7;verticalAlign=top;align=left;spacingLeft=30;fontColor=#147EBA;dashed=0;" parent="1" vertex="1">
          <mxGeometry x="-314.75" y="358.5" width="153.75" height="147.5" as="geometry" />
        </mxCell>
        <mxCell id="PgYOdquXXjcIgJMpl6EB-58" value="web subnet" style="points=[[0,0],[0.25,0],[0.5,0],[0.75,0],[1,0],[1,0.25],[1,0.5],[1,0.75],[1,1],[0.75,1],[0.5,1],[0.25,1],[0,1],[0,0.75],[0,0.5],[0,0.25]];outlineConnect=0;gradientColor=none;html=1;whiteSpace=wrap;fontSize=12;fontStyle=0;container=1;pointerEvents=0;collapsible=0;recursiveResize=0;shape=mxgraph.aws4.group;grIcon=mxgraph.aws4.group_security_group;grStroke=0;strokeColor=#00A4A6;fillColor=#E6F6F7;verticalAlign=top;align=left;spacingLeft=30;fontColor=#147EBA;dashed=0;" parent="1" vertex="1">
          <mxGeometry x="159" y="356" width="160" height="150" as="geometry" />
        </mxCell>
        <mxCell id="PgYOdquXXjcIgJMpl6EB-59" value="DB subnet" style="points=[[0,0],[0.25,0],[0.5,0],[0.75,0],[1,0],[1,0.25],[1,0.5],[1,0.75],[1,1],[0.75,1],[0.5,1],[0.25,1],[0,1],[0,0.75],[0,0.5],[0,0.25]];outlineConnect=0;gradientColor=none;html=1;whiteSpace=wrap;fontSize=12;fontStyle=0;container=1;pointerEvents=0;collapsible=0;recursiveResize=0;shape=mxgraph.aws4.group;grIcon=mxgraph.aws4.group_security_group;grStroke=0;strokeColor=#00A4A6;fillColor=#E6F6F7;verticalAlign=top;align=left;spacingLeft=30;fontColor=#147EBA;dashed=0;" parent="1" vertex="1">
          <mxGeometry x="159" y="666" width="160" height="150" as="geometry" />
        </mxCell>
        <mxCell id="PgYOdquXXjcIgJMpl6EB-60" value="RDS&lt;div&gt;Secondary&lt;/div&gt;" style="sketch=0;points=[[0,0,0],[0.25,0,0],[0.5,0,0],[0.75,0,0],[1,0,0],[0,1,0],[0.25,1,0],[0.5,1,0],[0.75,1,0],[1,1,0],[0,0.25,0],[0,0.5,0],[0,0.75,0],[1,0.25,0],[1,0.5,0],[1,0.75,0]];outlineConnect=0;fontColor=#232F3E;fillColor=#C925D1;strokeColor=#ffffff;dashed=0;verticalLabelPosition=bottom;verticalAlign=top;align=center;html=1;fontSize=12;fontStyle=0;aspect=fixed;shape=mxgraph.aws4.resourceIcon;resIcon=mxgraph.aws4.rds;" parent="PgYOdquXXjcIgJMpl6EB-59" vertex="1">
          <mxGeometry x="60" y="45.5" width="39" height="39" as="geometry" />
        </mxCell>
        <mxCell id="PgYOdquXXjcIgJMpl6EB-61" value="App subnet" style="points=[[0,0],[0.25,0],[0.5,0],[0.75,0],[1,0],[1,0.25],[1,0.5],[1,0.75],[1,1],[0.75,1],[0.5,1],[0.25,1],[0,1],[0,0.75],[0,0.5],[0,0.25]];outlineConnect=0;gradientColor=none;html=1;whiteSpace=wrap;fontSize=12;fontStyle=0;container=0;pointerEvents=0;collapsible=0;recursiveResize=0;shape=mxgraph.aws4.group;grIcon=mxgraph.aws4.group_security_group;grStroke=0;strokeColor=#00A4A6;fillColor=#E6F6F7;verticalAlign=top;align=left;spacingLeft=30;fontColor=#147EBA;dashed=0;" parent="1" vertex="1">
          <mxGeometry x="-314.75" y="516" width="153.75" height="140" as="geometry" />
        </mxCell>
        <mxCell id="PgYOdquXXjcIgJMpl6EB-62" value="App subnet" style="points=[[0,0],[0.25,0],[0.5,0],[0.75,0],[1,0],[1,0.25],[1,0.5],[1,0.75],[1,1],[0.75,1],[0.5,1],[0.25,1],[0,1],[0,0.75],[0,0.5],[0,0.25]];outlineConnect=0;gradientColor=none;html=1;whiteSpace=wrap;fontSize=12;fontStyle=0;container=1;pointerEvents=0;collapsible=0;recursiveResize=0;shape=mxgraph.aws4.group;grIcon=mxgraph.aws4.group_security_group;grStroke=0;strokeColor=#00A4A6;fillColor=#E6F6F7;verticalAlign=top;align=left;spacingLeft=30;fontColor=#147EBA;dashed=0;" parent="1" vertex="1">
          <mxGeometry x="159" y="516" width="160" height="140" as="geometry" />
        </mxCell>
        <mxCell id="PgYOdquXXjcIgJMpl6EB-63" value="ALB" style="sketch=0;outlineConnect=0;fontColor=#232F3E;gradientColor=none;fillColor=#8C4FFF;strokeColor=none;dashed=0;verticalLabelPosition=bottom;verticalAlign=top;align=center;html=1;fontSize=12;fontStyle=0;aspect=fixed;pointerEvents=1;shape=mxgraph.aws4.application_load_balancer;" parent="1" vertex="1">
          <mxGeometry x="-17.25" y="325.5" width="40" height="40" as="geometry" />
        </mxCell>
        <mxCell id="PgYOdquXXjcIgJMpl6EB-64" value="" style="edgeStyle=orthogonalEdgeStyle;html=1;endArrow=none;elbow=vertical;startArrow=block;startFill=1;strokeColor=#545B64;rounded=0;exitX=1;exitY=0.25;exitDx=0;exitDy=0;" parent="1" source="PgYOdquXXjcIgJMpl6EB-73" target="PgYOdquXXjcIgJMpl6EB-63" edge="1">
          <mxGeometry width="100" relative="1" as="geometry">
            <mxPoint x="-151" y="424" as="sourcePoint" />
            <mxPoint x="-87" y="346" as="targetPoint" />
            <Array as="points">
              <mxPoint x="-131" y="423" />
              <mxPoint x="-131" y="346" />
            </Array>
          </mxGeometry>
        </mxCell>
        <mxCell id="PgYOdquXXjcIgJMpl6EB-65" value="" style="edgeStyle=orthogonalEdgeStyle;html=1;endArrow=block;elbow=vertical;startArrow=none;endFill=1;strokeColor=#545B64;rounded=0;exitX=0.5;exitY=1;exitDx=0;exitDy=0;exitPerimeter=0;" parent="1" source="PgYOdquXXjcIgJMpl6EB-71" target="PgYOdquXXjcIgJMpl6EB-75" edge="1">
          <mxGeometry width="100" relative="1" as="geometry">
            <mxPoint x="-242" y="442.5" as="sourcePoint" />
            <mxPoint x="4" y="491.5004545351244" as="targetPoint" />
            <Array as="points">
              <mxPoint x="-231" y="486" />
            </Array>
          </mxGeometry>
        </mxCell>
        <mxCell id="PgYOdquXXjcIgJMpl6EB-66" value="" style="edgeStyle=orthogonalEdgeStyle;html=1;endArrow=none;elbow=vertical;startArrow=block;startFill=1;strokeColor=#545B64;rounded=0;exitX=0.5;exitY=0;exitDx=0;exitDy=0;exitPerimeter=0;" parent="1" source="PgYOdquXXjcIgJMpl6EB-56" edge="1">
          <mxGeometry width="100" relative="1" as="geometry">
            <mxPoint x="-121" y="666" as="sourcePoint" />
            <mxPoint x="-242" y="600" as="targetPoint" />
          </mxGeometry>
        </mxCell>
        <mxCell id="PgYOdquXXjcIgJMpl6EB-67" value="" style="edgeStyle=orthogonalEdgeStyle;html=1;endArrow=none;elbow=vertical;startArrow=block;startFill=1;strokeColor=#545B64;rounded=0;exitX=0.5;exitY=0;exitDx=0;exitDy=0;exitPerimeter=0;" parent="1" source="PgYOdquXXjcIgJMpl6EB-56" edge="1">
          <mxGeometry width="100" relative="1" as="geometry">
            <mxPoint x="-81" y="696" as="sourcePoint" />
            <mxPoint x="238" y="600" as="targetPoint" />
            <Array as="points">
              <mxPoint x="-241" y="636" />
              <mxPoint x="238" y="636" />
            </Array>
          </mxGeometry>
        </mxCell>
        <mxCell id="PgYOdquXXjcIgJMpl6EB-68" value="NAT Gateway" style="sketch=0;outlineConnect=0;fontColor=#232F3E;gradientColor=none;fillColor=#8C4FFF;strokeColor=none;dashed=0;verticalLabelPosition=bottom;verticalAlign=top;align=center;html=1;fontSize=12;fontStyle=0;aspect=fixed;pointerEvents=1;shape=mxgraph.aws4.nat_gateway;" parent="1" vertex="1">
          <mxGeometry x="219" y="256" width="40" height="40" as="geometry" />
        </mxCell>
        <mxCell id="PgYOdquXXjcIgJMpl6EB-69" value="" style="edgeStyle=orthogonalEdgeStyle;html=1;endArrow=block;elbow=vertical;startArrow=none;endFill=1;strokeColor=#545B64;rounded=0;" parent="1" source="PgYOdquXXjcIgJMpl6EB-63" target="PgYOdquXXjcIgJMpl6EB-74" edge="1">
          <mxGeometry width="100" relative="1" as="geometry">
            <mxPoint x="-41.75" y="346" as="sourcePoint" />
            <mxPoint x="222.5" y="425" as="targetPoint" />
            <Array as="points">
              <mxPoint x="129" y="346" />
              <mxPoint x="129" y="425" />
            </Array>
          </mxGeometry>
        </mxCell>
        <mxCell id="PgYOdquXXjcIgJMpl6EB-70" value="" style="outlineConnect=0;dashed=0;verticalLabelPosition=bottom;verticalAlign=top;align=center;html=1;shape=mxgraph.aws3.ec2_compute_container;fillColor=#F58534;gradientColor=none;" parent="1" vertex="1">
          <mxGeometry x="209" y="436" width="60" height="34.5" as="geometry" />
        </mxCell>
        <mxCell id="PgYOdquXXjcIgJMpl6EB-71" value="" style="outlineConnect=0;dashed=0;verticalLabelPosition=bottom;verticalAlign=top;align=center;html=1;shape=mxgraph.aws3.ec2_compute_container;fillColor=#F58534;gradientColor=none;" parent="1" vertex="1">
          <mxGeometry x="-261" y="436" width="60" height="34.5" as="geometry" />
        </mxCell>
        <mxCell id="PgYOdquXXjcIgJMpl6EB-72" value="Auto Scaling group" style="points=[[0,0],[0.25,0],[0.5,0],[0.75,0],[1,0],[1,0.25],[1,0.5],[1,0.75],[1,1],[0.75,1],[0.5,1],[0.25,1],[0,1],[0,0.75],[0,0.5],[0,0.25]];outlineConnect=0;gradientColor=none;html=1;whiteSpace=wrap;fontSize=12;fontStyle=0;container=1;pointerEvents=0;collapsible=0;recursiveResize=0;shape=mxgraph.aws4.groupCenter;grIcon=mxgraph.aws4.group_auto_scaling_group;grStroke=1;strokeColor=#D86613;fillColor=none;verticalAlign=top;align=center;fontColor=#D86613;dashed=1;spacingTop=25;" parent="1" vertex="1">
          <mxGeometry x="-301" y="388.5" width="600" height="117.5" as="geometry" />
        </mxCell>
        <mxCell id="PgYOdquXXjcIgJMpl6EB-73" value="EC2 instance contents" style="points=[[0,0],[0.25,0],[0.5,0],[0.75,0],[1,0],[1,0.25],[1,0.5],[1,0.75],[1,1],[0.75,1],[0.5,1],[0.25,1],[0,1],[0,0.75],[0,0.5],[0,0.25]];outlineConnect=0;gradientColor=none;html=1;whiteSpace=wrap;fontSize=12;fontStyle=0;container=1;pointerEvents=0;collapsible=0;recursiveResize=0;shape=mxgraph.aws4.group;grIcon=mxgraph.aws4.group_ec2_instance_contents;strokeColor=#D86613;fillColor=none;verticalAlign=top;align=left;spacingLeft=30;fontColor=#D86613;dashed=0;" parent="PgYOdquXXjcIgJMpl6EB-72" vertex="1">
          <mxGeometry x="15.25" y="8.75" width="108.75" height="101.25" as="geometry" />
        </mxCell>
        <mxCell id="PgYOdquXXjcIgJMpl6EB-74" value="EC2 instance contents" style="points=[[0,0],[0.25,0],[0.5,0],[0.75,0],[1,0],[1,0.25],[1,0.5],[1,0.75],[1,1],[0.75,1],[0.5,1],[0.25,1],[0,1],[0,0.75],[0,0.5],[0,0.25]];outlineConnect=0;gradientColor=none;html=1;whiteSpace=wrap;fontSize=12;fontStyle=0;container=1;pointerEvents=0;collapsible=0;recursiveResize=0;shape=mxgraph.aws4.group;grIcon=mxgraph.aws4.group_ec2_instance_contents;strokeColor=#D86613;fillColor=none;verticalAlign=top;align=left;spacingLeft=30;fontColor=#D86613;dashed=0;" parent="PgYOdquXXjcIgJMpl6EB-72" vertex="1">
          <mxGeometry x="480" y="8.75" width="108.75" height="101.25" as="geometry" />
        </mxCell>
        <mxCell id="PgYOdquXXjcIgJMpl6EB-75" value="ALB" style="sketch=0;outlineConnect=0;fontColor=#232F3E;gradientColor=none;fillColor=#8C4FFF;strokeColor=none;dashed=0;verticalLabelPosition=bottom;verticalAlign=top;align=center;html=1;fontSize=12;fontStyle=0;aspect=fixed;pointerEvents=1;shape=mxgraph.aws4.application_load_balancer;" parent="PgYOdquXXjcIgJMpl6EB-72" vertex="1">
          <mxGeometry x="280" y="77.5" width="40" height="40" as="geometry" />
        </mxCell>
        <mxCell id="PgYOdquXXjcIgJMpl6EB-76" value="" style="edgeStyle=orthogonalEdgeStyle;html=1;endArrow=none;elbow=vertical;startArrow=block;startFill=1;strokeColor=#545B64;rounded=0;entryX=0.5;entryY=1;entryDx=0;entryDy=0;entryPerimeter=0;" parent="1" source="PgYOdquXXjcIgJMpl6EB-75" target="PgYOdquXXjcIgJMpl6EB-70" edge="1">
          <mxGeometry width="100" relative="1" as="geometry">
            <mxPoint x="0.25" y="536.0004545351244" as="sourcePoint" />
            <mxPoint x="237.75" y="488.5" as="targetPoint" />
            <Array as="points">
              <mxPoint y="486" />
              <mxPoint x="238" y="486" />
            </Array>
          </mxGeometry>
        </mxCell>
        <mxCell id="PgYOdquXXjcIgJMpl6EB-77" value="" style="edgeStyle=orthogonalEdgeStyle;html=1;endArrow=none;elbow=vertical;startArrow=block;startFill=1;strokeColor=#545B64;rounded=0;exitX=1;exitY=0.25;exitDx=0;exitDy=0;" parent="1" source="PgYOdquXXjcIgJMpl6EB-87" target="PgYOdquXXjcIgJMpl6EB-75" edge="1">
          <mxGeometry width="100" relative="1" as="geometry">
            <mxPoint x="-223" y="573.5" as="sourcePoint" />
            <mxPoint x="-17" y="496" as="targetPoint" />
            <Array as="points">
              <mxPoint x="-131" y="573" />
              <mxPoint x="-131" y="496" />
            </Array>
          </mxGeometry>
        </mxCell>
        <mxCell id="PgYOdquXXjcIgJMpl6EB-78" value="" style="edgeStyle=orthogonalEdgeStyle;html=1;endArrow=block;elbow=vertical;startArrow=none;endFill=1;strokeColor=#545B64;rounded=0;" parent="1" source="PgYOdquXXjcIgJMpl6EB-75" target="PgYOdquXXjcIgJMpl6EB-88" edge="1">
          <mxGeometry width="100" relative="1" as="geometry">
            <mxPoint x="23" y="496" as="sourcePoint" />
            <mxPoint x="222.5" y="575" as="targetPoint" />
            <Array as="points">
              <mxPoint x="129" y="496" />
              <mxPoint x="129" y="575" />
            </Array>
          </mxGeometry>
        </mxCell>
        <mxCell id="PgYOdquXXjcIgJMpl6EB-79" value="" style="outlineConnect=0;dashed=0;verticalLabelPosition=bottom;verticalAlign=top;align=center;html=1;shape=mxgraph.aws3.ec2_compute_container;fillColor=#F58534;gradientColor=none;" parent="1" vertex="1">
          <mxGeometry x="209" y="586" width="60" height="34.5" as="geometry" />
        </mxCell>
        <mxCell id="PgYOdquXXjcIgJMpl6EB-80" value="" style="outlineConnect=0;dashed=0;verticalLabelPosition=bottom;verticalAlign=top;align=center;html=1;shape=mxgraph.aws3.ec2_compute_container;fillColor=#F58534;gradientColor=none;" parent="1" vertex="1">
          <mxGeometry x="-261" y="586" width="60" height="34.5" as="geometry" />
        </mxCell>
        <mxCell id="PgYOdquXXjcIgJMpl6EB-81" value="" style="edgeStyle=orthogonalEdgeStyle;html=1;endArrow=none;elbow=vertical;startArrow=block;startFill=1;strokeColor=#545B64;rounded=0;exitX=0;exitY=0.25;exitDx=0;exitDy=0;entryX=1;entryY=0.5;entryDx=0;entryDy=0;entryPerimeter=0;" parent="1" source="PgYOdquXXjcIgJMpl6EB-73" target="PgYOdquXXjcIgJMpl6EB-52" edge="1">
          <mxGeometry width="100" relative="1" as="geometry">
            <mxPoint x="-641" y="423.5" as="sourcePoint" />
            <mxPoint x="-435" y="346" as="targetPoint" />
            <Array as="points">
              <mxPoint x="-442" y="423" />
              <mxPoint x="-442" y="515" />
            </Array>
          </mxGeometry>
        </mxCell>
        <mxCell id="PgYOdquXXjcIgJMpl6EB-82" value="" style="edgeStyle=orthogonalEdgeStyle;html=1;endArrow=none;elbow=vertical;startArrow=block;startFill=1;strokeColor=#545B64;rounded=0;exitX=0.25;exitY=1;exitDx=0;exitDy=0;exitPerimeter=0;entryX=0.5;entryY=0;entryDx=0;entryDy=0;entryPerimeter=0;" parent="1" source="PgYOdquXXjcIgJMpl6EB-51" target="PgYOdquXXjcIgJMpl6EB-41" edge="1">
          <mxGeometry width="100" relative="1" as="geometry">
            <mxPoint x="-620" y="36" as="sourcePoint" />
            <mxPoint x="-725" y="336" as="targetPoint" />
            <Array as="points">
              <mxPoint x="-761" y="241" />
              <mxPoint x="-790" y="241" />
            </Array>
          </mxGeometry>
        </mxCell>
        <mxCell id="PgYOdquXXjcIgJMpl6EB-84" value="" style="edgeStyle=orthogonalEdgeStyle;html=1;endArrow=none;elbow=vertical;startArrow=block;startFill=1;strokeColor=#545B64;rounded=0;exitX=0.25;exitY=1;exitDx=0;exitDy=0;entryX=1;entryY=0.5;entryDx=0;entryDy=0;entryPerimeter=0;" parent="1" source="trRVwAinWVEBzBO7vnqB-22" target="PgYOdquXXjcIgJMpl6EB-42" edge="1">
          <mxGeometry width="100" relative="1" as="geometry">
            <mxPoint x="-675" y="336" as="sourcePoint" />
            <mxPoint x="-745" y="454" as="targetPoint" />
            <Array as="points">
              <mxPoint x="-578" y="301" />
              <mxPoint x="-629" y="301" />
              <mxPoint x="-629" y="398" />
            </Array>
          </mxGeometry>
        </mxCell>
        <mxCell id="PgYOdquXXjcIgJMpl6EB-85" value="" style="edgeStyle=orthogonalEdgeStyle;html=1;endArrow=none;elbow=vertical;startArrow=block;startFill=1;strokeColor=#545B64;rounded=0;exitX=0;exitY=0.25;exitDx=0;exitDy=0;" parent="1" source="PgYOdquXXjcIgJMpl6EB-87" target="PgYOdquXXjcIgJMpl6EB-52" edge="1">
          <mxGeometry width="100" relative="1" as="geometry">
            <mxPoint x="-285" y="557.5" as="sourcePoint" />
            <mxPoint x="-441" y="464.5" as="targetPoint" />
            <Array as="points">
              <mxPoint x="-442" y="573" />
              <mxPoint x="-442" y="515" />
            </Array>
          </mxGeometry>
        </mxCell>
        <mxCell id="PgYOdquXXjcIgJMpl6EB-86" value="Auto Scaling group" style="points=[[0,0],[0.25,0],[0.5,0],[0.75,0],[1,0],[1,0.25],[1,0.5],[1,0.75],[1,1],[0.75,1],[0.5,1],[0.25,1],[0,1],[0,0.75],[0,0.5],[0,0.25]];outlineConnect=0;gradientColor=none;html=1;whiteSpace=wrap;fontSize=12;fontStyle=0;container=1;pointerEvents=0;collapsible=0;recursiveResize=0;shape=mxgraph.aws4.groupCenter;grIcon=mxgraph.aws4.group_auto_scaling_group;grStroke=1;strokeColor=#D86613;fillColor=none;verticalAlign=top;align=center;fontColor=#D86613;dashed=1;spacingTop=25;" parent="1" vertex="1">
          <mxGeometry x="-301" y="538.5" width="600" height="117.5" as="geometry" />
        </mxCell>
        <mxCell id="PgYOdquXXjcIgJMpl6EB-87" value="EC2 instance contents" style="points=[[0,0],[0.25,0],[0.5,0],[0.75,0],[1,0],[1,0.25],[1,0.5],[1,0.75],[1,1],[0.75,1],[0.5,1],[0.25,1],[0,1],[0,0.75],[0,0.5],[0,0.25]];outlineConnect=0;gradientColor=none;html=1;whiteSpace=wrap;fontSize=12;fontStyle=0;container=1;pointerEvents=0;collapsible=0;recursiveResize=0;shape=mxgraph.aws4.group;grIcon=mxgraph.aws4.group_ec2_instance_contents;strokeColor=#D86613;fillColor=none;verticalAlign=top;align=left;spacingLeft=30;fontColor=#D86613;dashed=0;" parent="PgYOdquXXjcIgJMpl6EB-86" vertex="1">
          <mxGeometry x="15.25" y="8.75" width="108.75" height="101.25" as="geometry" />
        </mxCell>
        <mxCell id="PgYOdquXXjcIgJMpl6EB-88" value="EC2 instance contents" style="points=[[0,0],[0.25,0],[0.5,0],[0.75,0],[1,0],[1,0.25],[1,0.5],[1,0.75],[1,1],[0.75,1],[0.5,1],[0.25,1],[0,1],[0,0.75],[0,0.5],[0,0.25]];outlineConnect=0;gradientColor=none;html=1;whiteSpace=wrap;fontSize=12;fontStyle=0;container=1;pointerEvents=0;collapsible=0;recursiveResize=0;shape=mxgraph.aws4.group;grIcon=mxgraph.aws4.group_ec2_instance_contents;strokeColor=#D86613;fillColor=none;verticalAlign=top;align=left;spacingLeft=30;fontColor=#D86613;dashed=0;" parent="PgYOdquXXjcIgJMpl6EB-86" vertex="1">
          <mxGeometry x="480" y="8.75" width="108.75" height="101.25" as="geometry" />
        </mxCell>
        <mxCell id="PgYOdquXXjcIgJMpl6EB-89" value="CloudFront" style="sketch=0;points=[[0,0,0],[0.25,0,0],[0.5,0,0],[0.75,0,0],[1,0,0],[0,1,0],[0.25,1,0],[0.5,1,0],[0.75,1,0],[1,1,0],[0,0.25,0],[0,0.5,0],[0,0.75,0],[1,0.25,0],[1,0.5,0],[1,0.75,0]];outlineConnect=0;fontColor=#232F3E;fillColor=#8C4FFF;strokeColor=#ffffff;dashed=0;verticalLabelPosition=bottom;verticalAlign=top;align=center;html=1;fontSize=12;fontStyle=0;aspect=fixed;shape=mxgraph.aws4.resourceIcon;resIcon=mxgraph.aws4.cloudfront;" parent="1" vertex="1">
          <mxGeometry x="-20" y="-34" width="49" height="49" as="geometry" />
        </mxCell>
        <mxCell id="PgYOdquXXjcIgJMpl6EB-90" value="Certificate Manager" style="sketch=0;points=[[0,0,0],[0.25,0,0],[0.5,0,0],[0.75,0,0],[1,0,0],[0,1,0],[0.25,1,0],[0.5,1,0],[0.75,1,0],[1,1,0],[0,0.25,0],[0,0.5,0],[0,0.75,0],[1,0.25,0],[1,0.5,0],[1,0.75,0]];outlineConnect=0;fontColor=#232F3E;fillColor=#DD344C;strokeColor=#ffffff;dashed=0;verticalLabelPosition=bottom;verticalAlign=top;align=center;html=1;fontSize=12;fontStyle=0;aspect=fixed;shape=mxgraph.aws4.resourceIcon;resIcon=mxgraph.aws4.certificate_manager_3;" parent="1" vertex="1">
          <mxGeometry x="-391" y="-114" width="60" height="60" as="geometry" />
        </mxCell>
        <mxCell id="PgYOdquXXjcIgJMpl6EB-91" value="IAM" style="sketch=0;outlineConnect=0;fontColor=#232F3E;gradientColor=none;fillColor=#DD344C;strokeColor=none;dashed=0;verticalLabelPosition=bottom;verticalAlign=top;align=center;html=1;fontSize=12;fontStyle=0;aspect=fixed;pointerEvents=1;shape=mxgraph.aws4.identity_access_management_iam_roles_anywhere;" parent="1" vertex="1">
          <mxGeometry x="-541" y="-114" width="60" height="60" as="geometry" />
        </mxCell>
        <mxCell id="PgYOdquXXjcIgJMpl6EB-92" value="" style="sketch=0;outlineConnect=0;fontColor=#232F3E;gradientColor=none;fillColor=#232F3D;strokeColor=none;dashed=0;verticalLabelPosition=bottom;verticalAlign=top;align=center;html=1;fontSize=12;fontStyle=0;aspect=fixed;pointerEvents=1;shape=mxgraph.aws4.user;" parent="1" vertex="1">
          <mxGeometry x="-1231" y="862" width="50" height="50" as="geometry" />
        </mxCell>
        <mxCell id="PgYOdquXXjcIgJMpl6EB-94" value="Lambda" style="sketch=0;points=[[0,0,0],[0.25,0,0],[0.5,0,0],[0.75,0,0],[1,0,0],[0,1,0],[0.25,1,0],[0.5,1,0],[0.75,1,0],[1,1,0],[0,0.25,0],[0,0.5,0],[0,0.75,0],[1,0.25,0],[1,0.5,0],[1,0.75,0]];outlineConnect=0;fontColor=#232F3E;fillColor=#ED7100;strokeColor=#ffffff;dashed=0;verticalLabelPosition=bottom;verticalAlign=top;align=center;html=1;fontSize=12;fontStyle=0;aspect=fixed;shape=mxgraph.aws4.resourceIcon;resIcon=mxgraph.aws4.lambda;" parent="1" vertex="1">
          <mxGeometry x="-266.5" y="916" width="50" height="50" as="geometry" />
        </mxCell>
        <mxCell id="PgYOdquXXjcIgJMpl6EB-95" value="" style="endArrow=classic;html=1;rounded=0;exitX=0.5;exitY=1;exitDx=0;exitDy=0;exitPerimeter=0;" parent="1" source="PgYOdquXXjcIgJMpl6EB-56" target="PgYOdquXXjcIgJMpl6EB-94" edge="1">
          <mxGeometry width="50" height="50" relative="1" as="geometry">
            <mxPoint x="-111" y="956" as="sourcePoint" />
            <mxPoint x="-61" y="906" as="targetPoint" />
          </mxGeometry>
        </mxCell>
        <mxCell id="PgYOdquXXjcIgJMpl6EB-96" value="EventBridge" style="sketch=0;points=[[0,0,0],[0.25,0,0],[0.5,0,0],[0.75,0,0],[1,0,0],[0,1,0],[0.25,1,0],[0.5,1,0],[0.75,1,0],[1,1,0],[0,0.25,0],[0,0.5,0],[0,0.75,0],[1,0.25,0],[1,0.5,0],[1,0.75,0]];outlineConnect=0;fontColor=#232F3E;fillColor=#E7157B;strokeColor=#ffffff;dashed=0;verticalLabelPosition=bottom;verticalAlign=top;align=center;html=1;fontSize=12;fontStyle=0;aspect=fixed;shape=mxgraph.aws4.resourceIcon;resIcon=mxgraph.aws4.eventbridge;" parent="1" vertex="1">
          <mxGeometry x="-166" y="912" width="58" height="58" as="geometry" />
        </mxCell>
        <mxCell id="PgYOdquXXjcIgJMpl6EB-97" value="" style="endArrow=classic;html=1;rounded=0;exitX=0;exitY=0.5;exitDx=0;exitDy=0;exitPerimeter=0;" parent="1" source="PgYOdquXXjcIgJMpl6EB-96" target="PgYOdquXXjcIgJMpl6EB-94" edge="1">
          <mxGeometry width="50" height="50" relative="1" as="geometry">
            <mxPoint x="-187" y="947" as="sourcePoint" />
            <mxPoint x="-216" y="941" as="targetPoint" />
          </mxGeometry>
        </mxCell>
        <mxCell id="PgYOdquXXjcIgJMpl6EB-98" value="" style="edgeStyle=orthogonalEdgeStyle;html=1;endArrow=block;elbow=vertical;startArrow=none;endFill=1;strokeColor=#545B64;rounded=0;entryX=1;entryY=0.5;entryDx=0;entryDy=0;entryPerimeter=0;exitX=0;exitY=0.5;exitDx=0;exitDy=0;exitPerimeter=0;" parent="1" source="PgYOdquXXjcIgJMpl6EB-94" target="PgYOdquXXjcIgJMpl6EB-34" edge="1">
          <mxGeometry width="100" relative="1" as="geometry">
            <mxPoint x="489" y="494.5" as="sourcePoint" />
            <mxPoint x="475" y="166" as="targetPoint" />
            <Array as="points">
              <mxPoint x="-407" y="941" />
              <mxPoint x="-407" y="941" />
            </Array>
          </mxGeometry>
        </mxCell>
        <mxCell id="PgYOdquXXjcIgJMpl6EB-99" value="Github" style="shape=image;html=1;verticalAlign=top;verticalLabelPosition=bottom;labelBackgroundColor=#ffffff;imageAspect=0;aspect=fixed;image=https://cdn4.iconfinder.com/data/icons/ionicons/512/icon-social-github-128.png" parent="1" vertex="1">
          <mxGeometry x="-1031" y="366" width="66" height="66" as="geometry" />
        </mxCell>
        <mxCell id="PgYOdquXXjcIgJMpl6EB-100" value="" style="edgeStyle=orthogonalEdgeStyle;html=1;endArrow=block;elbow=vertical;startArrow=none;endFill=1;strokeColor=#545B64;rounded=0;exitX=0.98;exitY=0.51;exitDx=0;exitDy=0;exitPerimeter=0;" parent="1" source="PgYOdquXXjcIgJMpl6EB-25" target="PgYOdquXXjcIgJMpl6EB-99" edge="1">
          <mxGeometry width="100" relative="1" as="geometry">
            <mxPoint x="-1045" y="409" as="sourcePoint" />
            <mxPoint x="-1121" y="401" as="targetPoint" />
          </mxGeometry>
        </mxCell>
        <mxCell id="PgYOdquXXjcIgJMpl6EB-101" value="" style="endArrow=none;html=1;rounded=0;exitX=1;exitY=0.5;exitDx=0;exitDy=0;exitPerimeter=0;entryX=0;entryY=0.5;entryDx=0;entryDy=0;entryPerimeter=0;" parent="1" source="PgYOdquXXjcIgJMpl6EB-56" target="PgYOdquXXjcIgJMpl6EB-60" edge="1">
          <mxGeometry width="50" height="50" relative="1" as="geometry">
            <mxPoint x="-31" y="766" as="sourcePoint" />
            <mxPoint x="19" y="716" as="targetPoint" />
          </mxGeometry>
        </mxCell>
        <mxCell id="PgYOdquXXjcIgJMpl6EB-44" value="" style="edgeStyle=orthogonalEdgeStyle;html=1;endArrow=block;elbow=vertical;startArrow=none;endFill=1;strokeColor=#545B64;rounded=0;entryX=0;entryY=0.5;entryDx=0;entryDy=0;entryPerimeter=0;" parent="1" source="PgYOdquXXjcIgJMpl6EB-99" target="PgYOdquXXjcIgJMpl6EB-41" edge="1">
          <mxGeometry width="100" relative="1" as="geometry">
            <mxPoint x="-910" y="398" as="sourcePoint" />
            <mxPoint x="-860" y="398" as="targetPoint" />
          </mxGeometry>
        </mxCell>
        <mxCell id="trRVwAinWVEBzBO7vnqB-2" value="" style="edgeStyle=orthogonalEdgeStyle;html=1;endArrow=none;elbow=vertical;startArrow=block;startFill=1;strokeColor=#545B64;rounded=0;entryX=0.75;entryY=1;entryDx=0;entryDy=0;entryPerimeter=0;exitX=0.5;exitY=0;exitDx=0;exitDy=0;exitPerimeter=0;" parent="1" source="PgYOdquXXjcIgJMpl6EB-42" target="PgYOdquXXjcIgJMpl6EB-51" edge="1">
          <mxGeometry width="100" relative="1" as="geometry">
            <mxPoint x="-676" y="375" as="sourcePoint" />
            <mxPoint x="-560" y="321" as="targetPoint" />
            <Array as="points">
              <mxPoint x="-676" y="243" />
              <mxPoint x="-732" y="243" />
            </Array>
          </mxGeometry>
        </mxCell>
        <mxCell id="trRVwAinWVEBzBO7vnqB-3" value="" style="points=[[0.35,0,0],[0.98,0.51,0],[1,0.71,0],[0.67,1,0],[0,0.795,0],[0,0.65,0]];verticalLabelPosition=bottom;sketch=0;html=1;verticalAlign=top;aspect=fixed;align=center;pointerEvents=1;shape=mxgraph.cisco19.user;fillColor=#005073;strokeColor=none;" parent="1" vertex="1">
          <mxGeometry x="-1355" y="595" width="50" height="50" as="geometry" />
        </mxCell>
        <mxCell id="trRVwAinWVEBzBO7vnqB-4" value="Github" style="shape=image;html=1;verticalAlign=top;verticalLabelPosition=bottom;labelBackgroundColor=#ffffff;imageAspect=0;aspect=fixed;image=https://cdn4.iconfinder.com/data/icons/ionicons/512/icon-social-github-128.png" parent="1" vertex="1">
          <mxGeometry x="-1031" y="587" width="66" height="66" as="geometry" />
        </mxCell>
        <mxCell id="trRVwAinWVEBzBO7vnqB-5" value="" style="edgeStyle=orthogonalEdgeStyle;html=1;endArrow=block;elbow=vertical;startArrow=none;endFill=1;strokeColor=#545B64;rounded=0;entryX=0;entryY=0.5;entryDx=0;entryDy=0;" parent="1" source="9f2ioa7k5EROoD8T-9ti-1" target="trRVwAinWVEBzBO7vnqB-4" edge="1">
          <mxGeometry width="100" relative="1" as="geometry">
            <mxPoint x="-1148" y="620" as="sourcePoint" />
            <mxPoint x="-1077" y="623" as="targetPoint" />
          </mxGeometry>
        </mxCell>
        <mxCell id="trRVwAinWVEBzBO7vnqB-6" value="CodeBuild" style="sketch=0;points=[[0,0,0],[0.25,0,0],[0.5,0,0],[0.75,0,0],[1,0,0],[0,1,0],[0.25,1,0],[0.5,1,0],[0.75,1,0],[1,1,0],[0,0.25,0],[0,0.5,0],[0,0.75,0],[1,0.25,0],[1,0.5,0],[1,0.75,0]];outlineConnect=0;fontColor=#232F3E;fillColor=#C925D1;strokeColor=#ffffff;dashed=0;verticalLabelPosition=bottom;verticalAlign=top;align=center;html=1;fontSize=12;fontStyle=0;aspect=fixed;shape=mxgraph.aws4.resourceIcon;resIcon=mxgraph.aws4.codebuild;" parent="1" vertex="1">
          <mxGeometry x="-833" y="595" width="50" height="50" as="geometry" />
        </mxCell>
        <mxCell id="trRVwAinWVEBzBO7vnqB-7" value="" style="edgeStyle=orthogonalEdgeStyle;html=1;endArrow=block;elbow=vertical;startArrow=none;endFill=1;strokeColor=#545B64;rounded=0;exitX=1;exitY=0.5;exitDx=0;exitDy=0;entryX=0;entryY=0.5;entryDx=0;entryDy=0;entryPerimeter=0;" parent="1" source="trRVwAinWVEBzBO7vnqB-4" target="trRVwAinWVEBzBO7vnqB-6" edge="1">
          <mxGeometry width="100" relative="1" as="geometry">
            <mxPoint x="-917" y="672" as="sourcePoint" />
            <mxPoint x="-761" y="671" as="targetPoint" />
          </mxGeometry>
        </mxCell>
        <mxCell id="trRVwAinWVEBzBO7vnqB-13" value="" style="edgeStyle=orthogonalEdgeStyle;html=1;endArrow=block;elbow=vertical;startArrow=none;endFill=1;strokeColor=#545B64;rounded=0;exitX=0;exitY=0.5;exitDx=0;exitDy=0;exitPerimeter=0;" parent="1" source="PgYOdquXXjcIgJMpl6EB-47" target="PgYOdquXXjcIgJMpl6EB-92" edge="1">
          <mxGeometry width="100" relative="1" as="geometry">
            <mxPoint x="-988" y="816.5" as="sourcePoint" />
            <mxPoint x="-845" y="884" as="targetPoint" />
            <Array as="points">
              <mxPoint x="-974" y="941" />
              <mxPoint x="-974" y="890" />
            </Array>
          </mxGeometry>
        </mxCell>
        <mxCell id="trRVwAinWVEBzBO7vnqB-14" value="" style="group" parent="1" connectable="0" vertex="1">
          <mxGeometry x="-1058" y="540" width="299" height="154" as="geometry" />
        </mxCell>
        <mxCell id="trRVwAinWVEBzBO7vnqB-9" value="Iac CodePipeline&lt;div&gt;&lt;br&gt;&lt;/div&gt;" style="outlineConnect=0;gradientColor=none;html=1;whiteSpace=wrap;fontSize=12;fontStyle=0;strokeColor=#FF9900;fillColor=none;verticalAlign=top;align=center;fontColor=#FF9900;dashed=0;spacingTop=3;" parent="trRVwAinWVEBzBO7vnqB-14" vertex="1">
          <mxGeometry width="299" height="154" as="geometry" />
        </mxCell>
        <mxCell id="trRVwAinWVEBzBO7vnqB-10" value="" style="sketch=0;points=[[0,0,0],[0.25,0,0],[0.5,0,0],[0.75,0,0],[1,0,0],[0,1,0],[0.25,1,0],[0.5,1,0],[0.75,1,0],[1,1,0],[0,0.25,0],[0,0.5,0],[0,0.75,0],[1,0.25,0],[1,0.5,0],[1,0.75,0]];outlineConnect=0;fontColor=#232F3E;fillColor=#C925D1;strokeColor=#ffffff;dashed=0;verticalLabelPosition=bottom;verticalAlign=top;align=center;html=1;fontSize=12;fontStyle=0;aspect=fixed;shape=mxgraph.aws4.resourceIcon;resIcon=mxgraph.aws4.codepipeline;" parent="trRVwAinWVEBzBO7vnqB-14" vertex="1">
          <mxGeometry width="45.294117647058826" height="45.294117647058826" as="geometry" />
        </mxCell>
        <mxCell id="trRVwAinWVEBzBO7vnqB-17" value="" style="endArrow=classic;html=1;rounded=0;exitX=0;exitY=0.5;exitDx=0;exitDy=0;exitPerimeter=0;entryX=1;entryY=0.5;entryDx=0;entryDy=0;entryPerimeter=0;" parent="1" source="PgYOdquXXjcIgJMpl6EB-35" target="PgYOdquXXjcIgJMpl6EB-46" edge="1">
          <mxGeometry width="50" height="50" relative="1" as="geometry">
            <mxPoint x="-480" y="951" as="sourcePoint" />
            <mxPoint x="-526" y="951" as="targetPoint" />
          </mxGeometry>
        </mxCell>
        <mxCell id="trRVwAinWVEBzBO7vnqB-18" value="" style="endArrow=classic;html=1;rounded=0;exitX=0;exitY=0.5;exitDx=0;exitDy=0;exitPerimeter=0;entryX=1;entryY=0.5;entryDx=0;entryDy=0;entryPerimeter=0;" parent="1" source="PgYOdquXXjcIgJMpl6EB-46" target="PgYOdquXXjcIgJMpl6EB-45" edge="1">
          <mxGeometry width="50" height="50" relative="1" as="geometry">
            <mxPoint x="-690" y="881" as="sourcePoint" />
            <mxPoint x="-736" y="881" as="targetPoint" />
          </mxGeometry>
        </mxCell>
        <mxCell id="trRVwAinWVEBzBO7vnqB-19" value="" style="endArrow=classic;html=1;rounded=0;exitX=0;exitY=0.5;exitDx=0;exitDy=0;exitPerimeter=0;entryX=1;entryY=0.5;entryDx=0;entryDy=0;entryPerimeter=0;" parent="1" source="PgYOdquXXjcIgJMpl6EB-45" target="PgYOdquXXjcIgJMpl6EB-47" edge="1">
          <mxGeometry width="50" height="50" relative="1" as="geometry">
            <mxPoint x="-766" y="889" as="sourcePoint" />
            <mxPoint x="-814" y="889" as="targetPoint" />
          </mxGeometry>
        </mxCell>
        <mxCell id="trRVwAinWVEBzBO7vnqB-20" value="" style="edgeStyle=orthogonalEdgeStyle;html=1;endArrow=block;elbow=vertical;startArrow=none;endFill=1;strokeColor=#545B64;rounded=0;exitX=0;exitY=0.5;exitDx=0;exitDy=0;entryX=0.448;entryY=1.032;entryDx=0;entryDy=0;entryPerimeter=0;" parent="1" source="PgYOdquXXjcIgJMpl6EB-16" target="trRVwAinWVEBzBO7vnqB-3" edge="1">
          <mxGeometry width="100" relative="1" as="geometry">
            <mxPoint x="-869" y="829" as="sourcePoint" />
            <mxPoint x="-1175" y="778" as="targetPoint" />
            <Array as="points">
              <mxPoint x="-1333" y="737" />
            </Array>
          </mxGeometry>
        </mxCell>
        <mxCell id="PgYOdquXXjcIgJMpl6EB-41" value="CodeBuild" style="sketch=0;points=[[0,0,0],[0.25,0,0],[0.5,0,0],[0.75,0,0],[1,0,0],[0,1,0],[0.25,1,0],[0.5,1,0],[0.75,1,0],[1,1,0],[0,0.25,0],[0,0.5,0],[0,0.75,0],[1,0.25,0],[1,0.5,0],[1,0.75,0]];outlineConnect=0;fontColor=#232F3E;fillColor=#C925D1;strokeColor=#ffffff;dashed=0;verticalLabelPosition=bottom;verticalAlign=top;align=center;html=1;fontSize=12;fontStyle=0;aspect=fixed;shape=mxgraph.aws4.resourceIcon;resIcon=mxgraph.aws4.codebuild;" parent="1" vertex="1">
          <mxGeometry x="-815" y="373.5" width="50" height="50" as="geometry" />
        </mxCell>
        <mxCell id="PgYOdquXXjcIgJMpl6EB-42" value="CodeDeploy" style="sketch=0;points=[[0,0,0],[0.25,0,0],[0.5,0,0],[0.75,0,0],[1,0,0],[0,1,0],[0.25,1,0],[0.5,1,0],[0.75,1,0],[1,1,0],[0,0.25,0],[0,0.5,0],[0,0.75,0],[1,0.25,0],[1,0.5,0],[1,0.75,0]];outlineConnect=0;fontColor=#232F3E;fillColor=#C925D1;strokeColor=#ffffff;dashed=0;verticalLabelPosition=bottom;verticalAlign=top;align=center;html=1;fontSize=12;fontStyle=0;aspect=fixed;shape=mxgraph.aws4.resourceIcon;resIcon=mxgraph.aws4.codedeploy;" parent="1" vertex="1">
          <mxGeometry x="-701" y="373.5" width="50" height="50" as="geometry" />
        </mxCell>
        <mxCell id="PgYOdquXXjcIgJMpl6EB-43" value="" style="edgeStyle=orthogonalEdgeStyle;html=1;endArrow=block;elbow=vertical;startArrow=none;endFill=1;strokeColor=#545B64;rounded=0;exitX=1;exitY=0.5;exitDx=0;exitDy=0;exitPerimeter=0;entryX=0;entryY=0.5;entryDx=0;entryDy=0;entryPerimeter=0;" parent="1" source="PgYOdquXXjcIgJMpl6EB-41" target="PgYOdquXXjcIgJMpl6EB-42" edge="1">
          <mxGeometry width="100" relative="1" as="geometry">
            <mxPoint x="-722" y="466" as="sourcePoint" />
            <mxPoint x="-622" y="466" as="targetPoint" />
          </mxGeometry>
        </mxCell>
        <mxCell id="trRVwAinWVEBzBO7vnqB-21" value="CodeDeploy" style="sketch=0;points=[[0,0,0],[0.25,0,0],[0.5,0,0],[0.75,0,0],[1,0,0],[0,1,0],[0.25,1,0],[0.5,1,0],[0.75,1,0],[1,1,0],[0,0.25,0],[0,0.5,0],[0,0.75,0],[1,0.25,0],[1,0.5,0],[1,0.75,0]];outlineConnect=0;fontColor=#232F3E;fillColor=#C925D1;strokeColor=#ffffff;dashed=0;verticalLabelPosition=bottom;verticalAlign=top;align=center;html=1;fontSize=12;fontStyle=0;aspect=fixed;shape=mxgraph.aws4.resourceIcon;resIcon=mxgraph.aws4.codedeploy;" parent="1" vertex="1">
          <mxGeometry x="-556" y="373.5" width="50" height="50" as="geometry" />
        </mxCell>
        <mxCell id="trRVwAinWVEBzBO7vnqB-22" value="VPC - staging" style="points=[[0,0],[0.25,0],[0.5,0],[0.75,0],[1,0],[1,0.25],[1,0.5],[1,0.75],[1,1],[0.75,1],[0.5,1],[0.25,1],[0,1],[0,0.75],[0,0.5],[0,0.25]];outlineConnect=0;gradientColor=none;html=1;whiteSpace=wrap;fontSize=12;fontStyle=0;container=1;pointerEvents=0;collapsible=0;recursiveResize=0;shape=mxgraph.aws4.group;grIcon=mxgraph.aws4.group_vpc2;strokeColor=#8C4FFF;fillColor=none;verticalAlign=top;align=left;spacingLeft=30;fontColor=#AAB7B8;dashed=0;" parent="1" vertex="1">
          <mxGeometry x="-623" y="61" width="180" height="181" as="geometry" />
        </mxCell>
        <mxCell id="trRVwAinWVEBzBO7vnqB-23" value="" style="edgeStyle=orthogonalEdgeStyle;html=1;endArrow=none;elbow=vertical;startArrow=block;startFill=1;strokeColor=#545B64;rounded=0;exitX=0;exitY=0.5;exitDx=0;exitDy=0;exitPerimeter=0;" parent="1" source="trRVwAinWVEBzBO7vnqB-21" edge="1">
          <mxGeometry width="100" relative="1" as="geometry">
            <mxPoint x="-586" y="602" as="sourcePoint" />
            <mxPoint x="-651" y="399" as="targetPoint" />
            <Array as="points">
              <mxPoint x="-578" y="399" />
            </Array>
          </mxGeometry>
        </mxCell>
        <mxCell id="PgYOdquXXjcIgJMpl6EB-38" value="" style="sketch=0;points=[[0,0,0],[0.25,0,0],[0.5,0,0],[0.75,0,0],[1,0,0],[0,1,0],[0.25,1,0],[0.5,1,0],[0.75,1,0],[1,1,0],[0,0.25,0],[0,0.5,0],[0,0.75,0],[1,0.25,0],[1,0.5,0],[1,0.75,0]];outlineConnect=0;fontColor=#232F3E;fillColor=#C925D1;strokeColor=#ffffff;dashed=0;verticalLabelPosition=bottom;verticalAlign=top;align=center;html=1;fontSize=12;fontStyle=0;aspect=fixed;shape=mxgraph.aws4.resourceIcon;resIcon=mxgraph.aws4.codepipeline;" parent="1" vertex="1">
          <mxGeometry x="-883" y="276" width="50" height="50" as="geometry" />
        </mxCell>
        <mxCell id="trRVwAinWVEBzBO7vnqB-24" value="" style="edgeStyle=orthogonalEdgeStyle;html=1;endArrow=block;elbow=vertical;startArrow=none;endFill=1;strokeColor=#545B64;rounded=0;exitX=0.5;exitY=1;exitDx=0;exitDy=0;exitPerimeter=0;" parent="1" source="trRVwAinWVEBzBO7vnqB-21" target="PgYOdquXXjcIgJMpl6EB-52" edge="1">
          <mxGeometry width="100" relative="1" as="geometry">
            <mxPoint x="-663" y="547" as="sourcePoint" />
            <mxPoint x="-513" y="547" as="targetPoint" />
            <Array as="points">
              <mxPoint x="-531" y="468" />
              <mxPoint x="-531" y="468" />
            </Array>
          </mxGeometry>
        </mxCell>
        <mxCell id="9f2ioa7k5EROoD8T-9ti-1" value="" style="shape=image;verticalLabelPosition=bottom;labelBackgroundColor=default;verticalAlign=top;aspect=fixed;imageAspect=0;image=data:image/svg+xml,PHN2ZyB4bWxucz0iaHR0cDovL3d3dy53My5vcmcvMjAwMC9zdmciIHZpZXdCb3g9IjAgMCAzMiAzMiI+PGcgZmlsbD0iIzgxM2NmMyI+PHBhdGggZD0ibTEyLjA0MiA2Ljg1OCA4LjAyOSA0LjU5djkuMDE0bC04LjAyOS00LjU5NHoiLz48cGF0aCBkPSJtMjAuNSAyMC40MTUgNy45NTktNC41NzV2LTguOTUzbC03Ljk1OSA0LjU0MnoiLz48cGF0aCBkPSJtMy41NDEgMTEuMDEgOC4wMyA0LjU4OXYtOS4wMDlsLTguMDMtNC41OXoiLz48cGF0aCBkPSJtMTIuMDQyIDI1LjQxIDguMDI5IDQuNTl2LTkuMDQzbC04LjAyOS00LjU4OXoiLz48L2c+PC9zdmc+;" parent="1" vertex="1">
          <mxGeometry x="-1220" y="579.5" width="81" height="81" as="geometry" />
        </mxCell>
        <mxCell id="9f2ioa7k5EROoD8T-9ti-3" value="" style="edgeStyle=orthogonalEdgeStyle;html=1;endArrow=block;elbow=vertical;startArrow=none;endFill=1;strokeColor=#545B64;rounded=0;exitX=0.98;exitY=0.51;exitDx=0;exitDy=0;exitPerimeter=0;" parent="1" source="trRVwAinWVEBzBO7vnqB-3" target="9f2ioa7k5EROoD8T-9ti-1" edge="1">
          <mxGeometry width="100" relative="1" as="geometry">
            <mxPoint x="-1129" y="630" as="sourcePoint" />
            <mxPoint x="-1021" y="630" as="targetPoint" />
          </mxGeometry>
        </mxCell>
      </root>
    </mxGraphModel>
  </diagram>
  <diagram id="-36xA_Wow72nTvuKrVV7" name="3tier">
    <mxGraphModel dx="2501" dy="746" grid="1" gridSize="10" guides="1" tooltips="1" connect="1" arrows="1" fold="1" page="1" pageScale="1" pageWidth="827" pageHeight="1169" math="0" shadow="0">
      <root>
        <mxCell id="0" />
        <mxCell id="1" parent="0" />
        <mxCell id="5mBhdLcmA0R6iBajV5DQ-1" value="Availability Zone" style="fillColor=none;strokeColor=#147EBA;dashed=1;verticalAlign=top;fontStyle=0;fontColor=#147EBA;whiteSpace=wrap;html=1;" parent="1" vertex="1">
          <mxGeometry x="-371" y="146" width="290" height="720" as="geometry" />
        </mxCell>
        <mxCell id="5mBhdLcmA0R6iBajV5DQ-2" value="Availability Zone" style="fillColor=none;strokeColor=#147EBA;dashed=1;verticalAlign=top;fontStyle=0;fontColor=#147EBA;whiteSpace=wrap;html=1;container=0;" parent="1" vertex="1">
          <mxGeometry x="79" y="146" width="290" height="720" as="geometry" />
        </mxCell>
        <mxCell id="5mBhdLcmA0R6iBajV5DQ-3" value="VPC" style="points=[[0,0],[0.25,0],[0.5,0],[0.75,0],[1,0],[1,0.25],[1,0.5],[1,0.75],[1,1],[0.75,1],[0.5,1],[0.25,1],[0,1],[0,0.75],[0,0.5],[0,0.25]];outlineConnect=0;gradientColor=none;html=1;whiteSpace=wrap;fontSize=12;fontStyle=0;container=0;pointerEvents=0;collapsible=0;recursiveResize=0;shape=mxgraph.aws4.group;grIcon=mxgraph.aws4.group_vpc2;strokeColor=#8C4FFF;fillColor=none;verticalAlign=top;align=left;spacingLeft=30;fontColor=#AAB7B8;dashed=0;" parent="1" vertex="1">
          <mxGeometry x="-391" y="176" width="790" height="670" as="geometry" />
        </mxCell>
        <mxCell id="5mBhdLcmA0R6iBajV5DQ-4" value="Region" style="points=[[0,0],[0.25,0],[0.5,0],[0.75,0],[1,0],[1,0.25],[1,0.5],[1,0.75],[1,1],[0.75,1],[0.5,1],[0.25,1],[0,1],[0,0.75],[0,0.5],[0,0.25]];outlineConnect=0;gradientColor=none;html=1;whiteSpace=wrap;fontSize=12;fontStyle=0;container=0;pointerEvents=0;collapsible=0;recursiveResize=0;shape=mxgraph.aws4.group;grIcon=mxgraph.aws4.group_region;strokeColor=#00A4A6;fillColor=none;verticalAlign=top;align=left;spacingLeft=30;fontColor=#147EBA;dashed=1;" parent="1" vertex="1">
          <mxGeometry x="-411" y="116" width="830" height="780" as="geometry" />
        </mxCell>
        <mxCell id="5mBhdLcmA0R6iBajV5DQ-5" value="Public subnet" style="points=[[0,0],[0.25,0],[0.5,0],[0.75,0],[1,0],[1,0.25],[1,0.5],[1,0.75],[1,1],[0.75,1],[0.5,1],[0.25,1],[0,1],[0,0.75],[0,0.5],[0,0.25]];outlineConnect=0;gradientColor=none;html=1;whiteSpace=wrap;fontSize=12;fontStyle=0;container=0;pointerEvents=0;collapsible=0;recursiveResize=0;shape=mxgraph.aws4.group;grIcon=mxgraph.aws4.group_security_group;grStroke=0;strokeColor=#7AA116;fillColor=#F2F6E8;verticalAlign=top;align=left;spacingLeft=30;fontColor=#248814;dashed=0;" parent="1" vertex="1">
          <mxGeometry x="159" y="206" width="160" height="140" as="geometry" />
        </mxCell>
        <mxCell id="5mBhdLcmA0R6iBajV5DQ-6" value="" style="sketch=0;outlineConnect=0;fontColor=#232F3E;gradientColor=none;fillColor=#8C4FFF;strokeColor=none;dashed=0;verticalLabelPosition=bottom;verticalAlign=top;align=center;html=1;fontSize=12;fontStyle=0;aspect=fixed;pointerEvents=1;shape=mxgraph.aws4.internet_gateway;" parent="1" vertex="1">
          <mxGeometry x="-16" y="156" width="40" height="40" as="geometry" />
        </mxCell>
        <mxCell id="5mBhdLcmA0R6iBajV5DQ-7" value="" style="edgeStyle=orthogonalEdgeStyle;html=1;endArrow=block;elbow=vertical;startArrow=none;endFill=1;strokeColor=#545B64;rounded=0;" parent="1" source="I4OcP9nDQu-UEszP16mP-1" target="5mBhdLcmA0R6iBajV5DQ-6" edge="1">
          <mxGeometry width="100" relative="1" as="geometry">
            <mxPoint x="4" y="96" as="sourcePoint" />
            <mxPoint x="131.5" y="126" as="targetPoint" />
          </mxGeometry>
        </mxCell>
        <mxCell id="5mBhdLcmA0R6iBajV5DQ-8" value="" style="edgeStyle=orthogonalEdgeStyle;html=1;endArrow=block;elbow=vertical;startArrow=none;endFill=1;strokeColor=#545B64;rounded=0;" parent="1" source="5mBhdLcmA0R6iBajV5DQ-6" edge="1">
          <mxGeometry width="100" relative="1" as="geometry">
            <mxPoint x="1.5" y="246" as="sourcePoint" />
            <mxPoint x="4" y="326.0004545351244" as="targetPoint" />
          </mxGeometry>
        </mxCell>
        <mxCell id="5mBhdLcmA0R6iBajV5DQ-9" value="Public subnet" style="points=[[0,0],[0.25,0],[0.5,0],[0.75,0],[1,0],[1,0.25],[1,0.5],[1,0.75],[1,1],[0.75,1],[0.5,1],[0.25,1],[0,1],[0,0.75],[0,0.5],[0,0.25]];outlineConnect=0;gradientColor=none;html=1;whiteSpace=wrap;fontSize=12;fontStyle=0;container=1;pointerEvents=0;collapsible=0;recursiveResize=0;shape=mxgraph.aws4.group;grIcon=mxgraph.aws4.group_security_group;grStroke=0;strokeColor=#7AA116;fillColor=#F2F6E8;verticalAlign=top;align=left;spacingLeft=30;fontColor=#248814;dashed=0;" parent="1" vertex="1">
          <mxGeometry x="-313.5" y="206" width="152.5" height="140" as="geometry" />
        </mxCell>
        <mxCell id="5mBhdLcmA0R6iBajV5DQ-10" value="NAT Gateway" style="sketch=0;outlineConnect=0;fontColor=#232F3E;gradientColor=none;fillColor=#8C4FFF;strokeColor=none;dashed=0;verticalLabelPosition=bottom;verticalAlign=top;align=center;html=1;fontSize=12;fontStyle=0;aspect=fixed;pointerEvents=1;shape=mxgraph.aws4.nat_gateway;" parent="5mBhdLcmA0R6iBajV5DQ-9" vertex="1">
          <mxGeometry x="52.5" y="45" width="40" height="40" as="geometry" />
        </mxCell>
        <mxCell id="5mBhdLcmA0R6iBajV5DQ-11" value="&lt;span style=&quot;color: rgba(0, 0, 0, 0); font-family: monospace; font-size: 0px; text-wrap: nowrap;&quot;&gt;db%3CmxGraphModel%3E%3Croot%3E%3CmxCell%20id%3D%220%22%2F%3E%3CmxCell%20id%3D%221%22%20parent%3D%220%22%2F%3E%3CmxCell%20id%3D%222%22%20value%3D%22ALB%22%20style%3D%22sketch%3D0%3BoutlineConnect%3D0%3BfontColor%3D%23232F3E%3BgradientColor%3Dnone%3BfillColor%3D%238C4FFF%3BstrokeColor%3Dnone%3Bdashed%3D0%3BverticalLabelPosition%3Dbottom%3BverticalAlign%3Dtop%3Balign%3Dcenter%3Bhtml%3D1%3BfontSize%3D12%3BfontStyle%3D0%3Baspect%3Dfixed%3BpointerEvents%3D1%3Bshape%3Dmxgraph.aws4.application_load_balancer%3B%22%20vertex%3D%221%22%20parent%3D%221%22%3E%3CmxGeometry%20x%3D%22753.75%22%20y%3D%22490%22%20width%3D%2240%22%20height%3D%2240%22%20as%3D%22geometry%22%2F%3E%3C%2FmxCell%3E%3CmxCell%20id%3D%223%22%20value%3D%22%22%20style%3D%22edgeStyle%3DorthogonalEdgeStyle%3Bhtml%3D1%3BendArrow%3Dblock%3Belbow%3Dvertical%3BstartArrow%3Dnone%3BendFill%3D1%3BstrokeColor%3D%23545B64%3Brounded%3D0%3BentryX%3D0.5%3BentryY%3D0%3BentryDx%3D0%3BentryDy%3D0%3BentryPerimeter%3D0%3B%22%20edge%3D%221%22%20source%3D%222%22%20parent%3D%221%22%3E%3CmxGeometry%20width%3D%22100%22%20relative%3D%221%22%20as%3D%22geometry%22%3E%3CmxPoint%20x%3D%22800%22%20y%3D%22510%22%20as%3D%22sourcePoint%22%2F%3E%3CmxPoint%20x%3D%22954%22%20y%3D%22566%22%20as%3D%22targetPoint%22%2F%3E%3C%2FmxGeometry%3E%3C%2FmxCell%3E%3CmxCell%20id%3D%224%22%20value%3D%22%22%20style%3D%22edgeStyle%3DorthogonalEdgeStyle%3Bhtml%3D1%3BendArrow%3Dnone%3Belbow%3Dvertical%3BstartArrow%3Dblock%3BstartFill%3D1%3BstrokeColor%3D%23545B64%3Brounded%3D0%3BexitX%3D0.5%3BexitY%3D0%3BexitDx%3D0%3BexitDy%3D0%3BexitPerimeter%3D0%3B%22%20edge%3D%221%22%20target%3D%222%22%20parent%3D%221%22%3E%3CmxGeometry%20width%3D%22100%22%20relative%3D%221%22%20as%3D%22geometry%22%3E%3CmxPoint%20x%3D%22592%22%20y%3D%22566%22%20as%3D%22sourcePoint%22%2F%3E%3CmxPoint%20x%3D%22700%22%20y%3D%22500%22%20as%3D%22targetPoint%22%2F%3E%3CArray%20as%3D%22points%22%3E%3CmxPoint%20x%3D%22592%22%20y%3D%22510%22%2F%3E%3C%2FArray%3E%3C%2FmxGeometry%3E%3C%2FmxCell%3E%3C%2Froot%3E%3C%2FmxGraphModel%3Edfd&lt;/span&gt;&amp;nbsp;DB subnet" style="points=[[0,0],[0.25,0],[0.5,0],[0.75,0],[1,0],[1,0.25],[1,0.5],[1,0.75],[1,1],[0.75,1],[0.5,1],[0.25,1],[0,1],[0,0.75],[0,0.5],[0,0.25]];outlineConnect=0;gradientColor=none;html=1;whiteSpace=wrap;fontSize=12;fontStyle=0;container=1;pointerEvents=0;collapsible=0;recursiveResize=0;shape=mxgraph.aws4.group;grIcon=mxgraph.aws4.group_security_group;grStroke=0;strokeColor=#00A4A6;fillColor=#E6F6F7;verticalAlign=top;align=left;spacingLeft=30;fontColor=#147EBA;dashed=0;" parent="1" vertex="1">
          <mxGeometry x="-314.75" y="666" width="153.75" height="150" as="geometry" />
        </mxCell>
        <mxCell id="5mBhdLcmA0R6iBajV5DQ-12" value="RDS&lt;div&gt;Primary&lt;/div&gt;" style="sketch=0;points=[[0,0,0],[0.25,0,0],[0.5,0,0],[0.75,0,0],[1,0,0],[0,1,0],[0.25,1,0],[0.5,1,0],[0.75,1,0],[1,1,0],[0,0.25,0],[0,0.5,0],[0,0.75,0],[1,0.25,0],[1,0.5,0],[1,0.75,0]];outlineConnect=0;fontColor=#232F3E;fillColor=#C925D1;strokeColor=#ffffff;dashed=0;verticalLabelPosition=bottom;verticalAlign=top;align=center;html=1;fontSize=12;fontStyle=0;aspect=fixed;shape=mxgraph.aws4.resourceIcon;resIcon=mxgraph.aws4.rds;" parent="5mBhdLcmA0R6iBajV5DQ-11" vertex="1">
          <mxGeometry x="53.75" y="45.5" width="39" height="39" as="geometry" />
        </mxCell>
        <mxCell id="5mBhdLcmA0R6iBajV5DQ-13" value="Web subnet" style="points=[[0,0],[0.25,0],[0.5,0],[0.75,0],[1,0],[1,0.25],[1,0.5],[1,0.75],[1,1],[0.75,1],[0.5,1],[0.25,1],[0,1],[0,0.75],[0,0.5],[0,0.25]];outlineConnect=0;gradientColor=none;html=1;whiteSpace=wrap;fontSize=12;fontStyle=0;container=1;pointerEvents=0;collapsible=0;recursiveResize=0;shape=mxgraph.aws4.group;grIcon=mxgraph.aws4.group_security_group;grStroke=0;strokeColor=#00A4A6;fillColor=#E6F6F7;verticalAlign=top;align=left;spacingLeft=30;fontColor=#147EBA;dashed=0;" parent="1" vertex="1">
          <mxGeometry x="-314.75" y="358.5" width="153.75" height="147.5" as="geometry" />
        </mxCell>
        <mxCell id="5mBhdLcmA0R6iBajV5DQ-14" value="web subnet" style="points=[[0,0],[0.25,0],[0.5,0],[0.75,0],[1,0],[1,0.25],[1,0.5],[1,0.75],[1,1],[0.75,1],[0.5,1],[0.25,1],[0,1],[0,0.75],[0,0.5],[0,0.25]];outlineConnect=0;gradientColor=none;html=1;whiteSpace=wrap;fontSize=12;fontStyle=0;container=1;pointerEvents=0;collapsible=0;recursiveResize=0;shape=mxgraph.aws4.group;grIcon=mxgraph.aws4.group_security_group;grStroke=0;strokeColor=#00A4A6;fillColor=#E6F6F7;verticalAlign=top;align=left;spacingLeft=30;fontColor=#147EBA;dashed=0;" parent="1" vertex="1">
          <mxGeometry x="159" y="356" width="160" height="150" as="geometry" />
        </mxCell>
        <mxCell id="5mBhdLcmA0R6iBajV5DQ-15" value="DB subnet" style="points=[[0,0],[0.25,0],[0.5,0],[0.75,0],[1,0],[1,0.25],[1,0.5],[1,0.75],[1,1],[0.75,1],[0.5,1],[0.25,1],[0,1],[0,0.75],[0,0.5],[0,0.25]];outlineConnect=0;gradientColor=none;html=1;whiteSpace=wrap;fontSize=12;fontStyle=0;container=1;pointerEvents=0;collapsible=0;recursiveResize=0;shape=mxgraph.aws4.group;grIcon=mxgraph.aws4.group_security_group;grStroke=0;strokeColor=#00A4A6;fillColor=#E6F6F7;verticalAlign=top;align=left;spacingLeft=30;fontColor=#147EBA;dashed=0;" parent="1" vertex="1">
          <mxGeometry x="159" y="666" width="160" height="150" as="geometry" />
        </mxCell>
        <mxCell id="5mBhdLcmA0R6iBajV5DQ-16" value="RDS&lt;div&gt;Secondary&lt;/div&gt;" style="sketch=0;points=[[0,0,0],[0.25,0,0],[0.5,0,0],[0.75,0,0],[1,0,0],[0,1,0],[0.25,1,0],[0.5,1,0],[0.75,1,0],[1,1,0],[0,0.25,0],[0,0.5,0],[0,0.75,0],[1,0.25,0],[1,0.5,0],[1,0.75,0]];outlineConnect=0;fontColor=#232F3E;fillColor=#C925D1;strokeColor=#ffffff;dashed=0;verticalLabelPosition=bottom;verticalAlign=top;align=center;html=1;fontSize=12;fontStyle=0;aspect=fixed;shape=mxgraph.aws4.resourceIcon;resIcon=mxgraph.aws4.rds;" parent="5mBhdLcmA0R6iBajV5DQ-15" vertex="1">
          <mxGeometry x="60" y="45.5" width="39" height="39" as="geometry" />
        </mxCell>
        <mxCell id="5mBhdLcmA0R6iBajV5DQ-17" value="App subnet" style="points=[[0,0],[0.25,0],[0.5,0],[0.75,0],[1,0],[1,0.25],[1,0.5],[1,0.75],[1,1],[0.75,1],[0.5,1],[0.25,1],[0,1],[0,0.75],[0,0.5],[0,0.25]];outlineConnect=0;gradientColor=none;html=1;whiteSpace=wrap;fontSize=12;fontStyle=0;container=0;pointerEvents=0;collapsible=0;recursiveResize=0;shape=mxgraph.aws4.group;grIcon=mxgraph.aws4.group_security_group;grStroke=0;strokeColor=#00A4A6;fillColor=#E6F6F7;verticalAlign=top;align=left;spacingLeft=30;fontColor=#147EBA;dashed=0;" parent="1" vertex="1">
          <mxGeometry x="-314.75" y="516" width="153.75" height="140" as="geometry" />
        </mxCell>
        <mxCell id="5mBhdLcmA0R6iBajV5DQ-18" value="App subnet" style="points=[[0,0],[0.25,0],[0.5,0],[0.75,0],[1,0],[1,0.25],[1,0.5],[1,0.75],[1,1],[0.75,1],[0.5,1],[0.25,1],[0,1],[0,0.75],[0,0.5],[0,0.25]];outlineConnect=0;gradientColor=none;html=1;whiteSpace=wrap;fontSize=12;fontStyle=0;container=1;pointerEvents=0;collapsible=0;recursiveResize=0;shape=mxgraph.aws4.group;grIcon=mxgraph.aws4.group_security_group;grStroke=0;strokeColor=#00A4A6;fillColor=#E6F6F7;verticalAlign=top;align=left;spacingLeft=30;fontColor=#147EBA;dashed=0;" parent="1" vertex="1">
          <mxGeometry x="159" y="516" width="160" height="140" as="geometry" />
        </mxCell>
        <mxCell id="5mBhdLcmA0R6iBajV5DQ-19" value="ALB" style="sketch=0;outlineConnect=0;fontColor=#232F3E;gradientColor=none;fillColor=#8C4FFF;strokeColor=none;dashed=0;verticalLabelPosition=bottom;verticalAlign=top;align=center;html=1;fontSize=12;fontStyle=0;aspect=fixed;pointerEvents=1;shape=mxgraph.aws4.application_load_balancer;" parent="1" vertex="1">
          <mxGeometry x="-17.25" y="325.5" width="40" height="40" as="geometry" />
        </mxCell>
        <mxCell id="5mBhdLcmA0R6iBajV5DQ-20" value="" style="edgeStyle=orthogonalEdgeStyle;html=1;endArrow=none;elbow=vertical;startArrow=block;startFill=1;strokeColor=#545B64;rounded=0;exitX=1;exitY=0.25;exitDx=0;exitDy=0;" parent="1" source="5mBhdLcmA0R6iBajV5DQ-29" target="5mBhdLcmA0R6iBajV5DQ-19" edge="1">
          <mxGeometry width="100" relative="1" as="geometry">
            <mxPoint x="-151" y="424" as="sourcePoint" />
            <mxPoint x="-87" y="346" as="targetPoint" />
            <Array as="points">
              <mxPoint x="-131" y="423" />
              <mxPoint x="-131" y="346" />
            </Array>
          </mxGeometry>
        </mxCell>
        <mxCell id="5mBhdLcmA0R6iBajV5DQ-21" value="" style="edgeStyle=orthogonalEdgeStyle;html=1;endArrow=block;elbow=vertical;startArrow=none;endFill=1;strokeColor=#545B64;rounded=0;exitX=0.5;exitY=1;exitDx=0;exitDy=0;exitPerimeter=0;" parent="1" source="5mBhdLcmA0R6iBajV5DQ-27" target="5mBhdLcmA0R6iBajV5DQ-31" edge="1">
          <mxGeometry width="100" relative="1" as="geometry">
            <mxPoint x="-242" y="442.5" as="sourcePoint" />
            <mxPoint x="4" y="491.5004545351244" as="targetPoint" />
            <Array as="points">
              <mxPoint x="-231" y="486" />
            </Array>
          </mxGeometry>
        </mxCell>
        <mxCell id="5mBhdLcmA0R6iBajV5DQ-22" value="" style="edgeStyle=orthogonalEdgeStyle;html=1;endArrow=none;elbow=vertical;startArrow=block;startFill=1;strokeColor=#545B64;rounded=0;exitX=0.5;exitY=0;exitDx=0;exitDy=0;exitPerimeter=0;" parent="1" source="5mBhdLcmA0R6iBajV5DQ-12" edge="1">
          <mxGeometry width="100" relative="1" as="geometry">
            <mxPoint x="-121" y="666" as="sourcePoint" />
            <mxPoint x="-242" y="600" as="targetPoint" />
          </mxGeometry>
        </mxCell>
        <mxCell id="5mBhdLcmA0R6iBajV5DQ-23" value="" style="edgeStyle=orthogonalEdgeStyle;html=1;endArrow=none;elbow=vertical;startArrow=block;startFill=1;strokeColor=#545B64;rounded=0;exitX=0.5;exitY=0;exitDx=0;exitDy=0;exitPerimeter=0;" parent="1" source="5mBhdLcmA0R6iBajV5DQ-12" edge="1">
          <mxGeometry width="100" relative="1" as="geometry">
            <mxPoint x="-81" y="696" as="sourcePoint" />
            <mxPoint x="238" y="600" as="targetPoint" />
            <Array as="points">
              <mxPoint x="-241" y="636" />
              <mxPoint x="238" y="636" />
            </Array>
          </mxGeometry>
        </mxCell>
        <mxCell id="5mBhdLcmA0R6iBajV5DQ-24" value="NAT Gateway" style="sketch=0;outlineConnect=0;fontColor=#232F3E;gradientColor=none;fillColor=#8C4FFF;strokeColor=none;dashed=0;verticalLabelPosition=bottom;verticalAlign=top;align=center;html=1;fontSize=12;fontStyle=0;aspect=fixed;pointerEvents=1;shape=mxgraph.aws4.nat_gateway;" parent="1" vertex="1">
          <mxGeometry x="219" y="256" width="40" height="40" as="geometry" />
        </mxCell>
        <mxCell id="5mBhdLcmA0R6iBajV5DQ-25" value="" style="edgeStyle=orthogonalEdgeStyle;html=1;endArrow=block;elbow=vertical;startArrow=none;endFill=1;strokeColor=#545B64;rounded=0;" parent="1" source="5mBhdLcmA0R6iBajV5DQ-19" target="5mBhdLcmA0R6iBajV5DQ-30" edge="1">
          <mxGeometry width="100" relative="1" as="geometry">
            <mxPoint x="-41.75" y="346" as="sourcePoint" />
            <mxPoint x="222.5" y="425" as="targetPoint" />
            <Array as="points">
              <mxPoint x="129" y="346" />
              <mxPoint x="129" y="425" />
            </Array>
          </mxGeometry>
        </mxCell>
        <mxCell id="5mBhdLcmA0R6iBajV5DQ-26" value="" style="outlineConnect=0;dashed=0;verticalLabelPosition=bottom;verticalAlign=top;align=center;html=1;shape=mxgraph.aws3.ec2_compute_container;fillColor=#F58534;gradientColor=none;" parent="1" vertex="1">
          <mxGeometry x="209" y="436" width="60" height="34.5" as="geometry" />
        </mxCell>
        <mxCell id="5mBhdLcmA0R6iBajV5DQ-27" value="" style="outlineConnect=0;dashed=0;verticalLabelPosition=bottom;verticalAlign=top;align=center;html=1;shape=mxgraph.aws3.ec2_compute_container;fillColor=#F58534;gradientColor=none;" parent="1" vertex="1">
          <mxGeometry x="-261" y="436" width="60" height="34.5" as="geometry" />
        </mxCell>
        <mxCell id="5mBhdLcmA0R6iBajV5DQ-28" value="Auto Scaling group" style="points=[[0,0],[0.25,0],[0.5,0],[0.75,0],[1,0],[1,0.25],[1,0.5],[1,0.75],[1,1],[0.75,1],[0.5,1],[0.25,1],[0,1],[0,0.75],[0,0.5],[0,0.25]];outlineConnect=0;gradientColor=none;html=1;whiteSpace=wrap;fontSize=12;fontStyle=0;container=1;pointerEvents=0;collapsible=0;recursiveResize=0;shape=mxgraph.aws4.groupCenter;grIcon=mxgraph.aws4.group_auto_scaling_group;grStroke=1;strokeColor=#D86613;fillColor=none;verticalAlign=top;align=center;fontColor=#D86613;dashed=1;spacingTop=25;" parent="1" vertex="1">
          <mxGeometry x="-301" y="388.5" width="600" height="117.5" as="geometry" />
        </mxCell>
        <mxCell id="5mBhdLcmA0R6iBajV5DQ-29" value="EC2 instance contents" style="points=[[0,0],[0.25,0],[0.5,0],[0.75,0],[1,0],[1,0.25],[1,0.5],[1,0.75],[1,1],[0.75,1],[0.5,1],[0.25,1],[0,1],[0,0.75],[0,0.5],[0,0.25]];outlineConnect=0;gradientColor=none;html=1;whiteSpace=wrap;fontSize=12;fontStyle=0;container=1;pointerEvents=0;collapsible=0;recursiveResize=0;shape=mxgraph.aws4.group;grIcon=mxgraph.aws4.group_ec2_instance_contents;strokeColor=#D86613;fillColor=none;verticalAlign=top;align=left;spacingLeft=30;fontColor=#D86613;dashed=0;" parent="5mBhdLcmA0R6iBajV5DQ-28" vertex="1">
          <mxGeometry x="15.25" y="8.75" width="108.75" height="101.25" as="geometry" />
        </mxCell>
        <mxCell id="5mBhdLcmA0R6iBajV5DQ-30" value="EC2 instance contents" style="points=[[0,0],[0.25,0],[0.5,0],[0.75,0],[1,0],[1,0.25],[1,0.5],[1,0.75],[1,1],[0.75,1],[0.5,1],[0.25,1],[0,1],[0,0.75],[0,0.5],[0,0.25]];outlineConnect=0;gradientColor=none;html=1;whiteSpace=wrap;fontSize=12;fontStyle=0;container=1;pointerEvents=0;collapsible=0;recursiveResize=0;shape=mxgraph.aws4.group;grIcon=mxgraph.aws4.group_ec2_instance_contents;strokeColor=#D86613;fillColor=none;verticalAlign=top;align=left;spacingLeft=30;fontColor=#D86613;dashed=0;" parent="5mBhdLcmA0R6iBajV5DQ-28" vertex="1">
          <mxGeometry x="480" y="8.75" width="108.75" height="101.25" as="geometry" />
        </mxCell>
        <mxCell id="5mBhdLcmA0R6iBajV5DQ-31" value="ALB" style="sketch=0;outlineConnect=0;fontColor=#232F3E;gradientColor=none;fillColor=#8C4FFF;strokeColor=none;dashed=0;verticalLabelPosition=bottom;verticalAlign=top;align=center;html=1;fontSize=12;fontStyle=0;aspect=fixed;pointerEvents=1;shape=mxgraph.aws4.application_load_balancer;" parent="5mBhdLcmA0R6iBajV5DQ-28" vertex="1">
          <mxGeometry x="280" y="77.5" width="40" height="40" as="geometry" />
        </mxCell>
        <mxCell id="5mBhdLcmA0R6iBajV5DQ-32" value="" style="edgeStyle=orthogonalEdgeStyle;html=1;endArrow=none;elbow=vertical;startArrow=block;startFill=1;strokeColor=#545B64;rounded=0;entryX=0.5;entryY=1;entryDx=0;entryDy=0;entryPerimeter=0;" parent="1" source="5mBhdLcmA0R6iBajV5DQ-31" target="5mBhdLcmA0R6iBajV5DQ-26" edge="1">
          <mxGeometry width="100" relative="1" as="geometry">
            <mxPoint x="0.25" y="536.0004545351244" as="sourcePoint" />
            <mxPoint x="237.75" y="488.5" as="targetPoint" />
            <Array as="points">
              <mxPoint y="486" />
              <mxPoint x="238" y="486" />
            </Array>
          </mxGeometry>
        </mxCell>
        <mxCell id="5mBhdLcmA0R6iBajV5DQ-33" value="" style="edgeStyle=orthogonalEdgeStyle;html=1;endArrow=none;elbow=vertical;startArrow=block;startFill=1;strokeColor=#545B64;rounded=0;exitX=1;exitY=0.25;exitDx=0;exitDy=0;" parent="1" source="5mBhdLcmA0R6iBajV5DQ-38" target="5mBhdLcmA0R6iBajV5DQ-31" edge="1">
          <mxGeometry width="100" relative="1" as="geometry">
            <mxPoint x="-223" y="573.5" as="sourcePoint" />
            <mxPoint x="-17" y="496" as="targetPoint" />
            <Array as="points">
              <mxPoint x="-131" y="573" />
              <mxPoint x="-131" y="496" />
            </Array>
          </mxGeometry>
        </mxCell>
        <mxCell id="5mBhdLcmA0R6iBajV5DQ-34" value="" style="edgeStyle=orthogonalEdgeStyle;html=1;endArrow=block;elbow=vertical;startArrow=none;endFill=1;strokeColor=#545B64;rounded=0;" parent="1" source="5mBhdLcmA0R6iBajV5DQ-31" target="5mBhdLcmA0R6iBajV5DQ-39" edge="1">
          <mxGeometry width="100" relative="1" as="geometry">
            <mxPoint x="23" y="496" as="sourcePoint" />
            <mxPoint x="222.5" y="575" as="targetPoint" />
            <Array as="points">
              <mxPoint x="129" y="496" />
              <mxPoint x="129" y="575" />
            </Array>
          </mxGeometry>
        </mxCell>
        <mxCell id="5mBhdLcmA0R6iBajV5DQ-35" value="" style="outlineConnect=0;dashed=0;verticalLabelPosition=bottom;verticalAlign=top;align=center;html=1;shape=mxgraph.aws3.ec2_compute_container;fillColor=#F58534;gradientColor=none;" parent="1" vertex="1">
          <mxGeometry x="209" y="586" width="60" height="34.5" as="geometry" />
        </mxCell>
        <mxCell id="5mBhdLcmA0R6iBajV5DQ-36" value="" style="outlineConnect=0;dashed=0;verticalLabelPosition=bottom;verticalAlign=top;align=center;html=1;shape=mxgraph.aws3.ec2_compute_container;fillColor=#F58534;gradientColor=none;" parent="1" vertex="1">
          <mxGeometry x="-261" y="586" width="60" height="34.5" as="geometry" />
        </mxCell>
        <mxCell id="5mBhdLcmA0R6iBajV5DQ-37" value="Auto Scaling group" style="points=[[0,0],[0.25,0],[0.5,0],[0.75,0],[1,0],[1,0.25],[1,0.5],[1,0.75],[1,1],[0.75,1],[0.5,1],[0.25,1],[0,1],[0,0.75],[0,0.5],[0,0.25]];outlineConnect=0;gradientColor=none;html=1;whiteSpace=wrap;fontSize=12;fontStyle=0;container=1;pointerEvents=0;collapsible=0;recursiveResize=0;shape=mxgraph.aws4.groupCenter;grIcon=mxgraph.aws4.group_auto_scaling_group;grStroke=1;strokeColor=#D86613;fillColor=none;verticalAlign=top;align=center;fontColor=#D86613;dashed=1;spacingTop=25;" parent="1" vertex="1">
          <mxGeometry x="-301" y="538.5" width="600" height="117.5" as="geometry" />
        </mxCell>
        <mxCell id="5mBhdLcmA0R6iBajV5DQ-38" value="EC2 instance contents" style="points=[[0,0],[0.25,0],[0.5,0],[0.75,0],[1,0],[1,0.25],[1,0.5],[1,0.75],[1,1],[0.75,1],[0.5,1],[0.25,1],[0,1],[0,0.75],[0,0.5],[0,0.25]];outlineConnect=0;gradientColor=none;html=1;whiteSpace=wrap;fontSize=12;fontStyle=0;container=1;pointerEvents=0;collapsible=0;recursiveResize=0;shape=mxgraph.aws4.group;grIcon=mxgraph.aws4.group_ec2_instance_contents;strokeColor=#D86613;fillColor=none;verticalAlign=top;align=left;spacingLeft=30;fontColor=#D86613;dashed=0;" parent="5mBhdLcmA0R6iBajV5DQ-37" vertex="1">
          <mxGeometry x="15.25" y="8.75" width="108.75" height="101.25" as="geometry" />
        </mxCell>
        <mxCell id="5mBhdLcmA0R6iBajV5DQ-39" value="EC2 instance contents" style="points=[[0,0],[0.25,0],[0.5,0],[0.75,0],[1,0],[1,0.25],[1,0.5],[1,0.75],[1,1],[0.75,1],[0.5,1],[0.25,1],[0,1],[0,0.75],[0,0.5],[0,0.25]];outlineConnect=0;gradientColor=none;html=1;whiteSpace=wrap;fontSize=12;fontStyle=0;container=1;pointerEvents=0;collapsible=0;recursiveResize=0;shape=mxgraph.aws4.group;grIcon=mxgraph.aws4.group_ec2_instance_contents;strokeColor=#D86613;fillColor=none;verticalAlign=top;align=left;spacingLeft=30;fontColor=#D86613;dashed=0;" parent="5mBhdLcmA0R6iBajV5DQ-37" vertex="1">
          <mxGeometry x="480" y="8.75" width="108.75" height="101.25" as="geometry" />
        </mxCell>
        <mxCell id="5mBhdLcmA0R6iBajV5DQ-40" value="" style="endArrow=none;html=1;rounded=0;exitX=1;exitY=0.5;exitDx=0;exitDy=0;exitPerimeter=0;entryX=0;entryY=0.5;entryDx=0;entryDy=0;entryPerimeter=0;" parent="1" source="5mBhdLcmA0R6iBajV5DQ-12" target="5mBhdLcmA0R6iBajV5DQ-16" edge="1">
          <mxGeometry width="50" height="50" relative="1" as="geometry">
            <mxPoint x="-31" y="766" as="sourcePoint" />
            <mxPoint x="19" y="716" as="targetPoint" />
          </mxGeometry>
        </mxCell>
        <mxCell id="I4OcP9nDQu-UEszP16mP-1" value="" style="sketch=0;outlineConnect=0;fontColor=#232F3E;gradientColor=none;fillColor=#232F3D;strokeColor=none;dashed=0;verticalLabelPosition=bottom;verticalAlign=top;align=center;html=1;fontSize=12;fontStyle=0;aspect=fixed;pointerEvents=1;shape=mxgraph.aws4.user;" parent="1" vertex="1">
          <mxGeometry x="-21" width="50" height="50" as="geometry" />
        </mxCell>
        <mxCell id="QSjF_VxWjBSlh1QKxTzi-1" value="AWS Cloud" style="points=[[0,0],[0.25,0],[0.5,0],[0.75,0],[1,0],[1,0.25],[1,0.5],[1,0.75],[1,1],[0.75,1],[0.5,1],[0.25,1],[0,1],[0,0.75],[0,0.5],[0,0.25]];outlineConnect=0;gradientColor=none;html=1;whiteSpace=wrap;fontSize=12;fontStyle=0;container=0;pointerEvents=0;collapsible=0;recursiveResize=0;shape=mxgraph.aws4.group;grIcon=mxgraph.aws4.group_aws_cloud_alt;strokeColor=#232F3E;fillColor=none;verticalAlign=top;align=left;spacingLeft=30;fontColor=#232F3E;dashed=0;" parent="1" vertex="1">
          <mxGeometry x="-440" y="80" width="890" height="840" as="geometry" />
        </mxCell>
      </root>
    </mxGraphModel>
  </diagram>
  <diagram id="vG31zMkL-etabFrVItMB" name="보안">
    <mxGraphModel dx="-1025" dy="-1689" grid="0" gridSize="10" guides="1" tooltips="1" connect="1" arrows="1" fold="1" page="1" pageScale="1" pageWidth="827" pageHeight="1169" math="0" shadow="0">
      <root>
        <mxCell id="0" />
        <mxCell id="1" parent="0" />
        <mxCell id="cEZY5VM4kfl5Ktygems_-1" value="" style="endArrow=classic;html=1;rounded=0;exitX=0.5;exitY=1;exitDx=0;exitDy=0;entryX=0.5;entryY=0;entryDx=0;entryDy=0;entryPerimeter=0;strokeWidth=2;" parent="1" source="cEZY5VM4kfl5Ktygems_-11" target="cEZY5VM4kfl5Ktygems_-6" edge="1">
          <mxGeometry width="50" height="50" relative="1" as="geometry">
            <mxPoint x="2952.5" y="2690" as="sourcePoint" />
            <mxPoint x="2964.5" y="2701.5" as="targetPoint" />
          </mxGeometry>
        </mxCell>
        <mxCell id="cEZY5VM4kfl5Ktygems_-2" value="" style="endArrow=classic;html=1;rounded=0;entryX=0.5;entryY=0;entryDx=0;entryDy=0;entryPerimeter=0;strokeWidth=2;exitX=0.5;exitY=1;exitDx=0;exitDy=0;exitPerimeter=0;" parent="1" source="A9lmgGxzdARmodujSTXG-2" edge="1">
          <mxGeometry width="50" height="50" relative="1" as="geometry">
            <mxPoint x="2965" y="2800" as="sourcePoint" />
            <mxPoint x="2965" y="2837" as="targetPoint" />
          </mxGeometry>
        </mxCell>
        <mxCell id="cEZY5VM4kfl5Ktygems_-3" value="" style="endArrow=classic;html=1;rounded=0;exitX=0.5;exitY=1;exitDx=0;exitDy=0;strokeWidth=2;" parent="1" target="cEZY5VM4kfl5Ktygems_-15" edge="1">
          <mxGeometry width="50" height="50" relative="1" as="geometry">
            <mxPoint x="2968.500000000001" y="2941" as="sourcePoint" />
            <mxPoint x="2958.5" y="3033.0008881803687" as="targetPoint" />
          </mxGeometry>
        </mxCell>
        <mxCell id="cEZY5VM4kfl5Ktygems_-7" value="" style="group" parent="1" connectable="0" vertex="1">
          <mxGeometry x="2862" y="2833" width="90" height="108" as="geometry" />
        </mxCell>
        <mxCell id="cEZY5VM4kfl5Ktygems_-8" value="" style="sketch=0;points=[[0,0,0],[0.25,0,0],[0.5,0,0],[0.75,0,0],[1,0,0],[0,1,0],[0.25,1,0],[0.5,1,0],[0.75,1,0],[1,1,0],[0,0.25,0],[0,0.5,0],[0,0.75,0],[1,0.25,0],[1,0.5,0],[1,0.75,0]];outlineConnect=0;fontColor=#232F3E;fillColor=#DD344C;strokeColor=#ffffff;dashed=0;verticalLabelPosition=bottom;verticalAlign=top;align=center;html=1;fontSize=12;fontStyle=0;aspect=fixed;shape=mxgraph.aws4.resourceIcon;resIcon=mxgraph.aws4.waf;" parent="cEZY5VM4kfl5Ktygems_-7" vertex="1">
          <mxGeometry y="4" width="78" height="78" as="geometry" />
        </mxCell>
        <mxCell id="cEZY5VM4kfl5Ktygems_-9" value="&lt;p style=&quot;margin-top: 0pt; margin-bottom: 0pt; direction: ltr; unicode-bidi: embed; vertical-align: baseline;&quot;&gt;&lt;span style=&quot;font-size: 12pt; font-family: Arial;&quot;&gt;AWS WAF&lt;/span&gt;&lt;/p&gt;" style="text;html=1;align=center;verticalAlign=middle;whiteSpace=wrap;rounded=0;" parent="cEZY5VM4kfl5Ktygems_-7" vertex="1">
          <mxGeometry x="1.06" y="78" width="78.94" height="30" as="geometry" />
        </mxCell>
        <mxCell id="cEZY5VM4kfl5Ktygems_-10" value="" style="group" parent="1" connectable="0" vertex="1">
          <mxGeometry x="2932.5" y="2436" width="66" height="99" as="geometry" />
        </mxCell>
        <mxCell id="cEZY5VM4kfl5Ktygems_-11" value="Users" style="text;html=1;align=center;verticalAlign=middle;whiteSpace=wrap;rounded=0;fontSize=16;" parent="cEZY5VM4kfl5Ktygems_-10" vertex="1">
          <mxGeometry x="3" y="69" width="60" height="30" as="geometry" />
        </mxCell>
        <mxCell id="cEZY5VM4kfl5Ktygems_-12" value="" style="outlineConnect=0;dashed=0;verticalLabelPosition=bottom;verticalAlign=top;align=center;html=1;shape=mxgraph.aws3.users;fillColor=#D2D3D3;gradientColor=none;" parent="cEZY5VM4kfl5Ktygems_-10" vertex="1">
          <mxGeometry width="66" height="63" as="geometry" />
        </mxCell>
        <mxCell id="cEZY5VM4kfl5Ktygems_-13" value="" style="group" parent="1" connectable="0" vertex="1">
          <mxGeometry x="2905.5" y="3017" width="126" height="110" as="geometry" />
        </mxCell>
        <mxCell id="cEZY5VM4kfl5Ktygems_-14" value="Internet Gateway" style="text;html=1;align=center;verticalAlign=middle;whiteSpace=wrap;rounded=0;fontSize=16;" parent="cEZY5VM4kfl5Ktygems_-13" vertex="1">
          <mxGeometry y="80" width="126" height="30" as="geometry" />
        </mxCell>
        <mxCell id="cEZY5VM4kfl5Ktygems_-15" value="" style="sketch=0;outlineConnect=0;fontColor=#232F3E;gradientColor=none;fillColor=#8C4FFF;strokeColor=none;dashed=0;verticalLabelPosition=bottom;verticalAlign=top;align=center;html=1;fontSize=12;fontStyle=0;aspect=fixed;pointerEvents=1;shape=mxgraph.aws4.internet_gateway;" parent="cEZY5VM4kfl5Ktygems_-13" vertex="1">
          <mxGeometry x="24" width="78" height="78" as="geometry" />
        </mxCell>
        <mxCell id="cEZY5VM4kfl5Ktygems_-16" value="" style="sketch=0;points=[[0,0,0],[0.25,0,0],[0.5,0,0],[0.75,0,0],[1,0,0],[0,1,0],[0.25,1,0],[0.5,1,0],[0.75,1,0],[1,1,0],[0,0.25,0],[0,0.5,0],[0,0.75,0],[1,0.25,0],[1,0.5,0],[1,0.75,0]];outlineConnect=0;fontColor=#232F3E;fillColor=#DD344C;strokeColor=#ffffff;dashed=0;verticalLabelPosition=bottom;verticalAlign=top;align=center;html=1;fontSize=12;fontStyle=0;aspect=fixed;shape=mxgraph.aws4.resourceIcon;resIcon=mxgraph.aws4.shield;" parent="1" vertex="1">
          <mxGeometry x="2980" y="2837" width="78" height="78" as="geometry" />
        </mxCell>
        <mxCell id="cEZY5VM4kfl5Ktygems_-17" value="&lt;p style=&quot;margin-top: 0pt; margin-bottom: 0pt; direction: ltr; unicode-bidi: embed; vertical-align: baseline;&quot;&gt;&lt;span style=&quot;font-size: 12pt; font-family: Arial;&quot;&gt;AWS Shield&lt;/span&gt;&lt;/p&gt;" style="text;html=1;align=center;verticalAlign=middle;whiteSpace=wrap;rounded=0;" parent="1" vertex="1">
          <mxGeometry x="2969" y="2911" width="100" height="30" as="geometry" />
        </mxCell>
        <mxCell id="cEZY5VM4kfl5Ktygems_-18" value="AWS Cloud" style="points=[[0,0],[0.25,0],[0.5,0],[0.75,0],[1,0],[1,0.25],[1,0.5],[1,0.75],[1,1],[0.75,1],[0.5,1],[0.25,1],[0,1],[0,0.75],[0,0.5],[0,0.25]];outlineConnect=0;gradientColor=none;html=1;whiteSpace=wrap;fontSize=12;fontStyle=0;container=1;pointerEvents=0;collapsible=0;recursiveResize=0;shape=mxgraph.aws4.group;grIcon=mxgraph.aws4.group_aws_cloud_alt;strokeColor=#232F3E;fillColor=none;verticalAlign=top;align=left;spacingLeft=30;fontColor=#232F3E;dashed=0;" parent="1" vertex="1">
          <mxGeometry x="2699" y="2550" width="558" height="725" as="geometry" />
        </mxCell>
        <mxCell id="cEZY5VM4kfl5Ktygems_-4" value="" style="group" parent="cEZY5VM4kfl5Ktygems_-18" connectable="0" vertex="1">
          <mxGeometry x="175.65000000000012" y="31" width="190.5" height="108" as="geometry" />
        </mxCell>
        <mxCell id="cEZY5VM4kfl5Ktygems_-5" value="&lt;p style=&quot;margin-top: 0pt; margin-bottom: 0pt; direction: ltr; unicode-bidi: embed; vertical-align: baseline;&quot;&gt;&lt;span style=&quot;font-size: 12pt; font-family: Arial;&quot;&gt;Amazon Route 53&lt;/span&gt;&lt;/p&gt;" style="text;html=1;align=center;verticalAlign=middle;whiteSpace=wrap;rounded=0;fontSize=16;" parent="cEZY5VM4kfl5Ktygems_-4" vertex="1">
          <mxGeometry y="80" width="190.5" height="28" as="geometry" />
        </mxCell>
        <mxCell id="cEZY5VM4kfl5Ktygems_-6" value="" style="sketch=0;points=[[0,0,0],[0.25,0,0],[0.5,0,0],[0.75,0,0],[1,0,0],[0,1,0],[0.25,1,0],[0.5,1,0],[0.75,1,0],[1,1,0],[0,0.25,0],[0,0.5,0],[0,0.75,0],[1,0.25,0],[1,0.5,0],[1,0.75,0]];outlineConnect=0;fontColor=#232F3E;fillColor=#8C4FFF;strokeColor=#ffffff;dashed=0;verticalLabelPosition=bottom;verticalAlign=top;align=center;html=1;fontSize=12;fontStyle=0;aspect=fixed;shape=mxgraph.aws4.resourceIcon;resIcon=mxgraph.aws4.route_53;" parent="cEZY5VM4kfl5Ktygems_-4" vertex="1">
          <mxGeometry x="50.5" width="78" height="78" as="geometry" />
        </mxCell>
        <mxCell id="A9lmgGxzdARmodujSTXG-2" value="CloudFront" style="sketch=0;points=[[0,0,0],[0.25,0,0],[0.5,0,0],[0.75,0,0],[1,0,0],[0,1,0],[0.25,1,0],[0.5,1,0],[0.75,1,0],[1,1,0],[0,0.25,0],[0,0.5,0],[0,0.75,0],[1,0.25,0],[1,0.5,0],[1,0.75,0]];outlineConnect=0;fontColor=#232F3E;fillColor=#8C4FFF;strokeColor=#ffffff;dashed=0;verticalLabelPosition=bottom;verticalAlign=top;align=center;html=1;fontSize=12;fontStyle=0;aspect=fixed;shape=mxgraph.aws4.resourceIcon;resIcon=mxgraph.aws4.cloudfront;" parent="cEZY5VM4kfl5Ktygems_-18" vertex="1">
          <mxGeometry x="229.00000000000009" y="145" width="75" height="75" as="geometry" />
        </mxCell>
        <mxCell id="g8qQLNYRkyJTl2uLYxuS-1" value="Certificate Manager" style="sketch=0;points=[[0,0,0],[0.25,0,0],[0.5,0,0],[0.75,0,0],[1,0,0],[0,1,0],[0.25,1,0],[0.5,1,0],[0.75,1,0],[1,1,0],[0,0.25,0],[0,0.5,0],[0,0.75,0],[1,0.25,0],[1,0.5,0],[1,0.75,0]];outlineConnect=0;fontColor=#232F3E;fillColor=#DD344C;strokeColor=#ffffff;dashed=0;verticalLabelPosition=bottom;verticalAlign=top;align=center;html=1;fontSize=12;fontStyle=0;aspect=fixed;shape=mxgraph.aws4.resourceIcon;resIcon=mxgraph.aws4.certificate_manager_3;" vertex="1" parent="cEZY5VM4kfl5Ktygems_-18">
          <mxGeometry x="40" y="31" width="76" height="76" as="geometry" />
        </mxCell>
        <mxCell id="cEZY5VM4kfl5Ktygems_-19" value="VPC" style="points=[[0,0],[0.25,0],[0.5,0],[0.75,0],[1,0],[1,0.25],[1,0.5],[1,0.75],[1,1],[0.75,1],[0.5,1],[0.25,1],[0,1],[0,0.75],[0,0.5],[0,0.25]];outlineConnect=0;gradientColor=none;html=1;whiteSpace=wrap;fontSize=12;fontStyle=0;container=1;pointerEvents=0;collapsible=0;recursiveResize=0;shape=mxgraph.aws4.group;grIcon=mxgraph.aws4.group_vpc2;strokeColor=#8C4FFF;fillColor=none;verticalAlign=top;align=left;spacingLeft=30;fontColor=#AAB7B8;dashed=0;" parent="1" vertex="1">
          <mxGeometry x="2800.8" y="3050" width="338.2" height="141" as="geometry" />
        </mxCell>
        <mxCell id="cEZY5VM4kfl5Ktygems_-20" value="Region" style="points=[[0,0],[0.25,0],[0.5,0],[0.75,0],[1,0],[1,0.25],[1,0.5],[1,0.75],[1,1],[0.75,1],[0.5,1],[0.25,1],[0,1],[0,0.75],[0,0.5],[0,0.25]];outlineConnect=0;gradientColor=none;html=1;whiteSpace=wrap;fontSize=12;fontStyle=0;container=1;pointerEvents=0;collapsible=0;recursiveResize=0;shape=mxgraph.aws4.group;grIcon=mxgraph.aws4.group_region;strokeColor=#00A4A6;fillColor=none;verticalAlign=top;align=left;spacingLeft=30;fontColor=#147EBA;dashed=1;" parent="1" vertex="1">
          <mxGeometry x="2745.25" y="2991" width="456.75" height="235" as="geometry" />
        </mxCell>
      </root>
    </mxGraphModel>
  </diagram>
  <diagram id="_uOe34qc3T_gF9wgCpEl" name="CI/CD">
    <mxGraphModel dx="3328" dy="746" grid="0" gridSize="10" guides="1" tooltips="1" connect="1" arrows="1" fold="1" page="1" pageScale="1" pageWidth="827" pageHeight="1169" math="0" shadow="0">
      <root>
        <mxCell id="0" />
        <mxCell id="1" parent="0" />
        <mxCell id="48ffmyQoe52kkHFF7A0B-1" value="dev CodePipeline&lt;div&gt;&lt;br&gt;&lt;/div&gt;" style="outlineConnect=0;gradientColor=none;html=1;whiteSpace=wrap;fontSize=12;fontStyle=0;strokeColor=#FF9900;fillColor=none;verticalAlign=top;align=center;fontColor=#FF9900;dashed=0;spacingTop=3;" parent="1" vertex="1">
          <mxGeometry x="-883" y="276" width="271" height="170" as="geometry" />
        </mxCell>
        <mxCell id="48ffmyQoe52kkHFF7A0B-2" value="" style="points=[[0.35,0,0],[0.98,0.51,0],[1,0.71,0],[0.67,1,0],[0,0.795,0],[0,0.65,0]];verticalLabelPosition=bottom;sketch=0;html=1;verticalAlign=top;aspect=fixed;align=center;pointerEvents=1;shape=mxgraph.cisco19.user;fillColor=#005073;strokeColor=none;" parent="1" vertex="1">
          <mxGeometry x="-1231" y="374" width="50" height="50" as="geometry" />
        </mxCell>
        <mxCell id="48ffmyQoe52kkHFF7A0B-3" value="ECR" style="sketch=0;points=[[0,0,0],[0.25,0,0],[0.5,0,0],[0.75,0,0],[1,0,0],[0,1,0],[0.25,1,0],[0.5,1,0],[0.75,1,0],[1,1,0],[0,0.25,0],[0,0.5,0],[0,0.75,0],[1,0.25,0],[1,0.5,0],[1,0.75,0]];outlineConnect=0;fontColor=#232F3E;fillColor=#ED7100;strokeColor=#ffffff;dashed=0;verticalLabelPosition=bottom;verticalAlign=top;align=center;html=1;fontSize=12;fontStyle=0;aspect=fixed;shape=mxgraph.aws4.resourceIcon;resIcon=mxgraph.aws4.ecr;" parent="1" vertex="1">
          <mxGeometry x="-776" y="140" width="58" height="58" as="geometry" />
        </mxCell>
        <mxCell id="48ffmyQoe52kkHFF7A0B-4" value="ECS" style="sketch=0;points=[[0,0,0],[0.25,0,0],[0.5,0,0],[0.75,0,0],[1,0,0],[0,1,0],[0.25,1,0],[0.5,1,0],[0.75,1,0],[1,1,0],[0,0.25,0],[0,0.5,0],[0,0.75,0],[1,0.25,0],[1,0.5,0],[1,0.75,0]];outlineConnect=0;fontColor=#232F3E;fillColor=#ED7100;strokeColor=#ffffff;dashed=0;verticalLabelPosition=bottom;verticalAlign=top;align=center;html=1;fontSize=12;fontStyle=0;aspect=fixed;shape=mxgraph.aws4.resourceIcon;resIcon=mxgraph.aws4.ecs;" parent="1" vertex="1">
          <mxGeometry x="-556" y="485" width="59" height="59" as="geometry" />
        </mxCell>
        <mxCell id="48ffmyQoe52kkHFF7A0B-5" value="" style="edgeStyle=orthogonalEdgeStyle;html=1;endArrow=none;elbow=vertical;startArrow=block;startFill=1;strokeColor=#545B64;rounded=0;exitX=0.25;exitY=1;exitDx=0;exitDy=0;exitPerimeter=0;entryX=0.5;entryY=0;entryDx=0;entryDy=0;entryPerimeter=0;" parent="1" source="48ffmyQoe52kkHFF7A0B-3" target="48ffmyQoe52kkHFF7A0B-19" edge="1">
          <mxGeometry width="100" relative="1" as="geometry">
            <mxPoint x="-620" y="36" as="sourcePoint" />
            <mxPoint x="-725" y="336" as="targetPoint" />
            <Array as="points">
              <mxPoint x="-761" y="241" />
              <mxPoint x="-790" y="241" />
            </Array>
          </mxGeometry>
        </mxCell>
        <mxCell id="48ffmyQoe52kkHFF7A0B-6" value="" style="edgeStyle=orthogonalEdgeStyle;html=1;endArrow=none;elbow=vertical;startArrow=block;startFill=1;strokeColor=#545B64;rounded=0;exitX=0.25;exitY=1;exitDx=0;exitDy=0;entryX=1;entryY=0.5;entryDx=0;entryDy=0;entryPerimeter=0;" parent="1" source="48ffmyQoe52kkHFF7A0B-23" target="48ffmyQoe52kkHFF7A0B-20" edge="1">
          <mxGeometry width="100" relative="1" as="geometry">
            <mxPoint x="-675" y="336" as="sourcePoint" />
            <mxPoint x="-745" y="454" as="targetPoint" />
            <Array as="points">
              <mxPoint x="-578" y="301" />
              <mxPoint x="-629" y="301" />
              <mxPoint x="-629" y="398" />
            </Array>
          </mxGeometry>
        </mxCell>
        <mxCell id="48ffmyQoe52kkHFF7A0B-7" value="Github" style="shape=image;html=1;verticalAlign=top;verticalLabelPosition=bottom;labelBackgroundColor=#ffffff;imageAspect=0;aspect=fixed;image=https://cdn4.iconfinder.com/data/icons/ionicons/512/icon-social-github-128.png" parent="1" vertex="1">
          <mxGeometry x="-1031" y="366" width="66" height="66" as="geometry" />
        </mxCell>
        <mxCell id="48ffmyQoe52kkHFF7A0B-8" value="" style="edgeStyle=orthogonalEdgeStyle;html=1;endArrow=block;elbow=vertical;startArrow=none;endFill=1;strokeColor=#545B64;rounded=0;exitX=0.98;exitY=0.51;exitDx=0;exitDy=0;exitPerimeter=0;" parent="1" source="48ffmyQoe52kkHFF7A0B-2" target="48ffmyQoe52kkHFF7A0B-7" edge="1">
          <mxGeometry width="100" relative="1" as="geometry">
            <mxPoint x="-1045" y="409" as="sourcePoint" />
            <mxPoint x="-1121" y="401" as="targetPoint" />
          </mxGeometry>
        </mxCell>
        <mxCell id="48ffmyQoe52kkHFF7A0B-9" value="" style="edgeStyle=orthogonalEdgeStyle;html=1;endArrow=block;elbow=vertical;startArrow=none;endFill=1;strokeColor=#545B64;rounded=0;entryX=0;entryY=0.5;entryDx=0;entryDy=0;entryPerimeter=0;" parent="1" source="48ffmyQoe52kkHFF7A0B-7" target="48ffmyQoe52kkHFF7A0B-19" edge="1">
          <mxGeometry width="100" relative="1" as="geometry">
            <mxPoint x="-910" y="398" as="sourcePoint" />
            <mxPoint x="-860" y="398" as="targetPoint" />
          </mxGeometry>
        </mxCell>
        <mxCell id="48ffmyQoe52kkHFF7A0B-10" value="" style="edgeStyle=orthogonalEdgeStyle;html=1;endArrow=none;elbow=vertical;startArrow=block;startFill=1;strokeColor=#545B64;rounded=0;entryX=0.75;entryY=1;entryDx=0;entryDy=0;entryPerimeter=0;exitX=0.5;exitY=0;exitDx=0;exitDy=0;exitPerimeter=0;" parent="1" source="48ffmyQoe52kkHFF7A0B-20" target="48ffmyQoe52kkHFF7A0B-3" edge="1">
          <mxGeometry width="100" relative="1" as="geometry">
            <mxPoint x="-676" y="375" as="sourcePoint" />
            <mxPoint x="-560" y="321" as="targetPoint" />
            <Array as="points">
              <mxPoint x="-676" y="243" />
              <mxPoint x="-732" y="243" />
            </Array>
          </mxGeometry>
        </mxCell>
        <mxCell id="48ffmyQoe52kkHFF7A0B-11" value="" style="points=[[0.35,0,0],[0.98,0.51,0],[1,0.71,0],[0.67,1,0],[0,0.795,0],[0,0.65,0]];verticalLabelPosition=bottom;sketch=0;html=1;verticalAlign=top;aspect=fixed;align=center;pointerEvents=1;shape=mxgraph.cisco19.user;fillColor=#005073;strokeColor=none;" parent="1" vertex="1">
          <mxGeometry x="-1355" y="595" width="50" height="50" as="geometry" />
        </mxCell>
        <mxCell id="48ffmyQoe52kkHFF7A0B-12" value="Github" style="shape=image;html=1;verticalAlign=top;verticalLabelPosition=bottom;labelBackgroundColor=#ffffff;imageAspect=0;aspect=fixed;image=https://cdn4.iconfinder.com/data/icons/ionicons/512/icon-social-github-128.png" parent="1" vertex="1">
          <mxGeometry x="-1031" y="587" width="66" height="66" as="geometry" />
        </mxCell>
        <mxCell id="48ffmyQoe52kkHFF7A0B-13" value="" style="edgeStyle=orthogonalEdgeStyle;html=1;endArrow=block;elbow=vertical;startArrow=none;endFill=1;strokeColor=#545B64;rounded=0;entryX=0;entryY=0.5;entryDx=0;entryDy=0;" parent="1" source="48ffmyQoe52kkHFF7A0B-27" target="48ffmyQoe52kkHFF7A0B-12" edge="1">
          <mxGeometry width="100" relative="1" as="geometry">
            <mxPoint x="-1148" y="620" as="sourcePoint" />
            <mxPoint x="-1077" y="623" as="targetPoint" />
          </mxGeometry>
        </mxCell>
        <mxCell id="48ffmyQoe52kkHFF7A0B-14" value="CodeBuild" style="sketch=0;points=[[0,0,0],[0.25,0,0],[0.5,0,0],[0.75,0,0],[1,0,0],[0,1,0],[0.25,1,0],[0.5,1,0],[0.75,1,0],[1,1,0],[0,0.25,0],[0,0.5,0],[0,0.75,0],[1,0.25,0],[1,0.5,0],[1,0.75,0]];outlineConnect=0;fontColor=#232F3E;fillColor=#C925D1;strokeColor=#ffffff;dashed=0;verticalLabelPosition=bottom;verticalAlign=top;align=center;html=1;fontSize=12;fontStyle=0;aspect=fixed;shape=mxgraph.aws4.resourceIcon;resIcon=mxgraph.aws4.codebuild;" parent="1" vertex="1">
          <mxGeometry x="-833" y="595" width="50" height="50" as="geometry" />
        </mxCell>
        <mxCell id="48ffmyQoe52kkHFF7A0B-15" value="" style="edgeStyle=orthogonalEdgeStyle;html=1;endArrow=block;elbow=vertical;startArrow=none;endFill=1;strokeColor=#545B64;rounded=0;exitX=1;exitY=0.5;exitDx=0;exitDy=0;entryX=0;entryY=0.5;entryDx=0;entryDy=0;entryPerimeter=0;" parent="1" source="48ffmyQoe52kkHFF7A0B-12" target="48ffmyQoe52kkHFF7A0B-14" edge="1">
          <mxGeometry width="100" relative="1" as="geometry">
            <mxPoint x="-917" y="672" as="sourcePoint" />
            <mxPoint x="-761" y="671" as="targetPoint" />
          </mxGeometry>
        </mxCell>
        <mxCell id="48ffmyQoe52kkHFF7A0B-16" value="" style="group" parent="1" connectable="0" vertex="1">
          <mxGeometry x="-1058" y="540" width="299" height="154" as="geometry" />
        </mxCell>
        <mxCell id="48ffmyQoe52kkHFF7A0B-17" value="Iac CodePipeline&lt;div&gt;&lt;br&gt;&lt;/div&gt;" style="outlineConnect=0;gradientColor=none;html=1;whiteSpace=wrap;fontSize=12;fontStyle=0;strokeColor=#FF9900;fillColor=none;verticalAlign=top;align=center;fontColor=#FF9900;dashed=0;spacingTop=3;" parent="48ffmyQoe52kkHFF7A0B-16" vertex="1">
          <mxGeometry width="299" height="154" as="geometry" />
        </mxCell>
        <mxCell id="48ffmyQoe52kkHFF7A0B-18" value="" style="sketch=0;points=[[0,0,0],[0.25,0,0],[0.5,0,0],[0.75,0,0],[1,0,0],[0,1,0],[0.25,1,0],[0.5,1,0],[0.75,1,0],[1,1,0],[0,0.25,0],[0,0.5,0],[0,0.75,0],[1,0.25,0],[1,0.5,0],[1,0.75,0]];outlineConnect=0;fontColor=#232F3E;fillColor=#C925D1;strokeColor=#ffffff;dashed=0;verticalLabelPosition=bottom;verticalAlign=top;align=center;html=1;fontSize=12;fontStyle=0;aspect=fixed;shape=mxgraph.aws4.resourceIcon;resIcon=mxgraph.aws4.codepipeline;" parent="48ffmyQoe52kkHFF7A0B-16" vertex="1">
          <mxGeometry width="45.294117647058826" height="45.294117647058826" as="geometry" />
        </mxCell>
        <mxCell id="48ffmyQoe52kkHFF7A0B-19" value="CodeBuild" style="sketch=0;points=[[0,0,0],[0.25,0,0],[0.5,0,0],[0.75,0,0],[1,0,0],[0,1,0],[0.25,1,0],[0.5,1,0],[0.75,1,0],[1,1,0],[0,0.25,0],[0,0.5,0],[0,0.75,0],[1,0.25,0],[1,0.5,0],[1,0.75,0]];outlineConnect=0;fontColor=#232F3E;fillColor=#C925D1;strokeColor=#ffffff;dashed=0;verticalLabelPosition=bottom;verticalAlign=top;align=center;html=1;fontSize=12;fontStyle=0;aspect=fixed;shape=mxgraph.aws4.resourceIcon;resIcon=mxgraph.aws4.codebuild;" parent="1" vertex="1">
          <mxGeometry x="-815" y="373.5" width="50" height="50" as="geometry" />
        </mxCell>
        <mxCell id="48ffmyQoe52kkHFF7A0B-20" value="CodeDeploy" style="sketch=0;points=[[0,0,0],[0.25,0,0],[0.5,0,0],[0.75,0,0],[1,0,0],[0,1,0],[0.25,1,0],[0.5,1,0],[0.75,1,0],[1,1,0],[0,0.25,0],[0,0.5,0],[0,0.75,0],[1,0.25,0],[1,0.5,0],[1,0.75,0]];outlineConnect=0;fontColor=#232F3E;fillColor=#C925D1;strokeColor=#ffffff;dashed=0;verticalLabelPosition=bottom;verticalAlign=top;align=center;html=1;fontSize=12;fontStyle=0;aspect=fixed;shape=mxgraph.aws4.resourceIcon;resIcon=mxgraph.aws4.codedeploy;" parent="1" vertex="1">
          <mxGeometry x="-701" y="373.5" width="50" height="50" as="geometry" />
        </mxCell>
        <mxCell id="48ffmyQoe52kkHFF7A0B-21" value="" style="edgeStyle=orthogonalEdgeStyle;html=1;endArrow=block;elbow=vertical;startArrow=none;endFill=1;strokeColor=#545B64;rounded=0;exitX=1;exitY=0.5;exitDx=0;exitDy=0;exitPerimeter=0;entryX=0;entryY=0.5;entryDx=0;entryDy=0;entryPerimeter=0;" parent="1" source="48ffmyQoe52kkHFF7A0B-19" target="48ffmyQoe52kkHFF7A0B-20" edge="1">
          <mxGeometry width="100" relative="1" as="geometry">
            <mxPoint x="-722" y="466" as="sourcePoint" />
            <mxPoint x="-622" y="466" as="targetPoint" />
          </mxGeometry>
        </mxCell>
        <mxCell id="48ffmyQoe52kkHFF7A0B-22" value="CodeDeploy" style="sketch=0;points=[[0,0,0],[0.25,0,0],[0.5,0,0],[0.75,0,0],[1,0,0],[0,1,0],[0.25,1,0],[0.5,1,0],[0.75,1,0],[1,1,0],[0,0.25,0],[0,0.5,0],[0,0.75,0],[1,0.25,0],[1,0.5,0],[1,0.75,0]];outlineConnect=0;fontColor=#232F3E;fillColor=#C925D1;strokeColor=#ffffff;dashed=0;verticalLabelPosition=bottom;verticalAlign=top;align=center;html=1;fontSize=12;fontStyle=0;aspect=fixed;shape=mxgraph.aws4.resourceIcon;resIcon=mxgraph.aws4.codedeploy;" parent="1" vertex="1">
          <mxGeometry x="-556" y="373.5" width="50" height="50" as="geometry" />
        </mxCell>
        <mxCell id="48ffmyQoe52kkHFF7A0B-23" value="VPC - staging" style="points=[[0,0],[0.25,0],[0.5,0],[0.75,0],[1,0],[1,0.25],[1,0.5],[1,0.75],[1,1],[0.75,1],[0.5,1],[0.25,1],[0,1],[0,0.75],[0,0.5],[0,0.25]];outlineConnect=0;gradientColor=none;html=1;whiteSpace=wrap;fontSize=12;fontStyle=0;container=1;pointerEvents=0;collapsible=0;recursiveResize=0;shape=mxgraph.aws4.group;grIcon=mxgraph.aws4.group_vpc2;strokeColor=#8C4FFF;fillColor=none;verticalAlign=top;align=left;spacingLeft=30;fontColor=#AAB7B8;dashed=0;" parent="1" vertex="1">
          <mxGeometry x="-623" y="61" width="180" height="181" as="geometry" />
        </mxCell>
        <mxCell id="48ffmyQoe52kkHFF7A0B-24" value="" style="edgeStyle=orthogonalEdgeStyle;html=1;endArrow=none;elbow=vertical;startArrow=block;startFill=1;strokeColor=#545B64;rounded=0;exitX=0;exitY=0.5;exitDx=0;exitDy=0;exitPerimeter=0;" parent="1" source="48ffmyQoe52kkHFF7A0B-22" edge="1">
          <mxGeometry width="100" relative="1" as="geometry">
            <mxPoint x="-586" y="602" as="sourcePoint" />
            <mxPoint x="-651" y="399" as="targetPoint" />
            <Array as="points">
              <mxPoint x="-578" y="399" />
            </Array>
          </mxGeometry>
        </mxCell>
        <mxCell id="48ffmyQoe52kkHFF7A0B-25" value="" style="sketch=0;points=[[0,0,0],[0.25,0,0],[0.5,0,0],[0.75,0,0],[1,0,0],[0,1,0],[0.25,1,0],[0.5,1,0],[0.75,1,0],[1,1,0],[0,0.25,0],[0,0.5,0],[0,0.75,0],[1,0.25,0],[1,0.5,0],[1,0.75,0]];outlineConnect=0;fontColor=#232F3E;fillColor=#C925D1;strokeColor=#ffffff;dashed=0;verticalLabelPosition=bottom;verticalAlign=top;align=center;html=1;fontSize=12;fontStyle=0;aspect=fixed;shape=mxgraph.aws4.resourceIcon;resIcon=mxgraph.aws4.codepipeline;" parent="1" vertex="1">
          <mxGeometry x="-883" y="276" width="50" height="50" as="geometry" />
        </mxCell>
        <mxCell id="48ffmyQoe52kkHFF7A0B-26" value="" style="edgeStyle=orthogonalEdgeStyle;html=1;endArrow=block;elbow=vertical;startArrow=none;endFill=1;strokeColor=#545B64;rounded=0;exitX=0.5;exitY=1;exitDx=0;exitDy=0;exitPerimeter=0;" parent="1" source="48ffmyQoe52kkHFF7A0B-22" target="48ffmyQoe52kkHFF7A0B-4" edge="1">
          <mxGeometry width="100" relative="1" as="geometry">
            <mxPoint x="-663" y="547" as="sourcePoint" />
            <mxPoint x="-513" y="547" as="targetPoint" />
            <Array as="points">
              <mxPoint x="-531" y="468" />
              <mxPoint x="-531" y="468" />
            </Array>
          </mxGeometry>
        </mxCell>
        <mxCell id="48ffmyQoe52kkHFF7A0B-27" value="" style="shape=image;verticalLabelPosition=bottom;labelBackgroundColor=default;verticalAlign=top;aspect=fixed;imageAspect=0;image=data:image/svg+xml,PHN2ZyB4bWxucz0iaHR0cDovL3d3dy53My5vcmcvMjAwMC9zdmciIHZpZXdCb3g9IjAgMCAzMiAzMiI+PGcgZmlsbD0iIzgxM2NmMyI+PHBhdGggZD0ibTEyLjA0MiA2Ljg1OCA4LjAyOSA0LjU5djkuMDE0bC04LjAyOS00LjU5NHoiLz48cGF0aCBkPSJtMjAuNSAyMC40MTUgNy45NTktNC41NzV2LTguOTUzbC03Ljk1OSA0LjU0MnoiLz48cGF0aCBkPSJtMy41NDEgMTEuMDEgOC4wMyA0LjU4OXYtOS4wMDlsLTguMDMtNC41OXoiLz48cGF0aCBkPSJtMTIuMDQyIDI1LjQxIDguMDI5IDQuNTl2LTkuMDQzbC04LjAyOS00LjU4OXoiLz48L2c+PC9zdmc+;" parent="1" vertex="1">
          <mxGeometry x="-1220" y="579.5" width="81" height="81" as="geometry" />
        </mxCell>
        <mxCell id="48ffmyQoe52kkHFF7A0B-28" value="" style="edgeStyle=orthogonalEdgeStyle;html=1;endArrow=block;elbow=vertical;startArrow=none;endFill=1;strokeColor=#545B64;rounded=0;exitX=0.98;exitY=0.51;exitDx=0;exitDy=0;exitPerimeter=0;" parent="1" source="48ffmyQoe52kkHFF7A0B-11" target="48ffmyQoe52kkHFF7A0B-27" edge="1">
          <mxGeometry width="100" relative="1" as="geometry">
            <mxPoint x="-1129" y="630" as="sourcePoint" />
            <mxPoint x="-1021" y="630" as="targetPoint" />
          </mxGeometry>
        </mxCell>
      </root>
    </mxGraphModel>
  </diagram>
  <diagram id="w3kJnGbK778PUGOVHcnk" name="모니터링">
    <mxGraphModel dx="2501" dy="746" grid="0" gridSize="10" guides="1" tooltips="1" connect="1" arrows="1" fold="1" page="1" pageScale="1" pageWidth="827" pageHeight="1169" math="0" shadow="0">
      <root>
        <mxCell id="0" />
        <mxCell id="1" parent="0" />
        <mxCell id="UF7xwcmUVYOkPOQLEGFL-1" value="CloudWatch" style="sketch=0;points=[[0,0,0],[0.25,0,0],[0.5,0,0],[0.75,0,0],[1,0,0],[0,1,0],[0.25,1,0],[0.5,1,0],[0.75,1,0],[1,1,0],[0,0.25,0],[0,0.5,0],[0,0.75,0],[1,0.25,0],[1,0.5,0],[1,0.75,0]];points=[[0,0,0],[0.25,0,0],[0.5,0,0],[0.75,0,0],[1,0,0],[0,1,0],[0.25,1,0],[0.5,1,0],[0.75,1,0],[1,1,0],[0,0.25,0],[0,0.5,0],[0,0.75,0],[1,0.25,0],[1,0.5,0],[1,0.75,0]];outlineConnect=0;fontColor=#232F3E;fillColor=#E7157B;strokeColor=#ffffff;dashed=0;verticalLabelPosition=bottom;verticalAlign=top;align=center;html=1;fontSize=12;fontStyle=0;aspect=fixed;shape=mxgraph.aws4.resourceIcon;resIcon=mxgraph.aws4.cloudwatch_2;" parent="1" vertex="1">
          <mxGeometry x="-323.5" y="628" width="52.5" height="52.5" as="geometry" />
        </mxCell>
        <mxCell id="UF7xwcmUVYOkPOQLEGFL-2" value="SNS" style="sketch=0;points=[[0,0,0],[0.25,0,0],[0.5,0,0],[0.75,0,0],[1,0,0],[0,1,0],[0.25,1,0],[0.5,1,0],[0.75,1,0],[1,1,0],[0,0.25,0],[0,0.5,0],[0,0.75,0],[1,0.25,0],[1,0.5,0],[1,0.75,0]];outlineConnect=0;fontColor=#232F3E;fillColor=#E7157B;strokeColor=#ffffff;dashed=0;verticalLabelPosition=bottom;verticalAlign=top;align=center;html=1;fontSize=12;fontStyle=0;aspect=fixed;shape=mxgraph.aws4.resourceIcon;resIcon=mxgraph.aws4.sns;" parent="1" vertex="1">
          <mxGeometry x="-481" y="630.5" width="50" height="50" as="geometry" />
        </mxCell>
        <mxCell id="UF7xwcmUVYOkPOQLEGFL-3" value="Alarm" style="sketch=0;outlineConnect=0;fontColor=#232F3E;gradientColor=none;fillColor=#E7157B;strokeColor=none;dashed=0;verticalLabelPosition=bottom;verticalAlign=top;align=center;html=1;fontSize=12;fontStyle=0;aspect=fixed;pointerEvents=1;shape=mxgraph.aws4.alarm;" parent="1" vertex="1">
          <mxGeometry x="-402.25" y="628" width="48.75" height="48.75" as="geometry" />
        </mxCell>
        <mxCell id="UF7xwcmUVYOkPOQLEGFL-4" value="Lambda" style="sketch=0;points=[[0,0,0],[0.25,0,0],[0.5,0,0],[0.75,0,0],[1,0,0],[0,1,0],[0.25,1,0],[0.5,1,0],[0.75,1,0],[1,1,0],[0,0.25,0],[0,0.5,0],[0,0.75,0],[1,0.25,0],[1,0.5,0],[1,0.75,0]];outlineConnect=0;fontColor=#232F3E;fillColor=#ED7100;strokeColor=#ffffff;dashed=0;verticalLabelPosition=bottom;verticalAlign=top;align=center;html=1;fontSize=12;fontStyle=0;aspect=fixed;shape=mxgraph.aws4.resourceIcon;resIcon=mxgraph.aws4.lambda;" parent="1" vertex="1">
          <mxGeometry x="-481" y="538" width="50" height="50" as="geometry" />
        </mxCell>
        <mxCell id="UF7xwcmUVYOkPOQLEGFL-5" value="Slack" style="shape=image;html=1;verticalAlign=top;verticalLabelPosition=bottom;labelBackgroundColor=#ffffff;imageAspect=0;aspect=fixed;image=https://cdn2.iconfinder.com/data/icons/social-media-2285/512/1_Slack_colored_svg-128.png" parent="1" vertex="1">
          <mxGeometry x="-571" y="539" width="48" height="48" as="geometry" />
        </mxCell>
        <mxCell id="UF7xwcmUVYOkPOQLEGFL-6" value="Parameter&lt;div&gt;Store&lt;/div&gt;" style="sketch=0;outlineConnect=0;fontColor=#232F3E;gradientColor=none;fillColor=#E7157B;strokeColor=none;dashed=0;verticalLabelPosition=bottom;verticalAlign=top;align=center;html=1;fontSize=12;fontStyle=0;aspect=fixed;pointerEvents=1;shape=mxgraph.aws4.parameter_store;" parent="1" vertex="1">
          <mxGeometry x="-371.5799999999999" y="538" width="48.08" height="50" as="geometry" />
        </mxCell>
        <mxCell id="UF7xwcmUVYOkPOQLEGFL-7" value="" style="edgeStyle=orthogonalEdgeStyle;html=1;endArrow=none;elbow=vertical;startArrow=block;startFill=1;strokeColor=#545B64;rounded=0;" parent="1" edge="1">
          <mxGeometry width="100" relative="1" as="geometry">
            <mxPoint x="-353.6340589140618" y="655.4000000000001" as="sourcePoint" />
            <mxPoint x="-323.5" y="655.4000000000001" as="targetPoint" />
            <Array as="points">
              <mxPoint x="-331" y="655" />
              <mxPoint x="-331" y="655" />
            </Array>
          </mxGeometry>
        </mxCell>
        <mxCell id="UF7xwcmUVYOkPOQLEGFL-8" value="" style="edgeStyle=orthogonalEdgeStyle;html=1;endArrow=none;elbow=vertical;startArrow=block;startFill=1;strokeColor=#545B64;rounded=0;" parent="1" source="UF7xwcmUVYOkPOQLEGFL-2" target="UF7xwcmUVYOkPOQLEGFL-3" edge="1">
          <mxGeometry width="100" relative="1" as="geometry">
            <mxPoint x="-341" y="666" as="sourcePoint" />
            <mxPoint x="-401" y="656" as="targetPoint" />
            <Array as="points">
              <mxPoint x="-411" y="656" />
              <mxPoint x="-411" y="656" />
            </Array>
          </mxGeometry>
        </mxCell>
        <mxCell id="UF7xwcmUVYOkPOQLEGFL-9" value="" style="edgeStyle=orthogonalEdgeStyle;html=1;endArrow=none;elbow=vertical;startArrow=block;startFill=1;strokeColor=#545B64;rounded=0;entryX=0.5;entryY=0;entryDx=0;entryDy=0;entryPerimeter=0;exitX=0.5;exitY=1;exitDx=0;exitDy=0;exitPerimeter=0;" parent="1" source="UF7xwcmUVYOkPOQLEGFL-4" target="UF7xwcmUVYOkPOQLEGFL-2" edge="1">
          <mxGeometry width="100" relative="1" as="geometry">
            <mxPoint x="-571" y="606" as="sourcePoint" />
            <mxPoint x="-471" y="606" as="targetPoint" />
          </mxGeometry>
        </mxCell>
        <mxCell id="UF7xwcmUVYOkPOQLEGFL-10" value="" style="edgeStyle=orthogonalEdgeStyle;html=1;endArrow=none;elbow=vertical;startArrow=block;startFill=1;strokeColor=#545B64;rounded=0;entryX=0;entryY=0.5;entryDx=0;entryDy=0;entryPerimeter=0;exitX=1;exitY=0.5;exitDx=0;exitDy=0;" parent="1" source="UF7xwcmUVYOkPOQLEGFL-5" target="UF7xwcmUVYOkPOQLEGFL-4" edge="1">
          <mxGeometry width="100" relative="1" as="geometry">
            <mxPoint x="-581" y="526" as="sourcePoint" />
            <mxPoint x="-481" y="526" as="targetPoint" />
          </mxGeometry>
        </mxCell>
        <mxCell id="UF7xwcmUVYOkPOQLEGFL-11" value="" style="edgeStyle=orthogonalEdgeStyle;html=1;endArrow=block;elbow=vertical;startArrow=block;startFill=1;endFill=1;strokeColor=#545B64;rounded=0;exitX=1;exitY=0.5;exitDx=0;exitDy=0;exitPerimeter=0;" parent="1" source="UF7xwcmUVYOkPOQLEGFL-4" target="UF7xwcmUVYOkPOQLEGFL-6" edge="1">
          <mxGeometry width="100" relative="1" as="geometry">
            <mxPoint x="-421" y="566" as="sourcePoint" />
            <mxPoint x="-321" y="566" as="targetPoint" />
          </mxGeometry>
        </mxCell>
        <mxCell id="sFJGlI9--iAKc8VJxSF_-1" value="" style="points=[[0.35,0,0],[0.98,0.51,0],[1,0.71,0],[0.67,1,0],[0,0.795,0],[0,0.65,0]];verticalLabelPosition=bottom;sketch=0;html=1;verticalAlign=top;aspect=fixed;align=center;pointerEvents=1;shape=mxgraph.cisco19.user;fillColor=#005073;strokeColor=none;" parent="1" vertex="1">
          <mxGeometry x="-707" y="542" width="50" height="50" as="geometry" />
        </mxCell>
        <mxCell id="sFJGlI9--iAKc8VJxSF_-2" value="" style="edgeStyle=orthogonalEdgeStyle;html=1;endArrow=block;elbow=vertical;startArrow=none;endFill=1;strokeColor=#545B64;rounded=0;entryX=0.98;entryY=0.51;entryDx=0;entryDy=0;entryPerimeter=0;" parent="1" target="sFJGlI9--iAKc8VJxSF_-1" edge="1">
          <mxGeometry width="100" relative="1" as="geometry">
            <mxPoint x="-570" y="568" as="sourcePoint" />
            <mxPoint x="-947" y="613" as="targetPoint" />
            <Array as="points">
              <mxPoint x="-570" y="568" />
              <mxPoint x="-573" y="568" />
            </Array>
          </mxGeometry>
        </mxCell>
        <mxCell id="Gy-xjAoFzz4stDwhS-Iy-1" value="Web subnet" style="points=[[0,0],[0.25,0],[0.5,0],[0.75,0],[1,0],[1,0.25],[1,0.5],[1,0.75],[1,1],[0.75,1],[0.5,1],[0.25,1],[0,1],[0,0.75],[0,0.5],[0,0.25]];outlineConnect=0;gradientColor=none;html=1;whiteSpace=wrap;fontSize=12;fontStyle=0;container=1;pointerEvents=0;collapsible=0;recursiveResize=0;shape=mxgraph.aws4.group;grIcon=mxgraph.aws4.group_security_group;grStroke=0;strokeColor=#00A4A6;fillColor=#E6F6F7;verticalAlign=top;align=left;spacingLeft=30;fontColor=#147EBA;dashed=0;" parent="1" vertex="1">
          <mxGeometry x="-140" y="458.5" width="153.75" height="147.5" as="geometry" />
        </mxCell>
        <mxCell id="Gy-xjAoFzz4stDwhS-Iy-3" value="App subnet" style="points=[[0,0],[0.25,0],[0.5,0],[0.75,0],[1,0],[1,0.25],[1,0.5],[1,0.75],[1,1],[0.75,1],[0.5,1],[0.25,1],[0,1],[0,0.75],[0,0.5],[0,0.25]];outlineConnect=0;gradientColor=none;html=1;whiteSpace=wrap;fontSize=12;fontStyle=0;container=0;pointerEvents=0;collapsible=0;recursiveResize=0;shape=mxgraph.aws4.group;grIcon=mxgraph.aws4.group_security_group;grStroke=0;strokeColor=#00A4A6;fillColor=#E6F6F7;verticalAlign=top;align=left;spacingLeft=30;fontColor=#147EBA;dashed=0;" parent="1" vertex="1">
          <mxGeometry x="-140" y="616" width="153.75" height="140" as="geometry" />
        </mxCell>
        <mxCell id="Gy-xjAoFzz4stDwhS-Iy-9" value="" style="outlineConnect=0;dashed=0;verticalLabelPosition=bottom;verticalAlign=top;align=center;html=1;shape=mxgraph.aws3.ec2_compute_container;fillColor=#F58534;gradientColor=none;" parent="1" vertex="1">
          <mxGeometry x="-86.25" y="536" width="60" height="34.5" as="geometry" />
        </mxCell>
        <mxCell id="Gy-xjAoFzz4stDwhS-Iy-18" value="" style="outlineConnect=0;dashed=0;verticalLabelPosition=bottom;verticalAlign=top;align=center;html=1;shape=mxgraph.aws3.ec2_compute_container;fillColor=#F58534;gradientColor=none;" parent="1" vertex="1">
          <mxGeometry x="-86.25" y="686" width="60" height="34.5" as="geometry" />
        </mxCell>
        <mxCell id="wSX0w-oad3O_DGelLHZ1-1" value="" style="edgeStyle=orthogonalEdgeStyle;html=1;endArrow=none;elbow=vertical;startArrow=block;startFill=1;strokeColor=#545B64;rounded=0;exitX=1;exitY=0.5;exitDx=0;exitDy=0;exitPerimeter=0;" parent="1" source="UF7xwcmUVYOkPOQLEGFL-1" target="Gy-xjAoFzz4stDwhS-Iy-1" edge="1">
          <mxGeometry width="100" relative="1" as="geometry">
            <mxPoint x="-427" y="885.73" as="sourcePoint" />
            <mxPoint x="-189" y="541" as="targetPoint" />
            <Array as="points">
              <mxPoint x="-230" y="654" />
              <mxPoint x="-230" y="548" />
            </Array>
          </mxGeometry>
        </mxCell>
        <mxCell id="wSX0w-oad3O_DGelLHZ1-2" value="" style="edgeStyle=orthogonalEdgeStyle;html=1;endArrow=none;elbow=vertical;startArrow=block;startFill=1;strokeColor=#545B64;rounded=0;exitX=1;exitY=0.5;exitDx=0;exitDy=0;exitPerimeter=0;" parent="1" source="UF7xwcmUVYOkPOQLEGFL-1" target="Gy-xjAoFzz4stDwhS-Iy-3" edge="1">
          <mxGeometry width="100" relative="1" as="geometry">
            <mxPoint x="-427" y="887.73" as="sourcePoint" />
            <mxPoint x="-180" y="700" as="targetPoint" />
            <Array as="points">
              <mxPoint x="-230" y="654" />
              <mxPoint x="-230" y="697" />
            </Array>
          </mxGeometry>
        </mxCell>
        <mxCell id="Gy-xjAoFzz4stDwhS-Iy-11" value="EC2 instance contents" style="points=[[0,0],[0.25,0],[0.5,0],[0.75,0],[1,0],[1,0.25],[1,0.5],[1,0.75],[1,1],[0.75,1],[0.5,1],[0.25,1],[0,1],[0,0.75],[0,0.5],[0,0.25]];outlineConnect=0;gradientColor=none;html=1;whiteSpace=wrap;fontSize=12;fontStyle=0;container=1;pointerEvents=0;collapsible=0;recursiveResize=0;shape=mxgraph.aws4.group;grIcon=mxgraph.aws4.group_ec2_instance_contents;strokeColor=#D86613;fillColor=none;verticalAlign=top;align=left;spacingLeft=30;fontColor=#D86613;dashed=0;" parent="1" vertex="1">
          <mxGeometry x="-111" y="497.25" width="108.75" height="101.25" as="geometry" />
        </mxCell>
        <mxCell id="Gy-xjAoFzz4stDwhS-Iy-20" value="EC2 instance contents" style="points=[[0,0],[0.25,0],[0.5,0],[0.75,0],[1,0],[1,0.25],[1,0.5],[1,0.75],[1,1],[0.75,1],[0.5,1],[0.25,1],[0,1],[0,0.75],[0,0.5],[0,0.25]];outlineConnect=0;gradientColor=none;html=1;whiteSpace=wrap;fontSize=12;fontStyle=0;container=1;pointerEvents=0;collapsible=0;recursiveResize=0;shape=mxgraph.aws4.group;grIcon=mxgraph.aws4.group_ec2_instance_contents;strokeColor=#D86613;fillColor=none;verticalAlign=top;align=left;spacingLeft=30;fontColor=#D86613;dashed=0;" parent="1" vertex="1">
          <mxGeometry x="-111" y="647.25" width="108.75" height="101.25" as="geometry" />
        </mxCell>
      </root>
    </mxGraphModel>
  </diagram>
  <diagram id="Z-X7f3SvI1U8ChhVWgtt" name="컨테이너">
    <mxGraphModel dx="1674" dy="746" grid="0" gridSize="10" guides="1" tooltips="1" connect="1" arrows="1" fold="1" page="1" pageScale="1" pageWidth="827" pageHeight="1169" math="0" shadow="0">
      <root>
        <mxCell id="0" />
        <mxCell id="1" parent="0" />
        <mxCell id="WM-3D7Mu-6Y7IBxBlk11-1" value="ECS" style="sketch=0;points=[[0,0,0],[0.25,0,0],[0.5,0,0],[0.75,0,0],[1,0,0],[0,1,0],[0.25,1,0],[0.5,1,0],[0.75,1,0],[1,1,0],[0,0.25,0],[0,0.5,0],[0,0.75,0],[1,0.25,0],[1,0.5,0],[1,0.75,0]];outlineConnect=0;fontColor=#232F3E;fillColor=#ED7100;strokeColor=#ffffff;dashed=0;verticalLabelPosition=bottom;verticalAlign=top;align=center;html=1;fontSize=12;fontStyle=0;aspect=fixed;shape=mxgraph.aws4.resourceIcon;resIcon=mxgraph.aws4.ecs;" parent="1" vertex="1">
          <mxGeometry x="123" y="277.5" width="59" height="59" as="geometry" />
        </mxCell>
        <mxCell id="WM-3D7Mu-6Y7IBxBlk11-2" value="Web subnet" style="points=[[0,0],[0.25,0],[0.5,0],[0.75,0],[1,0],[1,0.25],[1,0.5],[1,0.75],[1,1],[0.75,1],[0.5,1],[0.25,1],[0,1],[0,0.75],[0,0.5],[0,0.25]];outlineConnect=0;gradientColor=none;html=1;whiteSpace=wrap;fontSize=12;fontStyle=0;container=1;pointerEvents=0;collapsible=0;recursiveResize=0;shape=mxgraph.aws4.group;grIcon=mxgraph.aws4.group_security_group;grStroke=0;strokeColor=#00A4A6;fillColor=#E6F6F7;verticalAlign=top;align=left;spacingLeft=30;fontColor=#147EBA;dashed=0;" parent="1" vertex="1">
          <mxGeometry x="364.25" y="151" width="153.75" height="147.5" as="geometry" />
        </mxCell>
        <mxCell id="WM-3D7Mu-6Y7IBxBlk11-3" value="web subnet" style="points=[[0,0],[0.25,0],[0.5,0],[0.75,0],[1,0],[1,0.25],[1,0.5],[1,0.75],[1,1],[0.75,1],[0.5,1],[0.25,1],[0,1],[0,0.75],[0,0.5],[0,0.25]];outlineConnect=0;gradientColor=none;html=1;whiteSpace=wrap;fontSize=12;fontStyle=0;container=1;pointerEvents=0;collapsible=0;recursiveResize=0;shape=mxgraph.aws4.group;grIcon=mxgraph.aws4.group_security_group;grStroke=0;strokeColor=#00A4A6;fillColor=#E6F6F7;verticalAlign=top;align=left;spacingLeft=30;fontColor=#147EBA;dashed=0;" parent="1" vertex="1">
          <mxGeometry x="838" y="148.5" width="160" height="150" as="geometry" />
        </mxCell>
        <mxCell id="WM-3D7Mu-6Y7IBxBlk11-4" value="App subnet" style="points=[[0,0],[0.25,0],[0.5,0],[0.75,0],[1,0],[1,0.25],[1,0.5],[1,0.75],[1,1],[0.75,1],[0.5,1],[0.25,1],[0,1],[0,0.75],[0,0.5],[0,0.25]];outlineConnect=0;gradientColor=none;html=1;whiteSpace=wrap;fontSize=12;fontStyle=0;container=0;pointerEvents=0;collapsible=0;recursiveResize=0;shape=mxgraph.aws4.group;grIcon=mxgraph.aws4.group_security_group;grStroke=0;strokeColor=#00A4A6;fillColor=#E6F6F7;verticalAlign=top;align=left;spacingLeft=30;fontColor=#147EBA;dashed=0;" parent="1" vertex="1">
          <mxGeometry x="364.25" y="308.5" width="153.75" height="140" as="geometry" />
        </mxCell>
        <mxCell id="WM-3D7Mu-6Y7IBxBlk11-5" value="App subnet" style="points=[[0,0],[0.25,0],[0.5,0],[0.75,0],[1,0],[1,0.25],[1,0.5],[1,0.75],[1,1],[0.75,1],[0.5,1],[0.25,1],[0,1],[0,0.75],[0,0.5],[0,0.25]];outlineConnect=0;gradientColor=none;html=1;whiteSpace=wrap;fontSize=12;fontStyle=0;container=1;pointerEvents=0;collapsible=0;recursiveResize=0;shape=mxgraph.aws4.group;grIcon=mxgraph.aws4.group_security_group;grStroke=0;strokeColor=#00A4A6;fillColor=#E6F6F7;verticalAlign=top;align=left;spacingLeft=30;fontColor=#147EBA;dashed=0;" parent="1" vertex="1">
          <mxGeometry x="838" y="308.5" width="160" height="140" as="geometry" />
        </mxCell>
        <mxCell id="WM-3D7Mu-6Y7IBxBlk11-6" value="ALB" style="sketch=0;outlineConnect=0;fontColor=#232F3E;gradientColor=none;fillColor=#8C4FFF;strokeColor=none;dashed=0;verticalLabelPosition=bottom;verticalAlign=top;align=center;html=1;fontSize=12;fontStyle=0;aspect=fixed;pointerEvents=1;shape=mxgraph.aws4.application_load_balancer;" parent="1" vertex="1">
          <mxGeometry x="661.75" y="118" width="40" height="40" as="geometry" />
        </mxCell>
        <mxCell id="WM-3D7Mu-6Y7IBxBlk11-7" value="" style="edgeStyle=orthogonalEdgeStyle;html=1;endArrow=none;elbow=vertical;startArrow=block;startFill=1;strokeColor=#545B64;rounded=0;exitX=1;exitY=0.25;exitDx=0;exitDy=0;" parent="1" source="WM-3D7Mu-6Y7IBxBlk11-13" target="WM-3D7Mu-6Y7IBxBlk11-6" edge="1">
          <mxGeometry width="100" relative="1" as="geometry">
            <mxPoint x="528" y="216.5" as="sourcePoint" />
            <mxPoint x="592" y="138.5" as="targetPoint" />
            <Array as="points">
              <mxPoint x="548" y="215.5" />
              <mxPoint x="548" y="138.5" />
            </Array>
          </mxGeometry>
        </mxCell>
        <mxCell id="WM-3D7Mu-6Y7IBxBlk11-8" value="" style="edgeStyle=orthogonalEdgeStyle;html=1;endArrow=block;elbow=vertical;startArrow=none;endFill=1;strokeColor=#545B64;rounded=0;exitX=0.5;exitY=1;exitDx=0;exitDy=0;exitPerimeter=0;" parent="1" source="WM-3D7Mu-6Y7IBxBlk11-11" target="WM-3D7Mu-6Y7IBxBlk11-15" edge="1">
          <mxGeometry width="100" relative="1" as="geometry">
            <mxPoint x="437" y="235" as="sourcePoint" />
            <mxPoint x="683" y="284.0004545351244" as="targetPoint" />
            <Array as="points">
              <mxPoint x="448" y="278.5" />
            </Array>
          </mxGeometry>
        </mxCell>
        <mxCell id="WM-3D7Mu-6Y7IBxBlk11-9" value="" style="edgeStyle=orthogonalEdgeStyle;html=1;endArrow=block;elbow=vertical;startArrow=none;endFill=1;strokeColor=#545B64;rounded=0;" parent="1" source="WM-3D7Mu-6Y7IBxBlk11-6" target="WM-3D7Mu-6Y7IBxBlk11-14" edge="1">
          <mxGeometry width="100" relative="1" as="geometry">
            <mxPoint x="637.25" y="138.5" as="sourcePoint" />
            <mxPoint x="901.5" y="217.5" as="targetPoint" />
            <Array as="points">
              <mxPoint x="808" y="138.5" />
              <mxPoint x="808" y="217.5" />
            </Array>
          </mxGeometry>
        </mxCell>
        <mxCell id="WM-3D7Mu-6Y7IBxBlk11-10" value="" style="outlineConnect=0;dashed=0;verticalLabelPosition=bottom;verticalAlign=top;align=center;html=1;shape=mxgraph.aws3.ec2_compute_container;fillColor=#F58534;gradientColor=none;" parent="1" vertex="1">
          <mxGeometry x="888" y="228.5" width="60" height="34.5" as="geometry" />
        </mxCell>
        <mxCell id="WM-3D7Mu-6Y7IBxBlk11-11" value="" style="outlineConnect=0;dashed=0;verticalLabelPosition=bottom;verticalAlign=top;align=center;html=1;shape=mxgraph.aws3.ec2_compute_container;fillColor=#F58534;gradientColor=none;" parent="1" vertex="1">
          <mxGeometry x="418" y="228.5" width="60" height="34.5" as="geometry" />
        </mxCell>
        <mxCell id="WM-3D7Mu-6Y7IBxBlk11-12" value="Auto Scaling group" style="points=[[0,0],[0.25,0],[0.5,0],[0.75,0],[1,0],[1,0.25],[1,0.5],[1,0.75],[1,1],[0.75,1],[0.5,1],[0.25,1],[0,1],[0,0.75],[0,0.5],[0,0.25]];outlineConnect=0;gradientColor=none;html=1;whiteSpace=wrap;fontSize=12;fontStyle=0;container=1;pointerEvents=0;collapsible=0;recursiveResize=0;shape=mxgraph.aws4.groupCenter;grIcon=mxgraph.aws4.group_auto_scaling_group;grStroke=1;strokeColor=#D86613;fillColor=none;verticalAlign=top;align=center;fontColor=#D86613;dashed=1;spacingTop=25;" parent="1" vertex="1">
          <mxGeometry x="378" y="181" width="600" height="117.5" as="geometry" />
        </mxCell>
        <mxCell id="WM-3D7Mu-6Y7IBxBlk11-13" value="EC2 instance contents" style="points=[[0,0],[0.25,0],[0.5,0],[0.75,0],[1,0],[1,0.25],[1,0.5],[1,0.75],[1,1],[0.75,1],[0.5,1],[0.25,1],[0,1],[0,0.75],[0,0.5],[0,0.25]];outlineConnect=0;gradientColor=none;html=1;whiteSpace=wrap;fontSize=12;fontStyle=0;container=1;pointerEvents=0;collapsible=0;recursiveResize=0;shape=mxgraph.aws4.group;grIcon=mxgraph.aws4.group_ec2_instance_contents;strokeColor=#D86613;fillColor=none;verticalAlign=top;align=left;spacingLeft=30;fontColor=#D86613;dashed=0;" parent="WM-3D7Mu-6Y7IBxBlk11-12" vertex="1">
          <mxGeometry x="15.25" y="8.75" width="108.75" height="101.25" as="geometry" />
        </mxCell>
        <mxCell id="WM-3D7Mu-6Y7IBxBlk11-14" value="EC2 instance contents" style="points=[[0,0],[0.25,0],[0.5,0],[0.75,0],[1,0],[1,0.25],[1,0.5],[1,0.75],[1,1],[0.75,1],[0.5,1],[0.25,1],[0,1],[0,0.75],[0,0.5],[0,0.25]];outlineConnect=0;gradientColor=none;html=1;whiteSpace=wrap;fontSize=12;fontStyle=0;container=1;pointerEvents=0;collapsible=0;recursiveResize=0;shape=mxgraph.aws4.group;grIcon=mxgraph.aws4.group_ec2_instance_contents;strokeColor=#D86613;fillColor=none;verticalAlign=top;align=left;spacingLeft=30;fontColor=#D86613;dashed=0;" parent="WM-3D7Mu-6Y7IBxBlk11-12" vertex="1">
          <mxGeometry x="480" y="8.75" width="108.75" height="101.25" as="geometry" />
        </mxCell>
        <mxCell id="WM-3D7Mu-6Y7IBxBlk11-15" value="ALB" style="sketch=0;outlineConnect=0;fontColor=#232F3E;gradientColor=none;fillColor=#8C4FFF;strokeColor=none;dashed=0;verticalLabelPosition=bottom;verticalAlign=top;align=center;html=1;fontSize=12;fontStyle=0;aspect=fixed;pointerEvents=1;shape=mxgraph.aws4.application_load_balancer;" parent="WM-3D7Mu-6Y7IBxBlk11-12" vertex="1">
          <mxGeometry x="280" y="77.5" width="40" height="40" as="geometry" />
        </mxCell>
        <mxCell id="WM-3D7Mu-6Y7IBxBlk11-16" value="" style="edgeStyle=orthogonalEdgeStyle;html=1;endArrow=none;elbow=vertical;startArrow=block;startFill=1;strokeColor=#545B64;rounded=0;entryX=0.5;entryY=1;entryDx=0;entryDy=0;entryPerimeter=0;" parent="1" source="WM-3D7Mu-6Y7IBxBlk11-15" target="WM-3D7Mu-6Y7IBxBlk11-10" edge="1">
          <mxGeometry width="100" relative="1" as="geometry">
            <mxPoint x="679.25" y="328.5004545351244" as="sourcePoint" />
            <mxPoint x="916.75" y="281" as="targetPoint" />
            <Array as="points">
              <mxPoint x="679" y="278.5" />
              <mxPoint x="917" y="278.5" />
            </Array>
          </mxGeometry>
        </mxCell>
        <mxCell id="WM-3D7Mu-6Y7IBxBlk11-17" value="" style="edgeStyle=orthogonalEdgeStyle;html=1;endArrow=none;elbow=vertical;startArrow=block;startFill=1;strokeColor=#545B64;rounded=0;exitX=1;exitY=0.25;exitDx=0;exitDy=0;" parent="1" source="WM-3D7Mu-6Y7IBxBlk11-24" target="WM-3D7Mu-6Y7IBxBlk11-15" edge="1">
          <mxGeometry width="100" relative="1" as="geometry">
            <mxPoint x="456" y="366" as="sourcePoint" />
            <mxPoint x="662" y="288.5" as="targetPoint" />
            <Array as="points">
              <mxPoint x="548" y="365.5" />
              <mxPoint x="548" y="288.5" />
            </Array>
          </mxGeometry>
        </mxCell>
        <mxCell id="WM-3D7Mu-6Y7IBxBlk11-18" value="" style="edgeStyle=orthogonalEdgeStyle;html=1;endArrow=block;elbow=vertical;startArrow=none;endFill=1;strokeColor=#545B64;rounded=0;" parent="1" source="WM-3D7Mu-6Y7IBxBlk11-15" target="WM-3D7Mu-6Y7IBxBlk11-25" edge="1">
          <mxGeometry width="100" relative="1" as="geometry">
            <mxPoint x="702" y="288.5" as="sourcePoint" />
            <mxPoint x="901.5" y="367.5" as="targetPoint" />
            <Array as="points">
              <mxPoint x="808" y="288.5" />
              <mxPoint x="808" y="367.5" />
            </Array>
          </mxGeometry>
        </mxCell>
        <mxCell id="WM-3D7Mu-6Y7IBxBlk11-19" value="" style="outlineConnect=0;dashed=0;verticalLabelPosition=bottom;verticalAlign=top;align=center;html=1;shape=mxgraph.aws3.ec2_compute_container;fillColor=#F58534;gradientColor=none;" parent="1" vertex="1">
          <mxGeometry x="888" y="378.5" width="60" height="34.5" as="geometry" />
        </mxCell>
        <mxCell id="WM-3D7Mu-6Y7IBxBlk11-20" value="" style="outlineConnect=0;dashed=0;verticalLabelPosition=bottom;verticalAlign=top;align=center;html=1;shape=mxgraph.aws3.ec2_compute_container;fillColor=#F58534;gradientColor=none;" parent="1" vertex="1">
          <mxGeometry x="418" y="378.5" width="60" height="34.5" as="geometry" />
        </mxCell>
        <mxCell id="WM-3D7Mu-6Y7IBxBlk11-21" value="" style="edgeStyle=orthogonalEdgeStyle;html=1;endArrow=none;elbow=vertical;startArrow=block;startFill=1;strokeColor=#545B64;rounded=0;exitX=0;exitY=0.25;exitDx=0;exitDy=0;entryX=1;entryY=0.5;entryDx=0;entryDy=0;entryPerimeter=0;" parent="1" source="WM-3D7Mu-6Y7IBxBlk11-13" target="WM-3D7Mu-6Y7IBxBlk11-1" edge="1">
          <mxGeometry width="100" relative="1" as="geometry">
            <mxPoint x="38" y="216" as="sourcePoint" />
            <mxPoint x="244" y="138.5" as="targetPoint" />
            <Array as="points">
              <mxPoint x="237" y="215.5" />
              <mxPoint x="237" y="307.5" />
            </Array>
          </mxGeometry>
        </mxCell>
        <mxCell id="WM-3D7Mu-6Y7IBxBlk11-22" value="" style="edgeStyle=orthogonalEdgeStyle;html=1;endArrow=none;elbow=vertical;startArrow=block;startFill=1;strokeColor=#545B64;rounded=0;exitX=0;exitY=0.25;exitDx=0;exitDy=0;" parent="1" source="WM-3D7Mu-6Y7IBxBlk11-24" target="WM-3D7Mu-6Y7IBxBlk11-1" edge="1">
          <mxGeometry width="100" relative="1" as="geometry">
            <mxPoint x="394" y="350" as="sourcePoint" />
            <mxPoint x="238" y="257" as="targetPoint" />
            <Array as="points">
              <mxPoint x="237" y="365.5" />
              <mxPoint x="237" y="307.5" />
            </Array>
          </mxGeometry>
        </mxCell>
        <mxCell id="WM-3D7Mu-6Y7IBxBlk11-23" value="Auto Scaling group" style="points=[[0,0],[0.25,0],[0.5,0],[0.75,0],[1,0],[1,0.25],[1,0.5],[1,0.75],[1,1],[0.75,1],[0.5,1],[0.25,1],[0,1],[0,0.75],[0,0.5],[0,0.25]];outlineConnect=0;gradientColor=none;html=1;whiteSpace=wrap;fontSize=12;fontStyle=0;container=1;pointerEvents=0;collapsible=0;recursiveResize=0;shape=mxgraph.aws4.groupCenter;grIcon=mxgraph.aws4.group_auto_scaling_group;grStroke=1;strokeColor=#D86613;fillColor=none;verticalAlign=top;align=center;fontColor=#D86613;dashed=1;spacingTop=25;" parent="1" vertex="1">
          <mxGeometry x="378" y="331" width="600" height="117.5" as="geometry" />
        </mxCell>
        <mxCell id="WM-3D7Mu-6Y7IBxBlk11-24" value="EC2 instance contents" style="points=[[0,0],[0.25,0],[0.5,0],[0.75,0],[1,0],[1,0.25],[1,0.5],[1,0.75],[1,1],[0.75,1],[0.5,1],[0.25,1],[0,1],[0,0.75],[0,0.5],[0,0.25]];outlineConnect=0;gradientColor=none;html=1;whiteSpace=wrap;fontSize=12;fontStyle=0;container=1;pointerEvents=0;collapsible=0;recursiveResize=0;shape=mxgraph.aws4.group;grIcon=mxgraph.aws4.group_ec2_instance_contents;strokeColor=#D86613;fillColor=none;verticalAlign=top;align=left;spacingLeft=30;fontColor=#D86613;dashed=0;" parent="WM-3D7Mu-6Y7IBxBlk11-23" vertex="1">
          <mxGeometry x="15.25" y="8.75" width="108.75" height="101.25" as="geometry" />
        </mxCell>
        <mxCell id="WM-3D7Mu-6Y7IBxBlk11-25" value="EC2 instance contents" style="points=[[0,0],[0.25,0],[0.5,0],[0.75,0],[1,0],[1,0.25],[1,0.5],[1,0.75],[1,1],[0.75,1],[0.5,1],[0.25,1],[0,1],[0,0.75],[0,0.5],[0,0.25]];outlineConnect=0;gradientColor=none;html=1;whiteSpace=wrap;fontSize=12;fontStyle=0;container=1;pointerEvents=0;collapsible=0;recursiveResize=0;shape=mxgraph.aws4.group;grIcon=mxgraph.aws4.group_ec2_instance_contents;strokeColor=#D86613;fillColor=none;verticalAlign=top;align=left;spacingLeft=30;fontColor=#D86613;dashed=0;" parent="WM-3D7Mu-6Y7IBxBlk11-23" vertex="1">
          <mxGeometry x="480" y="8.75" width="108.75" height="101.25" as="geometry" />
        </mxCell>
        <mxCell id="J73YTCNyRe-hef-b6W-6-3" value="" style="group" parent="1" connectable="0" vertex="1">
          <mxGeometry x="125" y="34" width="166" height="142" as="geometry" />
        </mxCell>
        <mxCell id="J73YTCNyRe-hef-b6W-6-1" value="Registry" style="fillColor=none;strokeColor=#5A6C86;dashed=1;verticalAlign=top;fontStyle=0;fontColor=#5A6C86;whiteSpace=wrap;html=1;" parent="J73YTCNyRe-hef-b6W-6-3" vertex="1">
          <mxGeometry width="166" height="142" as="geometry" />
        </mxCell>
        <mxCell id="kQ__co5gk_pkUT_HhGPp-1" value="ECR" style="sketch=0;points=[[0,0,0],[0.25,0,0],[0.5,0,0],[0.75,0,0],[1,0,0],[0,1,0],[0.25,1,0],[0.5,1,0],[0.75,1,0],[1,1,0],[0,0.25,0],[0,0.5,0],[0,0.75,0],[1,0.25,0],[1,0.5,0],[1,0.75,0]];outlineConnect=0;fontColor=#232F3E;fillColor=#ED7100;strokeColor=#ffffff;dashed=0;verticalLabelPosition=bottom;verticalAlign=top;align=center;html=1;fontSize=12;fontStyle=0;aspect=fixed;shape=mxgraph.aws4.resourceIcon;resIcon=mxgraph.aws4.ecr;" parent="J73YTCNyRe-hef-b6W-6-3" vertex="1">
          <mxGeometry x="54" y="42" width="58" height="58" as="geometry" />
        </mxCell>
      </root>
    </mxGraphModel>
  </diagram>
  <diagram id="8nEr5JJgOFFtIKBniubh" name="데이터 분석">
    <mxGraphModel dx="3328" dy="746" grid="0" gridSize="10" guides="1" tooltips="1" connect="1" arrows="1" fold="1" page="1" pageScale="1" pageWidth="827" pageHeight="1169" math="0" shadow="0">
      <root>
        <mxCell id="0" />
        <mxCell id="1" parent="0" />
        <mxCell id="E4JJx-RTWI5QOgvnZruz-1" value="AWS S3" style="sketch=0;points=[[0,0,0],[0.25,0,0],[0.5,0,0],[0.75,0,0],[1,0,0],[0,1,0],[0.25,1,0],[0.5,1,0],[0.75,1,0],[1,1,0],[0,0.25,0],[0,0.5,0],[0,0.75,0],[1,0.25,0],[1,0.5,0],[1,0.75,0]];outlineConnect=0;fontColor=#232F3E;fillColor=#7AA116;strokeColor=#ffffff;dashed=0;verticalLabelPosition=bottom;verticalAlign=top;align=center;html=1;fontSize=12;fontStyle=0;aspect=fixed;shape=mxgraph.aws4.resourceIcon;resIcon=mxgraph.aws4.s3;" parent="1" vertex="1">
          <mxGeometry x="-480" y="626" width="50" height="50" as="geometry" />
        </mxCell>
        <mxCell id="E4JJx-RTWI5QOgvnZruz-2" value="Lambda" style="sketch=0;points=[[0,0,0],[0.25,0,0],[0.5,0,0],[0.75,0,0],[1,0,0],[0,1,0],[0.25,1,0],[0.5,1,0],[0.75,1,0],[1,1,0],[0,0.25,0],[0,0.5,0],[0,0.75,0],[1,0.25,0],[1,0.5,0],[1,0.75,0]];outlineConnect=0;fontColor=#232F3E;fillColor=#ED7100;strokeColor=#ffffff;dashed=0;verticalLabelPosition=bottom;verticalAlign=top;align=center;html=1;fontSize=12;fontStyle=0;aspect=fixed;shape=mxgraph.aws4.resourceIcon;resIcon=mxgraph.aws4.lambda;" parent="1" vertex="1">
          <mxGeometry x="-576" y="626" width="50" height="50" as="geometry" />
        </mxCell>
        <mxCell id="E4JJx-RTWI5QOgvnZruz-3" value="Athena" style="sketch=0;points=[[0,0,0],[0.25,0,0],[0.5,0,0],[0.75,0,0],[1,0,0],[0,1,0],[0.25,1,0],[0.5,1,0],[0.75,1,0],[1,1,0],[0,0.25,0],[0,0.5,0],[0,0.75,0],[1,0.25,0],[1,0.5,0],[1,0.75,0]];outlineConnect=0;fontColor=#232F3E;fillColor=#8C4FFF;strokeColor=#ffffff;dashed=0;verticalLabelPosition=bottom;verticalAlign=top;align=center;html=1;fontSize=12;fontStyle=0;aspect=fixed;shape=mxgraph.aws4.resourceIcon;resIcon=mxgraph.aws4.athena;" parent="1" vertex="1">
          <mxGeometry x="-766" y="627" width="48" height="48" as="geometry" />
        </mxCell>
        <mxCell id="E4JJx-RTWI5QOgvnZruz-4" value="AWS Glue" style="sketch=0;points=[[0,0,0],[0.25,0,0],[0.5,0,0],[0.75,0,0],[1,0,0],[0,1,0],[0.25,1,0],[0.5,1,0],[0.75,1,0],[1,1,0],[0,0.25,0],[0,0.5,0],[0,0.75,0],[1,0.25,0],[1,0.5,0],[1,0.75,0]];outlineConnect=0;fontColor=#232F3E;fillColor=#8C4FFF;strokeColor=#ffffff;dashed=0;verticalLabelPosition=bottom;verticalAlign=top;align=center;html=1;fontSize=12;fontStyle=0;aspect=fixed;shape=mxgraph.aws4.resourceIcon;resIcon=mxgraph.aws4.glue;" parent="1" vertex="1">
          <mxGeometry x="-670" y="627" width="48" height="48" as="geometry" />
        </mxCell>
        <mxCell id="E4JJx-RTWI5QOgvnZruz-5" value="QuickSight" style="sketch=0;points=[[0,0,0],[0.25,0,0],[0.5,0,0],[0.75,0,0],[1,0,0],[0,1,0],[0.25,1,0],[0.5,1,0],[0.75,1,0],[1,1,0],[0,0.25,0],[0,0.5,0],[0,0.75,0],[1,0.25,0],[1,0.5,0],[1,0.75,0]];outlineConnect=0;fontColor=#232F3E;fillColor=#8C4FFF;strokeColor=#ffffff;dashed=0;verticalLabelPosition=bottom;verticalAlign=top;align=center;html=1;fontSize=12;fontStyle=0;aspect=fixed;shape=mxgraph.aws4.resourceIcon;resIcon=mxgraph.aws4.quicksight;" parent="1" vertex="1">
          <mxGeometry x="-867" y="626" width="50" height="50" as="geometry" />
        </mxCell>
        <mxCell id="E4JJx-RTWI5QOgvnZruz-6" value="" style="endArrow=classic;html=1;rounded=0;exitX=0;exitY=0.5;exitDx=0;exitDy=0;exitPerimeter=0;entryX=1;entryY=0.5;entryDx=0;entryDy=0;entryPerimeter=0;" parent="1" source="E4JJx-RTWI5QOgvnZruz-1" target="E4JJx-RTWI5QOgvnZruz-2" edge="1">
          <mxGeometry width="50" height="50" relative="1" as="geometry">
            <mxPoint x="-568" y="820" as="sourcePoint" />
            <mxPoint x="-445" y="655" as="targetPoint" />
          </mxGeometry>
        </mxCell>
        <mxCell id="E4JJx-RTWI5QOgvnZruz-7" value="" style="sketch=0;outlineConnect=0;fontColor=#232F3E;gradientColor=none;fillColor=#232F3D;strokeColor=none;dashed=0;verticalLabelPosition=bottom;verticalAlign=top;align=center;html=1;fontSize=12;fontStyle=0;aspect=fixed;pointerEvents=1;shape=mxgraph.aws4.user;" parent="1" vertex="1">
          <mxGeometry x="-1051" y="620" width="50" height="50" as="geometry" />
        </mxCell>
        <mxCell id="E4JJx-RTWI5QOgvnZruz-8" value="Lambda" style="sketch=0;points=[[0,0,0],[0.25,0,0],[0.5,0,0],[0.75,0,0],[1,0,0],[0,1,0],[0.25,1,0],[0.5,1,0],[0.75,1,0],[1,1,0],[0,0.25,0],[0,0.5,0],[0,0.75,0],[1,0.25,0],[1,0.5,0],[1,0.75,0]];outlineConnect=0;fontColor=#232F3E;fillColor=#ED7100;strokeColor=#ffffff;dashed=0;verticalLabelPosition=bottom;verticalAlign=top;align=center;html=1;fontSize=12;fontStyle=0;aspect=fixed;shape=mxgraph.aws4.resourceIcon;resIcon=mxgraph.aws4.lambda;" parent="1" vertex="1">
          <mxGeometry x="-256.5" y="626" width="50" height="50" as="geometry" />
        </mxCell>
        <mxCell id="E4JJx-RTWI5QOgvnZruz-9" value="EventBridge" style="sketch=0;points=[[0,0,0],[0.25,0,0],[0.5,0,0],[0.75,0,0],[1,0,0],[0,1,0],[0.25,1,0],[0.5,1,0],[0.75,1,0],[1,1,0],[0,0.25,0],[0,0.5,0],[0,0.75,0],[1,0.25,0],[1,0.5,0],[1,0.75,0]];outlineConnect=0;fontColor=#232F3E;fillColor=#E7157B;strokeColor=#ffffff;dashed=0;verticalLabelPosition=bottom;verticalAlign=top;align=center;html=1;fontSize=12;fontStyle=0;aspect=fixed;shape=mxgraph.aws4.resourceIcon;resIcon=mxgraph.aws4.eventbridge;" parent="1" vertex="1">
          <mxGeometry x="-156" y="622" width="58" height="58" as="geometry" />
        </mxCell>
        <mxCell id="E4JJx-RTWI5QOgvnZruz-10" value="" style="endArrow=classic;html=1;rounded=0;exitX=0;exitY=0.5;exitDx=0;exitDy=0;exitPerimeter=0;" parent="1" source="E4JJx-RTWI5QOgvnZruz-9" target="E4JJx-RTWI5QOgvnZruz-8" edge="1">
          <mxGeometry width="50" height="50" relative="1" as="geometry">
            <mxPoint x="-177" y="657" as="sourcePoint" />
            <mxPoint x="-206" y="651" as="targetPoint" />
          </mxGeometry>
        </mxCell>
        <mxCell id="E4JJx-RTWI5QOgvnZruz-11" value="" style="edgeStyle=orthogonalEdgeStyle;html=1;endArrow=block;elbow=vertical;startArrow=none;endFill=1;strokeColor=#545B64;rounded=0;entryX=1;entryY=0.5;entryDx=0;entryDy=0;entryPerimeter=0;exitX=0;exitY=0.5;exitDx=0;exitDy=0;exitPerimeter=0;" parent="1" source="E4JJx-RTWI5QOgvnZruz-8" target="E4JJx-RTWI5QOgvnZruz-1" edge="1">
          <mxGeometry width="100" relative="1" as="geometry">
            <mxPoint x="499" y="204.5" as="sourcePoint" />
            <mxPoint x="485" y="-124" as="targetPoint" />
            <Array as="points">
              <mxPoint x="-397" y="651" />
              <mxPoint x="-397" y="651" />
            </Array>
          </mxGeometry>
        </mxCell>
        <mxCell id="E4JJx-RTWI5QOgvnZruz-12" value="" style="edgeStyle=orthogonalEdgeStyle;html=1;endArrow=block;elbow=vertical;startArrow=none;endFill=1;strokeColor=#545B64;rounded=0;exitX=0;exitY=0.5;exitDx=0;exitDy=0;exitPerimeter=0;" parent="1" source="E4JJx-RTWI5QOgvnZruz-5" target="E4JJx-RTWI5QOgvnZruz-7" edge="1">
          <mxGeometry width="100" relative="1" as="geometry">
            <mxPoint x="-978" y="526.5" as="sourcePoint" />
            <mxPoint x="-835" y="594" as="targetPoint" />
            <Array as="points">
              <mxPoint x="-988" y="651" />
              <mxPoint x="-988" y="651" />
            </Array>
          </mxGeometry>
        </mxCell>
        <mxCell id="E4JJx-RTWI5QOgvnZruz-13" value="" style="endArrow=classic;html=1;rounded=0;exitX=0;exitY=0.5;exitDx=0;exitDy=0;exitPerimeter=0;entryX=1;entryY=0.5;entryDx=0;entryDy=0;entryPerimeter=0;" parent="1" source="E4JJx-RTWI5QOgvnZruz-2" target="E4JJx-RTWI5QOgvnZruz-4" edge="1">
          <mxGeometry width="50" height="50" relative="1" as="geometry">
            <mxPoint x="-470" y="661" as="sourcePoint" />
            <mxPoint x="-516" y="661" as="targetPoint" />
          </mxGeometry>
        </mxCell>
        <mxCell id="E4JJx-RTWI5QOgvnZruz-14" value="" style="endArrow=classic;html=1;rounded=0;exitX=0;exitY=0.5;exitDx=0;exitDy=0;exitPerimeter=0;entryX=1;entryY=0.5;entryDx=0;entryDy=0;entryPerimeter=0;" parent="1" source="E4JJx-RTWI5QOgvnZruz-4" target="E4JJx-RTWI5QOgvnZruz-3" edge="1">
          <mxGeometry width="50" height="50" relative="1" as="geometry">
            <mxPoint x="-680" y="591" as="sourcePoint" />
            <mxPoint x="-726" y="591" as="targetPoint" />
          </mxGeometry>
        </mxCell>
        <mxCell id="E4JJx-RTWI5QOgvnZruz-15" value="" style="endArrow=classic;html=1;rounded=0;exitX=0;exitY=0.5;exitDx=0;exitDy=0;exitPerimeter=0;entryX=1;entryY=0.5;entryDx=0;entryDy=0;entryPerimeter=0;" parent="1" source="E4JJx-RTWI5QOgvnZruz-3" target="E4JJx-RTWI5QOgvnZruz-5" edge="1">
          <mxGeometry width="50" height="50" relative="1" as="geometry">
            <mxPoint x="-756" y="599" as="sourcePoint" />
            <mxPoint x="-804" y="599" as="targetPoint" />
          </mxGeometry>
        </mxCell>
        <mxCell id="oEN0sxfLp7TTcbZu1AqL-1" value="&lt;span style=&quot;color: rgba(0, 0, 0, 0); font-family: monospace; font-size: 0px; text-wrap: nowrap;&quot;&gt;db%3CmxGraphModel%3E%3Croot%3E%3CmxCell%20id%3D%220%22%2F%3E%3CmxCell%20id%3D%221%22%20parent%3D%220%22%2F%3E%3CmxCell%20id%3D%222%22%20value%3D%22ALB%22%20style%3D%22sketch%3D0%3BoutlineConnect%3D0%3BfontColor%3D%23232F3E%3BgradientColor%3Dnone%3BfillColor%3D%238C4FFF%3BstrokeColor%3Dnone%3Bdashed%3D0%3BverticalLabelPosition%3Dbottom%3BverticalAlign%3Dtop%3Balign%3Dcenter%3Bhtml%3D1%3BfontSize%3D12%3BfontStyle%3D0%3Baspect%3Dfixed%3BpointerEvents%3D1%3Bshape%3Dmxgraph.aws4.application_load_balancer%3B%22%20vertex%3D%221%22%20parent%3D%221%22%3E%3CmxGeometry%20x%3D%22753.75%22%20y%3D%22490%22%20width%3D%2240%22%20height%3D%2240%22%20as%3D%22geometry%22%2F%3E%3C%2FmxCell%3E%3CmxCell%20id%3D%223%22%20value%3D%22%22%20style%3D%22edgeStyle%3DorthogonalEdgeStyle%3Bhtml%3D1%3BendArrow%3Dblock%3Belbow%3Dvertical%3BstartArrow%3Dnone%3BendFill%3D1%3BstrokeColor%3D%23545B64%3Brounded%3D0%3BentryX%3D0.5%3BentryY%3D0%3BentryDx%3D0%3BentryDy%3D0%3BentryPerimeter%3D0%3B%22%20edge%3D%221%22%20source%3D%222%22%20parent%3D%221%22%3E%3CmxGeometry%20width%3D%22100%22%20relative%3D%221%22%20as%3D%22geometry%22%3E%3CmxPoint%20x%3D%22800%22%20y%3D%22510%22%20as%3D%22sourcePoint%22%2F%3E%3CmxPoint%20x%3D%22954%22%20y%3D%22566%22%20as%3D%22targetPoint%22%2F%3E%3C%2FmxGeometry%3E%3C%2FmxCell%3E%3CmxCell%20id%3D%224%22%20value%3D%22%22%20style%3D%22edgeStyle%3DorthogonalEdgeStyle%3Bhtml%3D1%3BendArrow%3Dnone%3Belbow%3Dvertical%3BstartArrow%3Dblock%3BstartFill%3D1%3BstrokeColor%3D%23545B64%3Brounded%3D0%3BexitX%3D0.5%3BexitY%3D0%3BexitDx%3D0%3BexitDy%3D0%3BexitPerimeter%3D0%3B%22%20edge%3D%221%22%20target%3D%222%22%20parent%3D%221%22%3E%3CmxGeometry%20width%3D%22100%22%20relative%3D%221%22%20as%3D%22geometry%22%3E%3CmxPoint%20x%3D%22592%22%20y%3D%22566%22%20as%3D%22sourcePoint%22%2F%3E%3CmxPoint%20x%3D%22700%22%20y%3D%22500%22%20as%3D%22targetPoint%22%2F%3E%3CArray%20as%3D%22points%22%3E%3CmxPoint%20x%3D%22592%22%20y%3D%22510%22%2F%3E%3C%2FArray%3E%3C%2FmxGeometry%3E%3C%2FmxCell%3E%3C%2Froot%3E%3C%2FmxGraphModel%3Edfd&lt;/span&gt;&amp;nbsp;DB subnet" style="points=[[0,0],[0.25,0],[0.5,0],[0.75,0],[1,0],[1,0.25],[1,0.5],[1,0.75],[1,1],[0.75,1],[0.5,1],[0.25,1],[0,1],[0,0.75],[0,0.5],[0,0.25]];outlineConnect=0;gradientColor=none;html=1;whiteSpace=wrap;fontSize=12;fontStyle=0;container=1;pointerEvents=0;collapsible=0;recursiveResize=0;shape=mxgraph.aws4.group;grIcon=mxgraph.aws4.group_security_group;grStroke=0;strokeColor=#00A4A6;fillColor=#E6F6F7;verticalAlign=top;align=left;spacingLeft=30;fontColor=#147EBA;dashed=0;" parent="1" vertex="1">
          <mxGeometry x="-206.5" y="407" width="153.75" height="150" as="geometry" />
        </mxCell>
        <mxCell id="oEN0sxfLp7TTcbZu1AqL-2" value="RDS&lt;div&gt;Primary&lt;/div&gt;" style="sketch=0;points=[[0,0,0],[0.25,0,0],[0.5,0,0],[0.75,0,0],[1,0,0],[0,1,0],[0.25,1,0],[0.5,1,0],[0.75,1,0],[1,1,0],[0,0.25,0],[0,0.5,0],[0,0.75,0],[1,0.25,0],[1,0.5,0],[1,0.75,0]];outlineConnect=0;fontColor=#232F3E;fillColor=#C925D1;strokeColor=#ffffff;dashed=0;verticalLabelPosition=bottom;verticalAlign=top;align=center;html=1;fontSize=12;fontStyle=0;aspect=fixed;shape=mxgraph.aws4.resourceIcon;resIcon=mxgraph.aws4.rds;" parent="oEN0sxfLp7TTcbZu1AqL-1" vertex="1">
          <mxGeometry x="53.75" y="45.5" width="39" height="39" as="geometry" />
        </mxCell>
        <mxCell id="oEN0sxfLp7TTcbZu1AqL-3" value="" style="endArrow=classic;html=1;rounded=0;entryX=0.5;entryY=0;entryDx=0;entryDy=0;entryPerimeter=0;" parent="1" source="oEN0sxfLp7TTcbZu1AqL-1" target="E4JJx-RTWI5QOgvnZruz-9" edge="1">
          <mxGeometry width="50" height="50" relative="1" as="geometry">
            <mxPoint x="-127" y="590" as="sourcePoint" />
            <mxPoint x="-125.25" y="616" as="targetPoint" />
          </mxGeometry>
        </mxCell>
      </root>
    </mxGraphModel>
  </diagram>
</mxfile>
